<svg width="1920" height="1024" viewBox="0 0 1920 1024" fill="none" xmlns="http://www.w3.org/2000/svg">
<rect width="1920" height="1024" fill="#0C0B0B"/>
<path d="M1885.77 474.199C1894.09 481.758 1899.94 489.491 1903.14 497.365L1901.75 497.93C1903.58 502.429 1904.5 506.951 1904.5 511.5C1904.5 516.049 1903.58 520.571 1901.75 525.07L1903.14 525.634C1899.94 533.509 1894.09 541.242 1885.77 548.801L1884.76 547.69C1878.44 553.425 1870.65 559.08 1861.45 564.637L1862.22 565.921C1854.6 570.526 1846.03 575.05 1836.56 579.487L1835.93 578.129C1827.68 581.993 1818.74 585.793 1809.15 589.523L1809.69 590.921C1801.1 594.259 1791.98 597.539 1782.36 600.757L1781.89 599.335C1773.06 602.289 1763.8 605.191 1754.13 608.039L1754.55 609.478C1745.54 612.133 1736.17 614.74 1726.46 617.296L1726.07 615.845C1716.96 618.245 1707.54 620.599 1697.83 622.908L1698.17 624.367C1688.96 626.557 1679.49 628.705 1669.76 630.81L1669.44 629.343C1660.17 631.349 1650.67 633.315 1640.94 635.241L1641.24 636.712C1631.9 638.561 1622.35 640.372 1612.61 642.144L1612.34 640.668C1602.95 642.375 1593.38 644.046 1583.64 645.679L1583.88 647.158C1574.44 648.74 1564.83 650.287 1555.06 651.797L1554.83 650.315C1545.35 651.781 1535.71 653.212 1525.93 654.608L1526.14 656.093C1516.69 657.443 1507.1 658.759 1497.38 660.042L1497.18 658.555C1487.69 659.807 1478.07 661.027 1468.33 662.215L1468.51 663.704C1458.96 664.867 1449.3 665.998 1439.53 667.097L1439.36 665.606C1429.78 666.684 1420.09 667.73 1410.29 668.744L1410.45 670.236C1400.92 671.223 1391.28 672.18 1381.56 673.105L1381.42 671.612C1371.84 672.523 1362.18 673.404 1352.42 674.254L1352.56 675.749C1342.93 676.587 1333.23 677.396 1323.44 678.175L1323.32 676.679C1313.73 677.442 1304.06 678.175 1294.31 678.878L1294.42 680.374C1284.81 681.068 1275.13 681.732 1265.38 682.367L1265.28 680.87C1255.63 681.498 1245.92 682.097 1236.13 682.666L1236.22 684.164C1226.6 684.724 1216.91 685.255 1207.16 685.758L1207.09 684.26C1197.45 684.757 1187.76 685.225 1178.01 685.665L1178.07 687.163C1168.4 687.599 1158.66 688.007 1148.87 688.387L1148.81 686.888C1139.19 687.26 1129.51 687.605 1119.78 687.922L1119.83 689.421C1110.16 689.736 1100.45 690.022 1090.69 690.28L1090.65 688.781C1080.97 689.037 1071.25 689.265 1061.49 689.464L1061.52 690.964C1051.86 691.161 1042.17 691.331 1032.43 691.472L1032.41 689.972C1022.72 690.113 1012.99 690.226 1003.22 690.311L1003.24 691.811C993.573 691.895 983.871 691.951 974.133 691.979L974.129 690.479C969.261 690.493 964.385 690.5 959.5 690.5C954.615 690.5 949.739 690.493 944.871 690.479L944.867 691.979C935.129 691.951 925.427 691.895 915.763 691.811L915.776 690.311C906.009 690.226 896.28 690.113 886.593 689.972L886.571 691.472C876.833 691.331 867.137 691.161 857.484 690.964L857.514 689.464C847.749 689.265 838.028 689.037 828.354 688.781L828.315 690.28C818.552 690.022 808.838 689.736 799.173 689.421L799.222 687.922C789.491 687.605 779.812 687.26 770.185 686.888L770.127 688.387C760.338 688.007 750.603 687.599 740.926 687.163L740.993 685.665C731.241 685.225 721.548 684.757 711.915 684.26L711.838 685.758C702.089 685.255 692.402 684.724 682.781 684.164L682.868 682.666C673.084 682.097 663.367 681.498 653.72 680.87L653.623 682.367C643.87 681.732 634.189 681.068 624.583 680.374L624.691 678.878C614.944 678.175 605.273 677.442 595.683 676.679L595.564 678.175C585.773 677.396 576.066 676.587 566.445 675.749L566.575 674.254C556.821 673.404 547.156 672.523 537.583 671.612L537.441 673.105C527.715 672.18 518.085 671.223 508.553 670.236L508.707 668.744C498.911 667.73 489.22 666.684 479.637 665.606L479.469 667.097C469.696 665.998 460.036 664.867 450.492 663.704L450.674 662.215C440.932 661.027 431.313 659.807 421.819 658.555L421.623 660.042C411.901 658.759 402.312 657.443 392.859 656.093L393.071 654.608C383.29 653.212 373.655 651.781 364.172 650.315L363.943 651.797C354.172 650.287 344.561 648.74 335.117 647.158L335.365 645.679C325.616 644.046 316.046 642.375 306.659 640.668L306.391 642.144C296.649 640.372 287.104 638.561 277.765 636.712L278.056 635.241C268.331 633.315 258.829 631.349 249.557 629.343L249.24 630.81C239.512 628.705 230.038 626.557 220.825 624.367L221.172 622.908C211.46 620.599 202.041 618.245 192.925 615.845L192.544 617.296C182.831 614.74 173.461 612.133 164.446 609.478L164.87 608.039C155.2 605.191 145.941 602.289 137.111 599.335L136.635 600.757C127.016 597.539 117.901 594.259 109.311 590.921L109.854 589.523C100.256 585.793 91.32 581.993 83.0749 578.129L82.4383 579.487C72.972 575.05 64.4045 570.526 56.779 565.921L57.5543 564.637C48.3517 559.08 40.5606 553.425 34.2422 547.69L33.2341 548.801C24.9059 541.242 19.0577 533.509 15.8593 525.635L17.249 525.07C15.4217 520.571 14.5 516.049 14.5 511.5C14.5 506.951 15.4217 502.429 17.2489 497.93L15.8592 497.366C19.0576 489.491 24.9058 481.758 33.2339 474.199L34.2421 475.31C40.5604 469.575 48.3515 463.92 57.5542 458.363L56.7788 457.079C64.4044 452.474 72.9719 447.95 82.4382 443.513L83.0748 444.871C91.3199 441.007 100.256 437.207 109.854 433.477L109.311 432.079C117.901 428.741 127.016 425.461 136.635 422.243L137.111 423.665C145.941 420.711 155.199 417.809 164.87 414.961L164.446 413.522C173.46 410.867 182.831 408.26 192.544 405.704L192.925 407.155C202.041 404.755 211.46 402.401 221.172 400.092L220.825 398.633C230.037 396.443 239.512 394.295 249.24 392.19L249.557 393.657C258.828 391.651 268.331 389.685 278.056 387.759L277.765 386.288C287.104 384.439 296.649 382.628 306.391 380.856L306.659 382.332C316.046 380.625 325.616 378.955 335.365 377.321L335.117 375.842C344.561 374.26 354.171 372.713 363.943 371.203L364.172 372.685C373.655 371.219 383.29 369.788 393.071 368.392L392.859 366.907C402.312 365.557 411.901 364.241 421.623 362.958L421.819 364.445C431.313 363.193 440.932 361.973 450.674 360.785L450.492 359.296C460.036 358.133 469.696 357.002 479.469 355.903L479.637 357.394C489.22 356.316 498.911 355.27 508.707 354.256L508.553 352.764C518.084 351.777 527.715 350.82 537.441 349.895L537.583 351.388C547.156 350.477 556.821 349.596 566.575 348.746L566.445 347.251C576.066 346.413 585.773 345.604 595.564 344.825L595.683 346.321C605.273 345.558 614.944 344.825 624.691 344.122L624.583 342.626C634.189 341.932 643.87 341.268 653.623 340.633L653.72 342.13C663.367 341.502 673.084 340.903 682.868 340.334L682.781 338.836C692.402 338.276 702.089 337.745 711.838 337.242L711.915 338.74C721.547 338.243 731.241 337.775 740.993 337.335L740.925 335.837C750.603 335.401 760.338 334.993 770.127 334.613L770.185 336.112C779.812 335.74 789.491 335.395 799.222 335.078L799.173 333.579C808.838 333.264 818.552 332.978 828.315 332.72L828.354 334.219C838.028 333.963 847.749 333.735 857.514 333.536L857.484 332.036C867.137 331.839 876.833 331.669 886.571 331.528L886.592 333.028C896.28 332.887 906.009 332.774 915.776 332.689L915.763 331.189C925.427 331.105 935.129 331.049 944.867 331.021L944.871 332.521C949.739 332.507 954.615 332.5 959.5 332.5C964.385 332.5 969.261 332.507 974.129 332.521L974.133 331.021C983.871 331.049 993.573 331.105 1003.24 331.189L1003.22 332.689C1012.99 332.774 1022.72 332.887 1032.41 333.028L1032.43 331.528C1042.17 331.669 1051.86 331.839 1061.52 332.036L1061.49 333.536C1071.25 333.735 1080.97 333.963 1090.65 334.219L1090.69 332.72C1100.45 332.978 1110.16 333.264 1119.83 333.579L1119.78 335.078C1129.51 335.395 1139.19 335.74 1148.81 336.112L1148.87 334.613C1158.66 334.993 1168.4 335.401 1178.07 335.837L1178.01 337.335C1187.76 337.775 1197.45 338.243 1207.09 338.74L1207.16 337.242C1216.91 337.745 1226.6 338.276 1236.22 338.836L1236.13 340.334C1245.92 340.903 1255.63 341.502 1265.28 342.13L1265.38 340.633C1275.13 341.268 1284.81 341.932 1294.42 342.626L1294.31 344.122C1304.06 344.825 1313.73 345.558 1323.32 346.321L1323.44 344.825C1333.23 345.604 1342.93 346.413 1352.56 347.251L1352.42 348.746C1362.18 349.596 1371.84 350.477 1381.42 351.388L1381.56 349.895C1391.28 350.82 1400.92 351.777 1410.45 352.764L1410.29 354.256C1420.09 355.27 1429.78 356.316 1439.36 357.394L1439.53 355.903C1449.3 357.002 1458.96 358.133 1468.51 359.296L1468.33 360.785C1478.07 361.972 1487.69 363.193 1497.18 364.445L1497.38 362.958C1507.1 364.241 1516.69 365.557 1526.14 366.907L1525.93 368.392C1535.71 369.788 1545.34 371.219 1554.83 372.685L1555.06 371.203C1564.83 372.713 1574.44 374.26 1583.88 375.842L1583.64 377.321C1593.38 378.954 1602.95 380.625 1612.34 382.332L1612.61 380.856C1622.35 382.628 1631.9 384.439 1641.24 386.288L1640.94 387.759C1650.67 389.685 1660.17 391.651 1669.44 393.657L1669.76 392.19C1679.49 394.295 1688.96 396.443 1698.17 398.633L1697.83 400.092C1707.54 402.401 1716.96 404.755 1726.07 407.155L1726.46 405.704C1736.17 408.26 1745.54 410.867 1754.55 413.522L1754.13 414.961C1763.8 417.809 1773.06 420.711 1781.89 423.665L1782.36 422.243C1791.98 425.461 1801.1 428.741 1809.69 432.079L1809.15 433.477C1818.74 437.207 1827.68 441.007 1835.93 444.871L1836.56 443.513C1846.03 447.95 1854.6 452.474 1862.22 457.079L1861.45 458.363C1870.65 463.92 1878.44 469.575 1884.76 475.31L1885.77 474.199Z" stroke="white" stroke-width="3" stroke-dasharray="30 30"/>
<path d="M2857.96 468.69C2863.57 477.846 2867.41 487.105 2869.4 496.455L2867.93 496.767C2868.98 501.657 2869.5 506.568 2869.5 511.5C2869.5 516.432 2868.98 521.343 2867.93 526.232L2869.4 526.544C2867.41 535.894 2863.57 545.153 2857.96 554.309L2856.68 553.524C2851.85 561.398 2845.67 569.215 2838.18 576.965L2839.26 578.007C2832.68 584.807 2825.12 591.54 2816.59 598.201L2815.67 597.02C2808.19 602.862 2799.97 608.655 2791.01 614.393L2791.82 615.656C2783.73 620.839 2775.05 625.974 2765.8 631.058L2765.08 629.744C2756.61 634.395 2747.66 639.006 2738.23 643.572L2738.89 644.922C2730.08 649.191 2720.86 653.42 2711.24 657.608L2710.64 656.233C2701.58 660.178 2692.16 664.086 2682.39 667.958L2682.94 669.352C2673.91 672.933 2664.58 676.481 2654.95 679.995L2654.44 678.586C2645.18 681.967 2635.65 685.317 2625.85 688.635L2626.33 690.056C2616.89 693.255 2607.19 696.425 2597.26 699.563L2596.81 698.133C2587.47 701.084 2577.91 704.009 2568.15 706.905L2568.58 708.343C2558.98 711.19 2549.18 714.009 2539.19 716.8L2538.78 715.355C2529.29 718.007 2519.61 720.635 2509.76 723.236L2510.14 724.686C2500.48 727.237 2490.65 729.762 2480.66 732.262L2480.29 730.807C2470.66 733.217 2460.87 735.603 2450.93 737.965L2451.28 739.425C2441.56 741.735 2431.69 744.023 2421.69 746.287L2421.36 744.824C2411.64 747.021 2401.8 749.196 2391.82 751.348L2392.14 752.814C2382.35 754.926 2372.43 757.016 2362.39 759.083L2362.09 757.614C2352.34 759.623 2342.46 761.61 2332.48 763.577L2332.77 765.049C2322.9 766.991 2312.92 768.913 2302.83 770.814L2302.55 769.34C2292.78 771.18 2282.91 773.001 2272.94 774.801L2273.2 776.277C2263.25 778.073 2253.19 779.85 2243.04 781.606L2242.78 780.128C2233.02 781.816 2223.16 783.486 2213.21 785.136L2213.45 786.616C2203.5 788.267 2193.46 789.898 2183.33 791.51L2183.09 790.029C2173.24 791.596 2163.31 793.145 2153.29 794.674L2153.52 796.157C2143.6 797.672 2133.6 799.168 2123.52 800.646L2123.3 799.162C2113.34 800.622 2103.3 802.065 2093.18 803.488L2093.39 804.974C2083.51 806.364 2073.56 807.737 2063.53 809.092L2063.33 807.606C2053.3 808.96 2043.21 810.297 2033.04 811.615L2033.24 813.103C2023.34 814.386 2013.38 815.653 2003.35 816.901L2003.17 815.413C1993.2 816.655 1983.16 817.879 1973.06 819.086L1973.24 820.575C1963.22 821.773 1953.13 822.954 1942.99 824.117L1942.81 822.627C1932.9 823.764 1922.92 824.885 1912.88 825.988L1913.05 827.479C1903.01 828.583 1892.91 829.67 1882.76 830.74L1882.6 829.248C1872.62 830.3 1862.59 831.335 1852.5 832.354L1852.65 833.846C1842.67 834.854 1832.64 835.845 1822.56 836.819L1822.41 835.326C1812.33 836.3 1802.2 837.258 1792.02 838.199L1792.16 839.693C1782.2 840.613 1772.19 841.518 1762.14 842.406L1762.01 840.912C1751.99 841.797 1741.93 842.665 1731.82 843.518L1731.94 845.013C1721.85 845.864 1711.71 846.7 1701.52 847.519L1701.4 846.023C1691.44 846.824 1681.44 847.609 1671.39 848.378L1671.51 849.874C1661.46 850.643 1651.37 851.397 1641.24 852.135L1641.13 850.639C1631.05 851.373 1620.92 852.091 1610.76 852.794L1610.86 854.29C1600.87 854.981 1590.85 855.655 1580.78 856.315L1580.69 854.818C1570.62 855.477 1560.52 856.121 1550.39 856.748L1550.48 858.245C1540.39 858.87 1530.27 859.479 1520.11 860.073L1520.02 858.575C1510.02 859.159 1499.98 859.729 1489.91 860.282L1489.99 861.78C1479.91 862.334 1469.8 862.872 1459.66 863.395L1459.59 861.897C1449.49 862.417 1439.37 862.922 1429.21 863.412L1429.29 864.91C1419.27 865.393 1409.22 865.86 1399.14 866.313L1399.07 864.814C1388.99 865.267 1378.89 865.704 1368.75 866.126L1368.81 867.624C1358.7 868.045 1348.57 868.45 1338.41 868.839L1338.35 867.34C1328.33 867.725 1318.28 868.094 1308.2 868.449L1308.25 869.948C1298.17 870.302 1288.06 870.641 1277.92 870.965L1277.88 869.466C1267.76 869.79 1257.61 870.098 1247.44 870.391L1247.49 871.891C1237.46 872.18 1227.4 872.454 1217.32 872.713L1217.28 871.213C1207.21 871.472 1197.1 871.716 1186.98 871.945L1187.01 873.445C1176.88 873.674 1166.73 873.888 1156.55 874.087L1156.52 872.587C1146.49 872.783 1136.43 872.964 1126.35 873.13L1126.37 874.63C1116.29 874.796 1106.2 874.948 1096.08 875.084L1096.06 873.584C1085.94 873.72 1075.8 873.841 1065.64 873.948L1065.65 875.447C1055.59 875.552 1045.5 875.643 1035.4 875.718L1035.39 874.218C1025.32 874.293 1015.23 874.353 1005.12 874.398L1005.13 875.898C995.016 875.943 984.886 875.974 974.737 875.989L974.735 874.489C969.661 874.496 964.583 874.5 959.5 874.5C954.417 874.5 949.339 874.496 944.266 874.489L944.264 875.989C934.115 875.974 923.985 875.943 913.875 875.898L913.881 874.398C903.772 874.353 893.683 874.293 883.614 874.218L883.602 875.718C873.497 875.643 863.412 875.552 853.348 875.447L853.364 873.948C843.203 873.841 833.063 873.72 822.945 873.584L822.924 875.084C812.805 874.948 802.706 874.796 792.631 874.63L792.655 873.13C782.573 872.964 772.514 872.783 762.477 872.587L762.448 874.087C752.272 873.888 742.119 873.674 731.99 873.445L732.024 871.945C721.897 871.716 711.795 871.472 701.717 871.213L701.678 872.713C691.599 872.454 681.544 872.18 671.516 871.891L671.559 870.391C661.388 870.098 651.243 869.79 641.126 869.466L641.078 870.965C630.942 870.641 620.833 870.302 610.752 869.948L610.805 868.449C600.725 868.094 590.674 867.725 580.65 867.341L580.593 868.839C570.43 868.45 560.296 868.045 550.192 867.624L550.254 866.126C540.115 865.704 530.006 865.267 519.928 864.814L519.86 866.313C509.78 865.86 499.731 865.393 489.714 864.91L489.786 863.412C479.63 862.922 469.506 862.417 459.415 861.897L459.338 863.395C449.195 862.872 439.086 862.334 429.011 861.78L429.094 860.282C419.021 859.729 408.982 859.159 398.978 858.575L398.89 860.073C388.731 859.479 378.609 858.87 368.523 858.246L368.615 856.748C358.478 856.121 348.377 855.477 338.315 854.818L338.217 856.315C328.153 855.655 318.126 854.981 308.139 854.29L308.242 852.794C298.076 852.091 287.951 851.373 277.866 850.639L277.757 852.135C267.627 851.397 257.539 850.643 247.492 849.874L247.607 848.378C237.562 847.609 227.56 846.824 217.6 846.023L217.48 847.519C207.294 846.7 197.152 845.864 187.056 845.013L187.182 843.518C177.072 842.666 167.008 841.797 156.991 840.912L156.859 842.406C146.807 841.518 136.801 840.613 126.844 839.693L126.982 838.199C116.8 837.258 106.668 836.301 96.5875 835.326L96.4432 836.819C86.3607 835.845 76.3297 834.854 66.351 833.846L66.5017 832.354C56.4127 831.335 46.3774 830.3 36.3967 829.248L36.2394 830.74C26.0877 829.67 15.9924 828.583 5.95471 827.479L6.11865 825.988C-3.91675 824.885 -13.8947 823.764 -23.8139 822.627L-23.9847 824.117C-34.1317 822.954 -44.2175 821.773 -54.2407 820.575L-54.0627 819.086C-64.1613 817.879 -74.1964 816.655 -84.167 815.413L-84.3524 816.901C-94.3795 815.653 -104.341 814.386 -114.237 813.103L-114.044 811.615C-124.209 810.297 -134.304 808.96 -144.328 807.606L-144.529 809.092C-154.555 807.737 -164.51 806.364 -174.392 804.974L-174.183 803.488C-184.298 802.065 -194.338 800.623 -204.299 799.162L-204.517 800.646C-214.597 799.169 -224.597 797.672 -234.517 796.157L-234.29 794.674C-244.307 793.145 -254.241 791.596 -264.09 790.029L-264.326 791.51C-274.458 789.898 -284.501 788.267 -294.454 786.616L-294.208 785.136C-304.157 783.486 -314.016 781.816 -323.783 780.128L-324.039 781.606C-334.194 779.85 -344.25 778.074 -354.204 776.277L-353.938 774.801C-363.912 773.001 -373.784 771.18 -383.553 769.34L-383.831 770.814C-393.921 768.913 -403.901 766.991 -413.768 765.049L-413.478 763.577C-423.464 761.611 -433.335 759.623 -443.089 757.614L-443.391 759.083C-453.431 757.016 -463.347 754.926 -473.136 752.814L-472.819 751.348C-482.797 749.196 -492.644 747.021 -502.356 744.824L-502.687 746.287C-512.694 744.023 -522.56 741.735 -532.281 739.425L-531.934 737.966C-541.873 735.603 -551.66 733.217 -561.293 730.807L-561.657 732.262C-571.651 729.762 -581.479 727.237 -591.138 724.686L-590.755 723.236C-600.608 720.635 -610.285 718.008 -619.783 715.355L-620.186 716.8C-630.182 714.009 -639.979 711.19 -649.575 708.344L-649.148 706.905C-658.913 704.009 -668.468 701.085 -677.809 698.133L-678.261 699.563C-688.193 696.425 -697.884 693.256 -707.33 690.056L-706.848 688.636C-716.645 685.318 -726.176 681.967 -735.436 678.586L-735.95 679.995C-745.575 676.481 -754.908 672.933 -763.943 669.353L-763.39 667.958C-773.16 664.087 -782.579 660.178 -791.64 656.233L-792.239 657.608C-801.859 653.42 -811.079 649.191 -819.888 644.923L-819.234 643.573C-828.658 639.006 -837.609 634.396 -846.076 629.744L-846.798 631.059C-856.051 625.975 -864.731 620.839 -872.822 615.656L-872.013 614.393C-880.969 608.655 -889.194 602.863 -896.67 597.02L-897.594 598.202C-906.117 591.541 -913.681 584.807 -920.255 578.008L-919.176 576.965C-926.669 569.216 -932.847 561.399 -937.677 553.525L-938.956 554.31C-944.573 545.154 -948.411 535.895 -950.401 526.545L-948.934 526.233C-949.975 521.343 -950.5 516.432 -950.5 511.5C-950.5 506.568 -949.975 501.657 -948.934 496.768L-950.401 496.456C-948.411 487.106 -944.573 477.846 -938.956 468.691L-937.678 469.475C-932.847 461.602 -926.67 453.785 -919.177 446.035L-920.255 444.992C-913.681 438.193 -906.118 431.46 -897.594 424.799L-896.671 425.98C-889.195 420.137 -880.969 414.345 -872.013 408.607L-872.822 407.344C-864.731 402.161 -856.052 397.026 -846.799 391.942L-846.076 393.256C-837.61 388.605 -828.659 383.994 -819.234 379.428L-819.888 378.078C-811.079 373.809 -801.86 369.58 -792.239 365.392L-791.641 366.767C-782.579 362.822 -773.16 358.914 -763.391 355.042L-763.944 353.648C-754.908 350.067 -745.575 346.519 -735.951 343.005L-735.436 344.414C-726.177 341.033 -716.646 337.683 -706.849 334.364L-707.33 332.944C-697.885 329.745 -688.194 326.575 -678.261 323.437L-677.81 324.867C-668.469 321.916 -658.914 318.991 -649.149 316.095L-649.575 314.657C-639.98 311.81 -630.182 308.991 -620.186 306.2L-619.783 307.645C-610.286 304.993 -600.609 302.365 -590.756 299.764L-591.139 298.314C-581.479 295.764 -571.651 293.238 -561.657 290.738L-561.293 292.193C-551.66 289.783 -541.873 287.397 -531.934 285.035L-532.281 283.575C-522.56 281.265 -512.695 278.977 -502.688 276.713L-502.357 278.176C-492.644 275.979 -482.798 273.804 -472.82 271.652L-473.136 270.186C-463.347 268.074 -453.431 265.984 -443.392 263.917L-443.089 265.386C-433.336 263.377 -423.465 261.39 -413.478 259.423L-413.768 257.952C-403.901 256.009 -393.921 254.087 -383.831 252.186L-383.554 253.66C-373.785 251.82 -363.912 249.999 -353.938 248.199L-354.205 246.723C-344.25 244.927 -334.194 243.15 -324.039 241.394L-323.784 242.872C-314.017 241.184 -304.158 239.514 -294.209 237.864L-294.454 236.384C-284.501 234.733 -274.458 233.102 -264.326 231.49L-264.091 232.971C-254.241 231.404 -244.307 229.855 -234.291 228.326L-234.517 226.843C-224.598 225.328 -214.597 223.832 -204.518 222.354L-204.3 223.838C-194.338 222.378 -184.299 220.935 -174.183 219.512L-174.392 218.027C-164.51 216.636 -154.555 215.263 -144.529 213.908L-144.328 215.394C-134.305 214.04 -124.21 212.703 -114.044 211.385L-114.237 209.897C-104.342 208.614 -94.38 207.347 -84.3529 206.099L-84.1675 207.587C-74.197 206.345 -64.1619 205.121 -54.0633 203.914L-54.2413 202.425C-44.218 201.227 -34.1324 200.046 -23.9854 198.883L-23.8146 200.373C-13.8953 199.236 -3.91736 198.115 6.1181 197.012L5.95416 195.521C15.9919 194.417 26.0872 193.33 36.2389 192.26L36.3961 193.752C46.3768 192.7 56.4122 191.665 66.5012 190.646L66.3505 189.154C76.3291 188.146 86.3601 187.155 96.4425 186.181L96.5868 187.674C106.667 186.699 116.799 185.742 126.981 184.801L126.843 183.307C136.801 182.387 146.806 181.482 156.859 180.594L156.991 182.088C167.008 181.203 177.072 180.335 187.182 179.482L187.056 177.987C197.151 177.136 207.293 176.3 217.48 175.481L217.6 176.977C227.559 176.176 237.562 175.391 247.606 174.622L247.492 173.126C257.538 172.357 267.627 171.603 277.757 170.865L277.866 172.361C287.95 171.627 298.076 170.909 308.242 170.206L308.138 168.71C318.126 168.019 328.152 167.345 338.216 166.685L338.314 168.182C348.377 167.523 358.477 166.879 368.615 166.252L368.522 164.754C378.608 164.13 388.731 163.521 398.89 162.927L398.977 164.425C408.981 163.841 419.02 163.271 429.093 162.718L429.011 161.22C439.086 160.666 449.195 160.128 459.337 159.605L459.414 161.103C469.505 160.583 479.629 160.078 489.785 159.588L489.713 158.09C499.731 157.607 509.78 157.14 519.86 156.687L519.927 158.186C530.005 157.733 540.114 157.296 550.253 156.874L550.191 155.376C560.295 154.955 570.429 154.55 580.592 154.161L580.65 155.66C590.673 155.275 600.725 154.906 610.804 154.551L610.752 153.052C620.833 152.698 630.941 152.359 641.077 152.035L641.125 153.534C651.243 153.21 661.387 152.902 671.558 152.609L671.515 151.11C681.544 150.821 691.598 150.546 701.678 150.287L701.716 151.787C711.794 151.528 721.897 151.284 732.024 151.055L731.99 149.555C742.118 149.326 752.271 149.112 762.447 148.913L762.477 150.413C772.513 150.217 782.573 150.036 792.655 149.87L792.63 148.37C802.706 148.204 812.804 148.052 822.924 147.916L822.944 149.416C833.062 149.28 843.202 149.159 853.363 149.052L853.348 147.553C863.412 147.448 873.497 147.357 883.602 147.282L883.613 148.782C893.682 148.707 903.772 148.647 913.881 148.602L913.874 147.102C923.984 147.057 934.114 147.026 944.263 147.011L944.265 148.511C949.339 148.504 954.417 148.5 959.5 148.5C964.583 148.5 969.661 148.504 974.734 148.511L974.736 147.011C984.885 147.026 995.015 147.057 1005.13 147.102L1005.12 148.602C1015.23 148.647 1025.32 148.707 1035.39 148.782L1035.4 147.282C1045.5 147.357 1055.59 147.448 1065.65 147.553L1065.64 149.052C1075.8 149.159 1085.94 149.28 1096.06 149.416L1096.08 147.916C1106.2 148.052 1116.29 148.204 1126.37 148.37L1126.34 149.869C1136.43 150.036 1146.49 150.217 1156.52 150.413L1156.55 148.913C1166.73 149.112 1176.88 149.326 1187.01 149.555L1186.98 151.055C1197.1 151.284 1207.21 151.528 1217.28 151.787L1217.32 150.287C1227.4 150.546 1237.46 150.821 1247.48 151.11L1247.44 152.609C1257.61 152.902 1267.76 153.21 1277.87 153.534L1277.92 152.035C1288.06 152.359 1298.17 152.698 1308.25 153.052L1308.2 154.551C1318.27 154.906 1328.33 155.275 1338.35 155.659L1338.41 154.161C1348.57 154.55 1358.7 154.955 1368.81 155.376L1368.75 156.874C1378.89 157.296 1388.99 157.733 1399.07 158.186L1399.14 156.687C1409.22 157.14 1419.27 157.607 1429.29 158.09L1429.21 159.588C1439.37 160.078 1449.49 160.583 1459.58 161.103L1459.66 159.605C1469.8 160.128 1479.91 160.666 1489.99 161.22L1489.91 162.718C1499.98 163.271 1510.02 163.841 1520.02 164.425L1520.11 162.927C1530.27 163.521 1540.39 164.13 1550.48 164.754L1550.38 166.252C1560.52 166.879 1570.62 167.523 1580.69 168.182L1580.78 166.685C1590.85 167.345 1600.87 168.019 1610.86 168.71L1610.76 170.206C1620.92 170.909 1631.05 171.627 1641.13 172.361L1641.24 170.865C1651.37 171.603 1661.46 172.357 1671.51 173.126L1671.39 174.622C1681.44 175.391 1691.44 176.176 1701.4 176.977L1701.52 175.481C1711.71 176.3 1721.85 177.136 1731.94 177.987L1731.82 179.482C1741.93 180.334 1751.99 181.203 1762.01 182.088L1762.14 180.594C1772.19 181.482 1782.2 182.387 1792.16 183.307L1792.02 184.801C1802.2 185.742 1812.33 186.699 1822.41 187.674L1822.56 186.181C1832.64 187.155 1842.67 188.146 1852.65 189.154L1852.5 190.646C1862.59 191.665 1872.62 192.7 1882.6 193.752L1882.76 192.26C1892.91 193.33 1903.01 194.417 1913.05 195.521L1912.88 197.012C1922.92 198.115 1932.89 199.236 1942.81 200.373L1942.98 198.883C1953.13 200.046 1963.22 201.227 1973.24 202.425L1973.06 203.914C1983.16 205.121 1993.2 206.345 2003.17 207.587L2003.35 206.099C2013.38 207.347 2023.34 208.614 2033.24 209.897L2033.04 211.385C2043.21 212.703 2053.3 214.04 2063.33 215.394L2063.53 213.908C2073.55 215.263 2083.51 216.636 2093.39 218.026L2093.18 219.512C2103.3 220.935 2113.34 222.377 2123.3 223.838L2123.52 222.354C2133.6 223.831 2143.6 225.328 2153.52 226.843L2153.29 228.326C2163.31 229.855 2173.24 231.404 2183.09 232.971L2183.33 231.49C2193.46 233.102 2203.5 234.733 2213.45 236.384L2213.21 237.864C2223.16 239.514 2233.02 241.184 2242.78 242.872L2243.04 241.394C2253.19 243.15 2263.25 244.926 2273.2 246.723L2272.94 248.199C2282.91 249.999 2292.78 251.82 2302.55 253.66L2302.83 252.186C2312.92 254.087 2322.9 256.009 2332.77 257.951L2332.48 259.423C2342.46 261.389 2352.33 263.377 2362.09 265.386L2362.39 263.917C2372.43 265.984 2382.35 268.074 2392.14 270.186L2391.82 271.652C2401.8 273.804 2411.64 275.979 2421.36 278.176L2421.69 276.713C2431.69 278.977 2441.56 281.265 2451.28 283.575L2450.93 285.034C2460.87 287.397 2470.66 289.783 2480.29 292.193L2480.66 290.738C2490.65 293.238 2500.48 295.763 2510.14 298.314L2509.76 299.764C2519.61 302.365 2529.29 304.992 2538.78 307.645L2539.19 306.2C2549.18 308.991 2558.98 311.81 2568.57 314.656L2568.15 316.095C2577.91 318.991 2587.47 321.915 2596.81 324.867L2597.26 323.437C2607.19 326.575 2616.88 329.744 2626.33 332.944L2625.85 334.364C2635.65 337.682 2645.18 341.033 2654.44 344.414L2654.95 343.005C2664.57 346.519 2673.91 350.067 2682.94 353.647L2682.39 355.042C2692.16 358.913 2701.58 362.822 2710.64 366.767L2711.24 365.392C2720.86 369.58 2730.08 373.809 2738.89 378.077L2738.23 379.427C2747.66 383.994 2756.61 388.604 2765.08 393.256L2765.8 391.941C2775.05 397.025 2783.73 402.161 2791.82 407.344L2791.01 408.607C2799.97 414.345 2808.19 420.137 2815.67 425.98L2816.59 424.798C2825.12 431.46 2832.68 438.193 2839.25 444.992L2838.18 446.035C2845.67 453.784 2851.85 461.601 2856.68 469.475L2857.96 468.69Z" stroke="white" stroke-width="3" stroke-dasharray="30 30"/>
<path d="M1552.3 477.876C1562.32 484.261 1569.56 490.873 1573.76 497.663L1572.48 498.451C1575.16 502.793 1576.5 507.141 1576.5 511.5C1576.5 515.859 1575.16 520.207 1572.48 524.549L1573.76 525.337C1569.56 532.127 1562.32 538.739 1552.3 545.124L1551.5 543.859C1544.31 548.438 1535.66 552.914 1525.62 557.263L1526.21 558.64C1517.95 562.221 1508.77 565.71 1498.73 569.094L1498.25 567.672C1489.52 570.616 1480.13 573.483 1470.13 576.264L1470.53 577.709C1461.54 580.211 1452.04 582.642 1442.08 584.999L1441.74 583.54C1432.56 585.712 1422.98 587.821 1413.03 589.863L1413.33 591.332C1404.03 593.238 1394.41 595.086 1384.47 596.872L1384.21 595.395C1374.8 597.086 1365.11 598.721 1355.16 600.298L1355.39 601.78C1345.93 603.279 1336.23 604.725 1326.3 606.117L1326.09 604.631C1316.6 605.962 1306.89 607.243 1296.99 608.471L1297.17 609.96C1287.61 611.145 1277.87 612.282 1267.96 613.368L1267.79 611.876C1258.2 612.927 1248.45 613.93 1238.54 614.884L1238.68 616.377C1229.06 617.304 1219.28 618.184 1209.37 619.017L1209.25 617.522C1199.6 618.332 1189.82 619.097 1179.92 619.815L1180.03 621.311C1170.36 622.013 1160.57 622.669 1150.67 623.28L1150.58 621.783C1140.89 622.38 1131.1 622.933 1121.22 623.441L1121.29 624.939C1111.59 625.437 1101.79 625.892 1091.9 626.301L1091.84 624.803C1082.13 625.205 1072.33 625.564 1062.46 625.879L1062.5 627.378C1052.78 627.688 1042.97 627.954 1033.1 628.177L1033.06 626.677C1023.33 626.896 1013.53 627.073 1003.66 627.205L1003.68 628.705C993.933 628.836 984.125 628.923 974.259 628.967L974.252 627.467C969.349 627.489 964.431 627.5 959.5 627.5C954.569 627.5 949.651 627.489 944.748 627.467L944.741 628.967C934.875 628.923 925.067 628.836 915.32 628.705L915.34 627.205C905.474 627.073 895.672 626.896 885.939 626.677L885.905 628.177C876.029 627.954 866.224 627.688 856.496 627.378L856.544 625.879C846.668 625.564 836.87 625.205 827.159 624.803L827.097 626.301C817.21 625.892 807.411 625.437 797.707 624.939L797.784 623.441C787.896 622.933 778.107 622.38 768.422 621.783L768.33 623.28C758.431 622.669 748.641 622.013 738.969 621.311L739.077 619.815C729.178 619.097 719.401 618.332 709.753 617.522L709.628 619.017C699.717 618.184 689.944 617.304 680.315 616.377L680.459 614.884C670.551 613.93 660.797 612.927 651.206 611.876L651.043 613.368C641.128 612.282 631.386 611.145 621.828 609.96L622.013 608.471C612.11 607.243 602.405 605.962 592.908 604.631L592.699 606.117C582.771 604.725 573.07 603.279 563.607 601.78L563.842 600.298C553.889 598.721 544.201 597.086 534.794 595.395L534.529 596.872C524.593 595.086 514.969 593.238 505.673 591.332L505.974 589.863C496.017 587.821 486.439 585.712 477.261 583.54L476.916 584.999C466.956 582.642 457.465 580.211 448.469 577.709L448.871 576.264C438.865 573.483 429.479 570.616 420.749 567.672L420.27 569.094C410.233 565.71 401.053 562.221 392.786 558.64L393.383 557.263C383.343 552.914 374.686 548.438 367.502 543.859L366.696 545.124C356.676 538.739 349.436 532.127 345.244 525.337L346.52 524.549C343.838 520.207 342.5 515.859 342.5 511.5C342.5 507.141 343.838 502.793 346.52 498.451L345.244 497.663C349.436 490.873 356.676 484.261 366.696 477.876L367.502 479.141C374.686 474.562 383.343 470.086 393.383 465.737L392.786 464.36C401.053 460.779 410.233 457.29 420.27 453.906L420.749 455.328C429.479 452.384 438.865 449.517 448.871 446.736L448.469 445.291C457.465 442.789 466.956 440.358 476.916 438.001L477.261 439.46C486.439 437.288 496.017 435.179 505.974 433.137L505.673 431.668C514.968 429.762 524.593 427.914 534.529 426.128L534.794 427.605C544.201 425.914 553.889 424.279 563.842 422.702L563.607 421.22C573.07 419.721 582.771 418.275 592.699 416.883L592.908 418.369C602.405 417.038 612.11 415.757 622.013 414.529L621.828 413.04C631.386 411.855 641.128 410.718 651.043 409.632L651.206 411.124C660.797 410.073 670.551 409.07 680.459 408.116L680.315 406.623C689.944 405.696 699.717 404.816 709.628 403.983L709.753 405.478C719.401 404.668 729.178 403.903 739.077 403.185L738.969 401.689C748.641 400.987 758.431 400.331 768.33 399.72L768.422 401.217C778.107 400.62 787.896 400.067 797.784 399.559L797.707 398.061C807.411 397.563 817.21 397.108 827.097 396.699L827.159 398.197C836.87 397.795 846.668 397.436 856.544 397.121L856.496 395.622C866.224 395.312 876.029 395.046 885.905 394.823L885.939 396.323C895.672 396.104 905.474 395.927 915.34 395.795L915.32 394.295C925.067 394.164 934.875 394.077 944.741 394.033L944.748 395.533C949.651 395.511 954.569 395.5 959.5 395.5C964.431 395.5 969.349 395.511 974.252 395.533L974.259 394.033C984.125 394.077 993.933 394.164 1003.68 394.295L1003.66 395.795C1013.53 395.927 1023.33 396.104 1033.06 396.323L1033.1 394.823C1042.97 395.046 1052.78 395.312 1062.5 395.622L1062.46 397.121C1072.33 397.436 1082.13 397.795 1091.84 398.197L1091.9 396.699C1101.79 397.108 1111.59 397.563 1121.29 398.061L1121.22 399.559C1131.1 400.067 1140.89 400.62 1150.58 401.217L1150.67 399.72C1160.57 400.331 1170.36 400.987 1180.03 401.689L1179.92 403.185C1189.82 403.903 1199.6 404.668 1209.25 405.478L1209.37 403.983C1219.28 404.816 1229.06 405.696 1238.68 406.623L1238.54 408.116C1248.45 409.07 1258.2 410.073 1267.79 411.124L1267.96 409.632C1277.87 410.718 1287.61 411.855 1297.17 413.04L1296.99 414.529C1306.89 415.757 1316.6 417.038 1326.09 418.369L1326.3 416.883C1336.23 418.275 1345.93 419.721 1355.39 421.22L1355.16 422.702C1365.11 424.279 1374.8 425.914 1384.21 427.605L1384.47 426.128C1394.41 427.914 1404.03 429.762 1413.33 431.668L1413.03 433.137C1422.98 435.179 1432.56 437.288 1441.74 439.46L1442.08 438.001C1452.04 440.358 1461.54 442.789 1470.53 445.291L1470.13 446.736C1480.13 449.517 1489.52 452.384 1498.25 455.328L1498.73 453.906C1508.77 457.29 1517.95 460.779 1526.21 464.36L1525.62 465.737C1535.66 470.086 1544.31 474.562 1551.5 479.141L1552.3 477.876Z" stroke="white" stroke-width="3" stroke-dasharray="30 30"/>
<ellipse cx="959.5" cy="511.5" rx="258.5" ry="73.5" stroke="white" stroke-width="3" stroke-dasharray="30 30"/>
<circle cx="960.5" cy="511.5" r="21.5" fill="#FFC75A"/>
<circle cx="1217.5" cy="511.5" r="25.5" fill="#5AEB7A"/>
<circle cx="1757.5" cy="604.5" r="43.5" fill="#5162F8"/>
<circle cx="1328" cy="147" r="31" fill="#66D0D7"/>
<path d="M992.499 511.5C992.499 526.599 988.802 540.197 982.903 549.969C976.987 559.771 969.02 565.5 960.499 565.5C951.978 565.5 944.011 559.771 938.095 549.969C932.196 540.197 928.499 526.599 928.499 511.5C928.499 496.401 932.196 482.803 938.095 473.031C944.011 463.229 951.978 457.5 960.499 457.5C969.02 457.5 976.987 463.229 982.903 473.031C988.802 482.803 992.499 496.401 992.499 511.5Z" stroke="white" stroke-width="3"/>
<path d="M977.439 538.213C964.763 546.529 951.323 550.933 939.889 551.393C928.42 551.854 919.253 548.36 914.592 541.255C909.931 534.15 910.376 524.35 915.367 514.014C920.342 503.708 929.733 493.134 942.409 484.817C955.085 476.501 968.525 472.097 979.959 471.637C991.428 471.176 1000.6 474.67 1005.26 481.775C1009.92 488.88 1009.47 498.68 1004.48 509.016C999.507 519.322 990.116 529.896 977.439 538.213Z" stroke="white" stroke-width="3"/>
<path d="M945.074 539.894C931.698 532.758 921.389 523.075 915.503 513.262C909.599 503.418 908.27 493.699 912.27 486.201C916.27 478.704 925.083 474.396 936.547 473.819C947.976 473.244 961.759 476.415 975.135 483.551C988.511 490.688 998.819 500.37 1004.71 510.184C1010.61 520.027 1011.94 529.747 1007.94 537.244C1003.94 544.741 995.125 549.049 983.662 549.626C972.233 550.202 958.45 547.031 945.074 539.894Z" stroke="white" stroke-width="3"/>
<path d="M1249.5 511.5C1249.5 526.599 1245.8 540.197 1239.9 549.969C1233.99 559.771 1226.02 565.5 1217.5 565.5C1208.98 565.5 1201.01 559.771 1195.1 549.969C1189.2 540.197 1185.5 526.599 1185.5 511.5C1185.5 496.401 1189.2 482.803 1195.1 473.031C1201.01 463.229 1208.98 457.5 1217.5 457.5C1226.02 457.5 1233.99 463.229 1239.9 473.031C1245.8 482.803 1249.5 496.401 1249.5 511.5Z" stroke="white" stroke-width="3"/>
<path d="M1234.44 538.213C1221.76 546.529 1208.32 550.933 1196.89 551.393C1185.42 551.854 1176.25 548.36 1171.59 541.255C1166.93 534.15 1167.38 524.35 1172.37 514.014C1177.34 503.708 1186.73 493.134 1199.41 484.817C1212.09 476.501 1225.53 472.097 1236.96 471.637C1248.43 471.176 1257.6 474.67 1262.26 481.775C1266.92 488.88 1266.47 498.68 1261.48 509.016C1256.51 519.322 1247.12 529.896 1234.44 538.213Z" stroke="white" stroke-width="3"/>
<path d="M1202.07 539.894C1188.7 532.758 1178.39 523.075 1172.5 513.262C1166.6 503.418 1165.27 493.699 1169.27 486.201C1173.27 478.704 1182.08 474.396 1193.55 473.819C1204.98 473.244 1218.76 476.415 1232.13 483.551C1245.51 490.688 1255.82 500.37 1261.71 510.184C1267.61 520.027 1268.94 529.747 1264.94 537.244C1260.94 544.741 1252.13 549.049 1240.66 549.626C1229.23 550.202 1215.45 547.031 1202.07 539.894Z" stroke="white" stroke-width="3"/>
<path d="M1813.14 604.49C1813.14 629.796 1806.95 652.634 1797.01 669.096C1787.06 685.586 1773.51 695.452 1758.83 695.452C1744.15 695.452 1730.61 685.586 1720.65 669.096C1710.72 652.634 1704.52 629.796 1704.52 604.49C1704.52 579.184 1710.72 556.346 1720.65 539.885C1730.61 523.395 1744.15 513.528 1758.83 513.528C1773.51 513.528 1787.06 523.395 1797.01 539.885C1806.95 556.346 1813.14 579.184 1813.14 604.49Z" stroke="white" stroke-width="3"/>
<path d="M1787.6 649.828C1766.36 663.765 1743.8 671.174 1724.54 671.949C1705.24 672.725 1689.55 666.856 1681.52 654.61C1673.48 642.364 1674.35 625.632 1682.74 608.243C1691.12 590.886 1706.9 573.139 1728.15 559.202C1749.39 545.265 1771.95 537.856 1791.21 537.082C1810.51 536.306 1826.2 542.175 1834.23 554.42C1842.27 566.666 1841.4 583.398 1833.01 600.787C1824.63 618.144 1808.85 635.891 1787.6 649.828Z" stroke="white" stroke-width="3"/>
<path d="M1732.67 652.676C1710.25 640.716 1692.93 624.468 1683.01 607.939C1673.08 591.38 1670.71 574.794 1677.6 561.873C1684.5 548.951 1699.59 541.688 1718.88 540.717C1738.13 539.748 1761.27 545.087 1783.69 557.047C1806.1 569.006 1823.42 585.254 1833.34 601.783C1843.27 618.342 1845.64 634.928 1838.75 647.849C1831.85 660.771 1816.76 668.034 1797.47 669.005C1778.22 669.975 1755.08 664.636 1732.67 652.676Z" stroke="white" stroke-width="3"/>
<path d="M1371.23 147.465C1371.23 167.271 1366.38 185.129 1358.62 197.987C1350.84 210.872 1340.3 218.509 1328.94 218.509C1317.58 218.509 1307.04 210.872 1299.26 197.987C1291.5 185.129 1286.65 167.271 1286.65 147.465C1286.65 127.66 1291.5 109.801 1299.26 96.9442C1307.04 84.0586 1317.58 76.4214 1328.94 76.4214C1340.3 76.4214 1350.84 84.0586 1358.62 96.9442C1366.38 109.801 1371.23 127.66 1371.23 147.465Z" stroke="white" stroke-width="3"/>
<path d="M1351.34 182.767C1334.71 193.675 1317.06 199.464 1302.02 200.069C1286.94 200.676 1274.77 196.087 1268.55 186.611C1262.33 177.136 1262.97 164.139 1269.53 150.551C1276.08 136.993 1288.42 123.111 1305.04 112.203C1321.67 101.295 1339.32 95.5057 1354.36 94.9007C1369.44 94.2943 1381.61 98.8832 1387.83 108.359C1394.04 117.834 1393.41 130.831 1386.85 144.419C1380.3 157.977 1367.96 171.858 1351.34 182.767Z" stroke="white" stroke-width="3"/>
<path d="M1308.56 184.986C1291.02 175.625 1277.48 162.915 1269.73 150.005C1261.97 137.065 1260.16 124.179 1265.49 114.181C1270.83 104.182 1282.54 98.5114 1297.61 97.7526C1312.65 96.9955 1330.74 101.166 1348.29 110.527C1365.83 119.888 1379.37 132.598 1387.12 145.508C1394.88 158.448 1396.69 171.333 1391.36 181.332C1386.02 191.331 1374.31 197.001 1359.24 197.76C1344.2 198.517 1326.11 194.346 1308.56 184.986Z" stroke="white" stroke-width="3"/>
<path d="M467.292 452.468C467.292 469.393 463.148 484.643 456.527 495.612C449.889 506.61 440.925 513.079 431.302 513.079C421.679 513.079 412.715 506.61 406.076 495.612C399.455 484.643 395.312 469.393 395.312 452.468C395.312 435.543 399.455 420.293 406.076 409.324C412.715 398.327 421.679 391.857 431.302 391.857C440.925 391.857 449.889 398.327 456.527 409.324C463.148 420.293 467.292 435.543 467.292 452.468Z" stroke="white" stroke-width="3"/>
<path d="M450.358 482.512C436.149 491.834 421.078 496.775 408.244 497.291C395.376 497.809 385.042 493.89 379.777 485.866C374.513 477.841 375.034 466.801 380.633 455.203C386.217 443.637 396.751 431.779 410.959 422.458C425.168 413.136 440.239 408.195 453.073 407.679C465.941 407.161 476.275 411.08 481.54 419.104C486.804 427.129 486.284 438.168 480.685 449.766C475.101 461.333 464.567 473.19 450.358 482.512Z" stroke="white" stroke-width="3"/>
<path d="M413.956 484.402C398.963 476.403 387.4 465.546 380.794 454.531C374.169 443.487 372.653 432.539 377.17 424.072C381.688 415.604 391.626 410.768 404.488 410.12C417.316 409.475 432.772 413.033 447.765 421.033C462.758 429.032 474.321 439.888 480.927 450.903C487.552 461.948 489.068 472.895 484.551 481.363C480.033 489.83 470.095 494.666 457.233 495.314C444.405 495.96 428.949 492.401 413.956 484.402Z" stroke="white" stroke-width="3"/>
<circle cx="431" cy="453" r="29" fill="#FF8686"/>
</svg>
