<svg width="902" height="3452" viewBox="0 0 902 3452" fill="none" xmlns="http://www.w3.org/2000/svg">
<path d="M2783.68 2839.87C2710.33 2817.21 2281.85 2810.1 2185.79 2702.49C2078.19 2581.95 2076.77 2496.64 1998.01 2392.28C1841.17 2184.45 1717.6 2316.96 1380.96 2179.94C1241.78 2123.31 1000.32 2025.06 906.915 1785.94C840.047 1614.75 909.932 1527 845.346 1396.57C742.072 1188.04 519.268 1323.42 274.04 1079.62C143.403 949.738 56.4427 762.004 2.21777 618.469" stroke="#F6931D" stroke-width="2" stroke-miterlimit="10"/>
<path d="M2777.77 2822.09C2744.94 2812.84 2644.87 2806.6 2535.19 2796.07C2393.9 2783.38 2238.85 2761.17 2184.87 2704.29C2132.15 2648.74 2104.88 2599.27 2080.79 2552.05C2056.31 2504.08 2035.85 2457.53 1996 2406.35C1906.15 2290.96 1826.68 2283.13 1714.66 2266.62C1628.42 2253.92 1529.26 2237.15 1386.03 2175.38C1247.57 2115.65 1005.75 2043.4 905.735 1793.36C839.391 1627.46 903.839 1539.77 838.418 1409.38C813.464 1359.51 781.954 1328.47 745.31 1307.26C687.17 1273.62 615.838 1265.68 535.846 1235.64C462.549 1208.15 382.317 1172.78 298.757 1092.41C293.303 1087.17 287.86 1081.6 282.362 1075.96C155.501 945.87 69.0831 760.407 11.1309 615.275" stroke="#F6931D" stroke-width="2" stroke-miterlimit="10"/>
<path d="M2771.87 2804.33C2738.35 2795.77 2638.46 2789.53 2529.94 2782.88C2389.06 2774.23 2238.04 2759.48 2183.95 2706.11C2131.85 2654.67 2104.49 2606.79 2079.75 2561.32C2054.77 2515.39 2033.87 2470.09 1993.99 2420.45C1903.56 2307.95 1822.92 2300.15 1712.08 2277.56C1625.14 2259.83 1532.42 2235.3 1391.07 2170.83C1253.33 2108.01 1011.23 2061.86 904.482 1800.78C838.821 1640.18 897.699 1552.6 831.44 1422.21C806.394 1372.67 775.143 1340.85 739.195 1318.85C682.519 1284.19 613.485 1275.67 536.09 1239.14C465.043 1205.61 387.731 1169.75 306.716 1089.06C301.386 1083.76 296.095 1078.01 290.706 1072.31C167.607 942.068 81.7098 758.769 20.0405 612.072" stroke="#F6931D" stroke-width="2" stroke-miterlimit="10"/>
<path d="M2765.97 2786.56C2731.76 2778.68 2632.11 2772.84 2524.69 2769.68C2384.3 2765.54 2237.32 2757.85 2183.02 2707.9C2131.57 2660.58 2104.12 2614.3 2078.74 2570.59C2053.36 2526.87 2031.91 2482.67 1991.94 2434.56C1900.9 2324.94 1819.02 2317.02 1709.47 2288.51C1621.72 2265.67 1535.54 2233.43 1396.08 2166.31C1259.02 2100.3 1016.73 2080.43 903.22 1808.22C838.419 1652.81 891.391 1565.61 824.44 1435.06C799.249 1385.86 768.356 1353.27 733.119 1330.41C677.912 1294.7 611.015 1285.58 536.35 1242.63C467.351 1202.96 393.13 1166.7 314.658 1085.72C309.449 1080.34 304.298 1074.41 299.029 1068.64C179.73 938.342 94.3567 757.216 28.9546 608.865" stroke="#F6931D" stroke-width="2" stroke-miterlimit="10"/>
<path d="M2760.06 2768.78C2725.17 2761.6 2625.75 2756.18 2519.44 2756.49C2379.54 2756.89 2236.72 2756.3 2182.1 2709.71C2131.41 2666.48 2103.78 2621.86 2077.71 2579.81C2051.78 2538 2029.93 2495.19 1989.94 2448.62C1898.27 2341.87 1815.07 2333.6 1706.9 2299.39C1618.25 2271.34 1538.7 2231.46 1401.14 2161.71C1264.79 2092.58 1022.35 2099.02 902.007 1815.58C838.221 1665.34 885.249 1578.43 817.487 1447.85C792.16 1399.03 761.56 1365.64 726.97 1341.98C673.232 1305.22 608.31 1295.31 536.517 1246.07C469.48 1200.17 398.511 1163.59 322.611 1082.38C317.506 1076.95 312.549 1070.84 307.361 1064.98C191.868 934.694 106.998 755.619 37.8682 605.672" stroke="#F6931D" stroke-width="2" stroke-miterlimit="10"/>
<path d="M2754.16 2751.01C2718.58 2744.51 2619.41 2739.54 2514.19 2743.29C2374.77 2748.27 2236.17 2754.7 2181.17 2711.51C2131.28 2672.32 2103.45 2629.41 2076.69 2589.06C2050.33 2549.34 2027.96 2507.75 1987.92 2462.69C1895.61 2358.82 1811.01 2350.03 1704.32 2310.3C1614.67 2276.92 1541.83 2229.5 1406.19 2157.14C1270.55 2084.78 1028 2117.67 900.772 1822.98C838.111 1677.83 879.09 1591.28 810.544 1460.65C785.105 1412.17 754.81 1378.02 720.897 1353.56C668.673 1315.9 605.526 1304.82 536.794 1249.63C471.425 1197.15 403.896 1160.46 330.577 1079.03C325.616 1073.53 320.796 1067.25 315.708 1061.32C204.006 931.126 119.638 754.022 46.7544 602.476" stroke="#F6931D" stroke-width="2" stroke-miterlimit="10"/>
<path d="M2748.25 2733.23C2711.98 2727.43 2613.07 2722.92 2508.94 2730.1C2370 2739.68 2235.73 2753.14 2180.26 2713.33C2131.24 2678.14 2103.16 2636.99 2075.66 2598.3C2048.92 2560.71 2025.97 2520.31 1985.9 2476.78C1892.94 2375.79 1806.85 2366.19 1701.72 2321.22C1610.98 2282.4 1544.92 2227.43 1411.21 2152.59C1276.19 2077.01 1033.67 2136.39 899.522 1830.39C838.144 1690.27 872.936 1604.13 803.581 1473.47C778.035 1425.32 748.062 1390.45 714.802 1365.14C664.082 1326.53 602.592 1314 537.033 1253.13C473.21 1193.87 409.284 1157.31 338.524 1075.7C333.674 1070.1 329.019 1063.67 324.03 1057.66C216.153 927.648 132.279 752.426 55.6938 599.262" stroke="#F6931D" stroke-width="2" stroke-miterlimit="10"/>
<path d="M2742.35 2715.47C2705.39 2710.32 2606.72 2706.34 2503.69 2716.91C2365.22 2731.11 2235.39 2751.59 2179.33 2715.14C2131.29 2683.86 2102.89 2644.56 2074.63 2607.55C2047.5 2572.01 2023.98 2532.88 1983.89 2490.87C1890.26 2392.77 1802.62 2382.13 1699.17 2332.17C1607.26 2287.76 1548.06 2225.4 1416.29 2148.06C1281.91 2069.18 1039.48 2155.13 898.312 1837.78C838.231 1702.66 866.798 1617.04 796.621 1486.28C770.96 1438.47 741.322 1402.9 708.7 1376.71C659.486 1337.21 599.544 1322.84 537.248 1256.63C474.952 1190.41 414.645 1154 346.458 1072.36C341.728 1066.7 337.229 1060.09 332.345 1054C228.298 924.264 144.918 750.829 64.6021 596.059" stroke="#F6931D" stroke-width="2" stroke-miterlimit="10"/>
<path d="M2736.45 2697.7C2698.81 2693.25 2600.39 2689.77 2498.44 2703.71C2360.46 2722.58 2235.12 2749.99 2178.41 2716.94C2131.35 2689.5 2102.64 2652.15 2073.61 2616.8C2046.12 2583.33 2022 2545.46 1981.87 2504.95C1887.56 2409.76 1798.33 2397.83 1696.57 2343.05C1603.43 2292.9 1551.14 2223.24 1421.32 2143.46C1287.57 2061.25 1045.28 2173.9 897.083 1845.17C838.405 1715.02 860.637 1629.84 789.664 1499.1C763.891 1451.62 734.584 1415.36 702.647 1388.28C654.945 1347.96 596.49 1331.36 537.498 1260.12C476.403 1186.39 419.99 1150.7 354.45 1069C349.835 1063.26 345.504 1056.51 340.716 1050.33C240.463 920.978 157.55 749.224 73.5156 592.865" stroke="#F6931D" stroke-width="2" stroke-miterlimit="10"/>
<path d="M2730.54 2679.92C2692.22 2676.17 2594.03 2673.24 2493.19 2690.52C2355.72 2714.12 2234.92 2748.34 2177.48 2718.73C2131.47 2695.02 2102.39 2659.7 2072.58 2626.03C2044.75 2594.62 2019.99 2558.01 1979.85 2519.02C1884.86 2426.75 1793.98 2413.28 1693.98 2353.95C1599.55 2297.9 1554.22 2221.05 1426.36 2138.88C1293.26 2053.34 1051.13 2192.66 895.843 1852.56C838.651 1727.31 854.482 1642.67 782.669 1511.9C756.786 1464.73 727.842 1427.87 696.492 1399.85C650.338 1358.64 593.361 1339.42 537.7 1263.61C477.904 1182.16 425.316 1147.33 362.342 1065.66C357.844 1059.83 353.68 1052.94 348.987 1046.67C252.607 917.768 170.19 747.627 82.4312 589.659" stroke="#F6931D" stroke-width="2" stroke-miterlimit="10"/>
<path d="M2724.64 2662.15C2685.63 2659.08 2587.7 2656.73 2487.93 2677.33C2350.92 2705.62 2234.77 2746.61 2176.55 2720.56C2131.63 2700.45 2102.2 2667.28 2071.56 2635.31C2043.41 2605.95 2017.98 2570.61 1977.82 2533.12C1882.15 2443.79 1789.6 2428.55 1691.41 2364.87C1595.64 2302.79 1557.32 2218.87 1431.41 2134.34C1298.93 2045.4 1057.07 2211.48 894.617 1859.98C838.981 1739.6 848.353 1655.53 775.742 1524.73C749.773 1477.96 721.141 1440.34 690.433 1411.44C645.811 1369.43 590.356 1347.27 537.975 1267.14C479.493 1177.66 430.73 1143.91 370.32 1062.33C365.941 1056.41 361.943 1049.38 357.351 1043.02C264.737 914.656 182.847 746.082 91.3403 586.455" stroke="#F6931D" stroke-width="2" stroke-miterlimit="10"/>
<path d="M2718.73 2644.37C2679.03 2641.99 2581.36 2640.25 2482.69 2664.13C2346.19 2697.18 2234.7 2744.76 2175.64 2722.36C2131.84 2705.72 2102.01 2674.78 2070.54 2644.57C2042.09 2617.23 2015.99 2583.23 1975.81 2547.22C1879.43 2460.83 1785.2 2443.59 1688.82 2375.81C1591.68 2307.49 1560.39 2216.62 1436.44 2129.79C1304.58 2037.41 1063.04 2230.28 893.382 1867.4C839.348 1751.84 842.208 1668.39 768.774 1537.56C742.686 1491.08 714.42 1452.88 684.329 1423.03C641.249 1380.28 587.406 1354.9 538.176 1270.57C481.115 1172.88 436.034 1140.39 378.246 1058.96C373.981 1052.94 370.152 1045.79 365.653 1039.32C276.868 911.648 195.47 744.433 100.252 583.262" stroke="#F6931D" stroke-width="2" stroke-miterlimit="10"/>
<path d="M2712.83 2626.61C2672.45 2624.92 2575.03 2623.78 2477.44 2650.94C2341.44 2688.78 2234.62 2742.8 2174.72 2724.16C2132.05 2710.88 2101.85 2682.33 2069.52 2653.81C2040.8 2628.49 2013.99 2595.82 1973.8 2561.29C1876.73 2477.85 1780.79 2458.4 1686.24 2386.7C1587.73 2311.99 1563.47 2214.29 1441.51 2125.25C1310.28 2029.42 1069.11 2249.07 892.171 1874.81C839.805 1764.05 836.103 1681.25 761.836 1550.39C735.644 1504.24 707.732 1465.46 678.259 1434.62C636.738 1391.15 584.591 1362.33 538.451 1274.14C482.92 1167.99 441.427 1136.88 386.219 1055.66C382.068 1049.54 378.406 1042.28 374.001 1035.7C288.983 908.727 208.104 742.839 109.154 580.014" stroke="#F6931D" stroke-width="2" stroke-miterlimit="10"/>
<path d="M2706.93 2608.84C2665.86 2607.82 2568.71 2607.35 2472.19 2637.74C2336.71 2680.43 2234.57 2740.69 2173.8 2725.97C2132.26 2715.9 2101.68 2689.81 2068.49 2663.05C2039.49 2639.68 2011.98 2608.43 1971.79 2575.38C1873.97 2494.94 1776.39 2473.06 1683.66 2397.62C1583.76 2316.35 1566.55 2211.96 1446.54 2120.66C1315.9 2021.27 1075.21 2267.8 890.923 1882.18C840.272 1776.19 829.96 1694.05 754.862 1563.18C728.57 1517.36 701.011 1478.01 672.154 1446.16C632.154 1402.01 581.892 1369.71 538.67 1277.6C484.866 1162.95 446.807 1133.27 394.183 1052.33C390.139 1046.12 386.649 1038.74 382.349 1032.06C301.073 905.908 220.746 741.242 118.079 576.852" stroke="#F6931D" stroke-width="2" stroke-miterlimit="10"/>
<path d="M2701.02 2591.06C2659.3 2590.73 2562.4 2590.94 2466.94 2624.56C2331.98 2672.08 2234.51 2738.41 2172.87 2727.77C2132.47 2720.79 2101.54 2697.26 2067.47 2672.3C2038.2 2650.87 2009.97 2621.05 1969.77 2589.47C1871.23 2512.03 1772 2487.54 1681.08 2408.54C1579.81 2320.55 1569.63 2209.56 1451.59 2116.1C1321.56 2013.14 1081.39 2286.52 889.697 1889.58C840.789 1788.32 823.833 1706.88 747.908 1576C721.509 1530.5 694.31 1490.62 666.06 1457.74C627.618 1412.98 579.33 1377.07 538.902 1281.1C486.992 1157.88 452.199 1129.59 402.129 1048.97C398.207 1042.65 394.9 1035.16 390.665 1028.37C313.109 903.187 233.386 739.645 127.01 573.652" stroke="#F6931D" stroke-width="2" stroke-miterlimit="10"/>
<path d="M2695.13 2573.34C2652.7 2573.71 2556.11 2574.6 2461.7 2611.39C2327.26 2663.81 2234.43 2735.99 2171.96 2729.61C2132.67 2725.6 2101.4 2704.69 2066.46 2681.58C2036.92 2662.05 2007.96 2633.71 1967.76 2603.58C1868.5 2529.13 1767.63 2501.87 1678.5 2419.46C1575.88 2324.58 1572.71 2207.12 1456.64 2111.53C1327.22 2004.96 1087.68 2305.19 888.465 1896.98C841.354 1800.42 817.685 1719.71 740.948 1588.82C714.452 1543.64 687.608 1503.26 659.972 1469.32C623.068 1423.99 576.903 1384.46 539.16 1284.61C489.334 1152.82 457.628 1125.86 410.102 1045.63C406.289 1039.21 403.147 1031.68 399.022 1024.73C325.185 900.534 246.046 738.053 135.927 570.457" stroke="#F6931D" stroke-width="2" stroke-miterlimit="10"/>
<path d="M2689.22 2555.56C2646.11 2556.61 2549.81 2558.23 2456.46 2598.2C2322.56 2655.55 2234.31 2733.34 2171.02 2731.37C2132.82 2730.22 2101.23 2712.01 2065.42 2690.79C2035.61 2673.13 2005.93 2646.31 1965.74 2617.62C1865.74 2546.27 1763.29 2516.07 1675.92 2430.4C1572 2328.47 1575.83 2204.67 1461.69 2107.01C1332.89 1996.76 1094 2323.86 887.244 1904.41C841.96 1812.56 811.605 1732.56 733.995 1601.67C707.401 1556.81 680.884 1515.9 653.875 1480.91C618.504 1435.02 574.551 1391.91 539.401 1288.09C491.821 1147.8 463.102 1122.06 418.052 1042.28C414.364 1035.73 411.351 1028.08 407.359 1021.05C337.131 897.96 258.66 736.453 144.815 567.249" stroke="#F6931D" stroke-width="2" stroke-miterlimit="10"/>
<path d="M2683.31 2537.77C2639.52 2539.54 2543.51 2541.87 2451.2 2585C2317.86 2647.29 2234.13 2730.47 2170.11 2733.21C2132.98 2734.8 2101.09 2719.37 2064.41 2700.08C2034.32 2684.24 2003.92 2658.99 1963.73 2631.74C1862.99 2563.46 1759.01 2530.2 1673.34 2441.31C1568.17 2332.18 1578.89 2202.14 1466.73 2102.44C1338.55 1988.46 1100.43 2342.37 885.977 1911.79C842.541 1824.57 805.457 1745.35 727.003 1614.46C700.304 1569.88 674.142 1528.61 647.752 1492.46C613.908 1446.1 572.331 1399.44 539.582 1291.6C494.463 1142.89 468.512 1118.26 425.977 1038.94C422.415 1032.29 419.565 1024.55 415.663 1017.4C349.102 895.459 271.3 734.857 153.725 564.045" stroke="#F6931D" stroke-width="2" stroke-miterlimit="10"/>
<path d="M2677.4 2519.98C2632.91 2522.4 2537.23 2525.52 2445.94 2571.78C2313.17 2639.07 2233.87 2727.4 2169.18 2735C2133.06 2739.23 2100.91 2726.63 2063.38 2709.31C2033.01 2695.29 2001.9 2671.64 1961.7 2645.8C1860.23 2580.63 1754.75 2544.2 1670.74 2452.21C1564.4 2335.76 1581.97 2199.57 1471.77 2097.85C1344.23 1980.15 1106.97 2360.8 884.774 1919.19C843.208 1836.56 799.377 1758.17 720.068 1627.27C693.285 1583.05 667.451 1541.34 641.686 1504.03C609.351 1457.2 570.234 1407.09 539.849 1295.09C497.246 1138.09 474.002 1114.37 433.94 1035.63C430.493 1028.85 427.776 1021.05 424.001 1013.77C361.021 893.067 283.926 733.299 162.654 560.881" stroke="#F6931D" stroke-width="2" stroke-miterlimit="10"/>
<path d="M2671.49 2502.19C2626.29 2505.31 2530.95 2509.22 2440.69 2558.58C2308.5 2630.87 2233.53 2724.14 2168.25 2736.79C2133.11 2743.6 2100.73 2733.87 2062.35 2718.53C2031.69 2706.29 1999.88 2684.28 1959.68 2659.87C1857.48 2597.82 1750.57 2558.12 1668.16 2463.1C1560.72 2339.21 1585.07 2196.95 1476.81 2093.28C1349.91 1971.78 1113.64 2379.17 883.535 1926.57C843.889 1848.59 793.263 1770.96 713.101 1640.07C686.221 1596.18 660.698 1554.07 635.582 1515.59C604.734 1468.33 568.169 1414.83 540.078 1298.58C500.155 1133.4 479.552 1110.43 441.88 1032.25C438.557 1025.35 436.015 1017.48 432.322 1010.06C372.836 890.653 296.577 731.653 171.55 557.635" stroke="#F6931D" stroke-width="2" stroke-miterlimit="10"/>
<path d="M2665.58 2484.4C2619.72 2488.19 2524.66 2492.87 2435.43 2545.36C2303.85 2622.7 2233.09 2720.64 2167.32 2738.58C2133.12 2747.88 2100.52 2741.02 2061.35 2727.76C2030.4 2717.28 1997.89 2696.93 1957.68 2673.9C1854.74 2615.02 1746.45 2571.96 1665.59 2473.97C1557.12 2342.59 1588.18 2194.34 1481.86 2088.74C1355.61 1963.37 1120.46 2397.39 882.306 1933.98C844.57 1860.54 787.161 1783.77 706.146 1652.9C679.174 1609.33 653.934 1566.84 629.497 1527.18C600.118 1479.5 566.182 1422.73 540.31 1302.08C503.166 1128.85 485.107 1106.52 449.826 1028.89C446.619 1021.82 444.197 1013.94 440.643 1006.38C384.637 888.301 309.204 730.037 180.452 554.41" stroke="#F6931D" stroke-width="2" stroke-miterlimit="10"/>
<path d="M2659.68 2466.61C2613.13 2471.1 2518.42 2476.63 2430.18 2532.15C2299.21 2614.58 2232.56 2717.04 2166.4 2740.37C2133.07 2752.12 2100.31 2748.22 2060.3 2737.01C2029.03 2728.26 1995.85 2709.62 1955.64 2688.02C1851.97 2632.31 1742.37 2585.86 1662.99 2484.92C1553.6 2345.81 1591.31 2191.63 1486.91 2084.13C1361.35 1954.92 1127.43 2415.44 881.08 1941.39C845.306 1872.55 781.058 1796.57 699.183 1665.71C672.106 1622.43 647.149 1579.59 623.402 1538.75C595.464 1490.68 564.205 1430.61 540.548 1305.58C506.255 1124.4 490.71 1102.54 457.786 1025.57C454.758 1018.44 452.449 1010.44 448.982 1002.75C396.383 886.037 321.852 728.461 189.382 551.246" stroke="#F6931D" stroke-width="2" stroke-miterlimit="10"/>
<path d="M2653.79 2448.89C2606.55 2454.05 2512.2 2460.42 2424.95 2519.01C2294.6 2606.52 2231.89 2713.28 2165.49 2742.22C2132.99 2756.36 2100.13 2755.4 2059.29 2746.3C2027.7 2739.27 1993.87 2722.35 1953.64 2702.14C1849.25 2649.67 1738.39 2599.75 1660.43 2495.88C1550.21 2349.03 1594.48 2188.97 1491.94 2079.61C1367.07 1946.44 1134.6 2433.28 879.847 1948.79C846.043 1884.5 774.96 1809.35 692.224 1678.53C665.066 1635.59 640.351 1592.44 617.306 1550.33C590.794 1501.88 562.299 1438.71 540.786 1309.08C509.408 1120.08 496.364 1098.55 465.733 1022.23C462.812 1014.96 460.643 1006.92 457.319 999.096C408.042 883.755 334.492 726.865 198.301 548.074" stroke="#F6931D" stroke-width="2" stroke-miterlimit="10"/>
<path d="M2647.88 2431.12C2599.96 2436.96 2505.97 2444.19 2419.7 2505.76C2289.98 2598.43 2231.17 2709.31 2164.57 2743.98C2132.86 2760.48 2099.9 2762.47 2058.27 2755.51C2026.34 2750.16 1991.84 2735.03 1951.62 2716.18C1846.51 2666.93 1734.46 2613.55 1657.85 2506.74C1546.92 2352.1 1597.65 2186.2 1496.99 2075.01C1372.86 1937.88 1141.99 2450.85 878.611 1956.18C846.795 1896.42 768.867 1822.15 685.26 1691.35C659.033 1650.17 634.279 1606.89 611.211 1561.9C586.089 1513.08 560.438 1446.85 541.014 1312.57C512.599 1115.85 502.082 1094.63 473.689 1018.91C470.911 1011.5 468.863 1003.41 465.65 995.445C419.632 881.484 347.132 725.268 207.2 544.838" stroke="#F6931D" stroke-width="2" stroke-miterlimit="10"/>
<path d="M2641.98 2413.34C2593.37 2419.88 2499.74 2427.97 2414.45 2492.63C2285.41 2590.42 2230.29 2705.28 2163.64 2745.83C2132.67 2764.67 2099.64 2769.62 2057.24 2764.81C2024.97 2761.13 1989.83 2747.79 1949.6 2730.32C1843.78 2684.33 1730.6 2627.46 1655.26 2517.7C1543.73 2355.23 1600.83 2183.5 1502.03 2070.5C1378.61 1929.34 1149.67 2468.1 877.384 1963.59C847.558 1908.32 762.777 1834.93 678.302 1704.16C651.832 1663.19 627.322 1619.4 605.146 1573.47C581.38 1524.28 558.548 1455.08 541.276 1316.07C515.814 1111.72 507.839 1090.68 481.639 1015.56C479.009 1008.02 477.085 999.861 473.975 991.774C431.159 879.2 359.773 723.671 216.107 541.647" stroke="#F6931D" stroke-width="2" stroke-miterlimit="10"/>
<path d="M2636.07 2395.57C2586.78 2402.79 2493.54 2411.76 2409.2 2479.43C2280.85 2582.4 2229.31 2701.1 2162.72 2747.63C2132.43 2768.79 2099.38 2776.69 2056.21 2774.05C2023.58 2772.05 1987.82 2760.52 1947.59 2744.4C1841.06 2701.72 1726.8 2641.35 1652.66 2528.67C1540.63 2358.3 1604.02 2180.77 1507.06 2065.98C1384.43 1920.82 1157.67 2484.97 876.133 1971.03C848.336 1920.21 756.683 1847.7 671.32 1716.99C644.578 1676.21 620.28 1631.88 599.004 1585.06C576.588 1535.48 556.664 1463.38 541.46 1319.58C519.058 1107.67 513.648 1086.75 489.55 1012.23C487.074 1004.56 485.209 996.361 482.268 988.124C442.604 876.886 372.407 722.076 225.029 538.439" stroke="#F6931D" stroke-width="2" stroke-miterlimit="10"/>
<path d="M2630.17 2377.79C2580.19 2385.72 2487.34 2395.57 2403.93 2466.24C2276.28 2574.42 2228.22 2696.84 2161.77 2749.45C2132.13 2772.92 2099.08 2783.76 2055.17 2783.31C2022.17 2782.97 1985.79 2773.27 1945.55 2758.49C1838.33 2719.12 1723.06 2655.27 1650.08 2539.54C1537.66 2361.29 1607.23 2177.95 1512.1 2061.36C1390.26 1912.09 1166.11 2501.21 874.88 1978.4C849.082 1932.08 750.575 1860.51 664.34 1729.8C636.826 1688.09 612.799 1643.68 592.906 1596.67C571.799 1546.66 554.832 1471.73 541.718 1323.06C522.338 1103.69 519.503 1082.87 497.54 1008.87C495.231 1001.08 493.426 992.805 490.633 984.438C453.972 874.526 385.043 720.469 233.941 535.245" stroke="#F6931D" stroke-width="2" stroke-miterlimit="10"/>
<path d="M2624.26 2360.02C2573.62 2368.62 2481.15 2379.38 2398.7 2453.04C2271.76 2566.44 2227.03 2692.49 2160.9 2751.24C2131.83 2777.05 2098.84 2790.79 2054.18 2792.5C2020.79 2793.81 1983.84 2785.95 1943.57 2772.51C1835.66 2736.51 1719.44 2669.2 1647.53 2550.4C1534.83 2364.25 1610.53 2175.08 1517.21 2056.75C1396.15 1903.42 1175.1 2516.79 873.689 1985.79C849.914 1943.91 744.518 1873.24 657.421 1742.61C629.8 1701.22 605.873 1656.48 586.839 1608.19C566.985 1557.86 553.001 1480.13 541.956 1326.56C525.637 1099.78 525.427 1079.03 505.493 1005.53C503.348 997.619 501.607 989.297 498.971 980.785C465.277 872.129 397.68 718.862 242.856 532.039" stroke="#F6931D" stroke-width="2" stroke-miterlimit="10"/>
<path d="M2618.36 2342.26C2567.01 2351.54 2474.96 2363.18 2393.45 2439.84C2267.24 2558.46 2225.75 2688.1 2159.98 2753.04C2131.49 2781.16 2098.55 2797.85 2053.18 2801.79C2019.39 2804.75 1981.86 2798.76 1941.56 2786.65C1832.97 2754.02 1715.84 2683.22 1644.96 2561.36C1532.09 2367.31 1613.83 2172.32 1522.24 2052.24C1402.1 1894.73 1184.8 2531.36 872.487 1993.18C850.74 1955.69 738.457 1885.99 650.493 1755.42C622.807 1714.33 598.91 1669.24 580.774 1619.76C562.145 1568.93 551.199 1488.59 542.218 1330.06C528.927 1095.92 531.387 1075.3 513.464 1002.24C511.462 994.226 509.793 985.823 507.32 977.186C476.511 869.699 410.345 717.338 251.784 528.888" stroke="#F6931D" stroke-width="2" stroke-miterlimit="10"/>
<path d="M2612.46 2324.48C2560.43 2334.46 2468.8 2347.05 2388.2 2426.65C2262.75 2550.55 2224.38 2683.67 2159.05 2754.85C2131.09 2785.31 2098.22 2804.85 2052.15 2811.05C2017.96 2815.64 1979.86 2811.52 1939.55 2800.74C1830.3 2771.5 1712.31 2697.3 1642.37 2572.27C1529.43 2370.35 1617.13 2169.5 1527.28 2047.68C1408.05 1886.02 1195.35 2544.57 871.255 2000.58C851.522 1967.47 732.468 1898.57 643.524 1768.23C615.782 1727.4 591.871 1681.99 574.674 1631.34C557.258 1580.03 549.367 1497.09 542.453 1333.55C532.254 1092.1 537.385 1071.48 521.424 998.841C519.637 990.698 517.965 982.225 515.638 973.471C487.644 867.081 422.963 715.691 260.677 525.632" stroke="#F6931D" stroke-width="2" stroke-miterlimit="10"/>
<path d="M2606.55 2306.71C2553.84 2317.37 2462.75 2331.15 2382.95 2413.46C2258.47 2543.02 2222.94 2679.24 2158.12 2756.66C2130.65 2789.47 2097.86 2811.87 2051.12 2820.3C2016.51 2826.53 1977.87 2824.29 1937.52 2814.82C1827.61 2789.02 1708.8 2711.4 1639.79 2583.19C1526.86 2373.43 1620.45 2166.69 1532.32 2043.12C1414.03 1877.3 1207.12 2555.79 870.029 2007.97C852.318 1979.2 726.359 1911.38 636.576 1781.05C608.731 1740.53 584.826 1694.72 568.589 1642.91C552.352 1591.09 547.513 1505.65 542.66 1337.05C535.501 1088.36 543.403 1067.89 529.342 995.501C527.741 987.261 526.092 978.7 523.964 969.809C498.724 864.41 435.601 714.094 269.594 522.436" stroke="#F6931D" stroke-width="2" stroke-miterlimit="10"/>
<path d="M2600.65 2288.93C2547.24 2300.28 2456.5 2314.75 2377.7 2400.26C2201.71 2591.27 2210.38 2793.52 2050.08 2829.56C1919.16 2858.97 1730.25 2773.61 1637.19 2594.12C1524.37 2376.54 1623.8 2163.87 1537.35 2038.57C1420.05 1868.55 1220.54 2564.02 868.762 2015.39C848.2 1983.32 627.128 1879.09 562.466 1654.49C547.387 1602.13 545.681 1514.2 542.893 1340.56C538.789 1084.63 549.486 1064.32 537.297 992.162C519.525 886.977 462.86 729.137 278.515 519.264" stroke="#F6931D" stroke-width="2" stroke-miterlimit="10"/>
</svg>
