<svg width="1067" height="1900" viewBox="0 0 1067 1900" fill="none" xmlns="http://www.w3.org/2000/svg">
<path d="M-668.111 1898.58C-613.823 1868.49 -257.158 1762.01 -210.658 1679.5C-158.57 1587.08 -184.297 1539.55 -151.258 1462.98C-85.4734 1310.49 59.8486 1354.21 298.586 1197.86C397.302 1133.23 568.548 1021.1 571.327 866.485C573.314 755.791 487.085 723.98 500.025 636.382C520.726 496.327 750.075 517.888 878.547 324.349C946.984 221.243 960.581 96.5928 960.706 4.22354" stroke="#F6931D" stroke-width="2" stroke-miterlimit="10"/>
<path d="M-668.774 1887.33C-644.189 1874.36 -562.339 1846.95 -473.788 1814.88C-359.447 1774.05 -236.581 1724.66 -209.318 1680.28C-182.686 1636.93 -175.458 1603.05 -170.181 1571.16C-164.81 1538.77 -162.364 1508.13 -145.14 1470.28C-106.288 1384.96 -42.191 1361.6 46.4247 1325.67C114.656 1298.01 192.429 1265 292.905 1196.55C390.034 1130.38 569.785 1032.55 574.658 870.308C577.877 762.67 496.219 729.586 509.869 641.807C515.036 608.255 531.633 583.542 555.634 563.042C593.717 530.519 650.961 509.056 708.487 473.301C761.206 440.554 817.25 401.79 861.878 337.335C864.792 333.131 867.594 328.748 870.421 324.316C935.63 221.999 949.489 98.7347 952.232 4.59019" stroke="#F6931D" stroke-width="2" stroke-miterlimit="10"/>
<path d="M-669.436 1876.09C-644.056 1863.34 -562.355 1835.98 -473.555 1806.33C-358.283 1767.83 -236.434 1723.53 -207.972 1681.06C-180.567 1640.14 -172.759 1607.11 -166.388 1576.04C-159.951 1544.66 -156.744 1514.6 -138.998 1477.6C-98.7607 1393.73 -33.6718 1370.12 52.0388 1331.1C119.269 1300.48 189.195 1264.73 287.248 1195.24C382.8 1127.53 571.027 1044.07 578.05 874.113C582.368 769.566 505.412 735.215 519.765 647.235C525.11 613.839 541.246 588.761 564.415 567.992C600.95 535.254 656.086 514.022 709.387 475.295C758.318 439.747 811.76 401.41 854.157 337.392C856.947 333.182 859.565 328.736 862.28 324.291C924.291 222.794 938.396 100.85 943.759 4.95024" stroke="#F6931D" stroke-width="2" stroke-miterlimit="10"/>
<path d="M-670.099 1864.85C-643.93 1852.31 -562.303 1825.23 -473.323 1797.77C-357.036 1761.89 -236.351 1722.45 -206.628 1681.84C-178.466 1643.35 -170.078 1611.18 -162.613 1580.93C-155.147 1550.67 -151.136 1521.09 -132.829 1484.92C-91.1675 1402.49 -25.0875 1378.52 57.6805 1336.53C123.973 1302.9 185.987 1264.44 281.623 1193.94C375.596 1124.63 572.278 1055.66 581.452 877.925C586.689 776.459 514.799 740.9 529.682 652.669C535.256 619.425 550.849 594.007 573.15 572.93C608.124 539.966 661.279 518.91 710.269 477.288C755.546 438.834 806.273 401.016 846.447 337.441C849.112 333.218 851.558 328.71 854.147 324.252C912.959 223.634 927.311 103.018 935.279 5.31042" stroke="#F6931D" stroke-width="2" stroke-miterlimit="10"/>
<path d="M-670.762 1853.6C-643.803 1841.28 -562.238 1814.49 -473.089 1789.22C-355.782 1755.96 -236.331 1721.46 -205.287 1682.61C-176.469 1646.57 -167.405 1615.28 -158.838 1585.78C-150.316 1556.45 -145.523 1527.54 -126.722 1492.22C-83.6253 1411.23 -16.5401 1386.74 63.2656 1341.94C128.673 1305.2 182.723 1264.11 275.931 1192.61C368.327 1121.74 573.437 1067.28 584.793 881.707C590.809 783.337 523.992 746.522 539.543 658.08C545.352 625.015 560.445 599.221 581.954 577.859C615.367 544.668 666.617 523.644 711.217 479.232C752.881 437.796 800.786 400.582 838.732 337.497C841.296 333.274 843.519 328.705 846.017 324.227C901.642 224.521 916.22 105.16 926.806 5.67709" stroke="#F6931D" stroke-width="2" stroke-miterlimit="10"/>
<path d="M-671.424 1842.36C-643.671 1830.25 -562.177 1803.77 -472.856 1780.66C-354.498 1750.05 -236.379 1720.44 -203.941 1683.39C-174.514 1649.77 -164.75 1619.38 -155.062 1590.65C-145.522 1562.38 -139.903 1534.02 -120.587 1499.51C-76.0436 1419.97 -7.96011 1394.86 68.8735 1347.35C133.434 1307.43 179.479 1263.77 270.261 1191.29C361.043 1118.81 574.592 1078.95 588.162 885.501C594.843 790.221 533.207 752.157 549.399 663.497C555.408 630.593 570.008 604.457 590.696 582.81C622.554 549.479 671.951 528.239 712.108 481.265C750.301 436.593 795.286 400.136 831.006 337.554C833.423 333.319 835.479 328.694 837.869 324.196C890.35 225.452 905.129 107.302 918.355 6.03581" stroke="#F6931D" stroke-width="2" stroke-miterlimit="10"/>
<path d="M-672.087 1831.12C-643.533 1819.22 -562.105 1793.06 -472.618 1772.11C-353.214 1744.16 -236.503 1719.47 -202.601 1684.18C-172.648 1652.98 -162.11 1623.5 -151.282 1595.52C-140.749 1568.33 -134.272 1540.49 -114.451 1506.82C-68.456 1428.72 0.626675 1402.8 74.4986 1352.77C138.253 1309.58 176.244 1263.37 264.62 1189.98C353.871 1115.85 575.744 1090.66 591.548 889.3C598.744 797.112 542.418 757.792 559.277 668.92C565.482 636.177 579.585 609.718 599.455 587.754C629.756 554.262 677.306 532.613 713.013 483.258C747.773 435.207 789.78 399.683 823.296 337.61C825.594 333.356 827.462 328.682 829.744 324.163C879.077 226.435 894.038 109.443 909.854 6.39751" stroke="#F6931D" stroke-width="2" stroke-miterlimit="10"/>
<path d="M-672.75 1819.88C-643.42 1808.18 -562.022 1782.37 -472.385 1763.56C-351.924 1738.28 -236.706 1718.53 -201.256 1684.95C-170.886 1656.16 -159.494 1627.62 -147.507 1600.39C-135.997 1574.24 -128.648 1546.97 -108.316 1514.13C-60.8522 1437.47 9.19845 1410.61 80.0901 1358.22C143.056 1311.66 172.969 1263 258.934 1188.68C346.602 1112.9 576.796 1102.42 594.893 893.102C602.58 803.987 551.628 763.46 569.149 674.343C575.554 641.755 589.155 614.986 608.218 592.698C636.975 559.071 682.648 536.776 713.934 485.243C745.219 433.711 784.245 399.139 815.597 337.665C817.77 333.398 819.455 328.669 821.623 324.13C867.835 227.47 882.945 111.585 901.379 6.75751" stroke="#F6931D" stroke-width="2" stroke-miterlimit="10"/>
<path d="M-673.413 1808.63C-643.288 1797.17 -561.949 1771.69 -472.153 1755C-350.627 1732.42 -236.987 1717.58 -199.917 1685.73C-169.155 1659.29 -156.893 1631.76 -143.732 1605.26C-131.265 1580.17 -123.012 1553.45 -102.187 1521.44C-53.2317 1446.22 17.7504 1418.27 85.6957 1363.61C147.889 1313.58 169.706 1262.54 253.268 1187.34C339.356 1109.86 577.861 1114.19 598.256 896.896C606.332 810.86 560.83 769.069 579.02 679.766C585.626 647.339 598.731 620.267 616.936 597.645C644.169 563.928 687.895 540.758 714.827 487.236C742.734 431.831 778.727 398.594 807.841 337.717C809.896 333.437 811.392 328.666 813.452 324.101C856.608 228.564 871.858 113.72 892.905 7.12419" stroke="#F6931D" stroke-width="2" stroke-miterlimit="10"/>
<path d="M-674.076 1797.39C-643.161 1786.14 -561.84 1761.03 -471.92 1746.45C-349.321 1726.6 -237.342 1716.62 -198.572 1686.5C-167.516 1662.37 -154.299 1635.88 -139.958 1610.12C-126.556 1586.08 -117.37 1559.91 -96.0519 1528.74C-45.6043 1454.97 26.2663 1425.77 91.3033 1369.02C152.717 1315.42 166.433 1262.07 247.604 1186.02C332.101 1106.85 578.876 1125.97 601.624 900.683C610.005 817.718 570.034 774.691 588.921 685.175C595.715 652.889 608.327 625.574 625.745 602.573C651.401 568.736 693.059 544.465 715.76 489.214C740.142 429.851 773.201 398.003 800.176 337.757C802.105 333.458 803.42 328.651 805.371 324.059C845.423 229.694 860.767 115.862 884.426 7.48439" stroke="#F6931D" stroke-width="2" stroke-miterlimit="10"/>
<path d="M-674.737 1786.15C-643.034 1775.11 -561.741 1750.38 -471.675 1737.89C-347.989 1720.75 -237.759 1715.63 -197.214 1687.29C-165.935 1665.41 -151.747 1640.03 -136.169 1615.01C-121.861 1592.03 -111.71 1566.4 -89.9039 1536.05C-37.9526 1463.75 34.7594 1433.17 96.9125 1374.45C157.537 1317.19 163.155 1261.6 241.941 1184.72C324.84 1103.82 579.844 1137.79 604.994 904.497C613.606 824.594 579.229 780.34 598.772 690.612C605.764 658.527 617.878 630.87 634.476 607.532C658.598 573.62 698.055 548.09 716.645 491.235C737.391 427.742 767.586 397.404 792.445 337.827C794.244 333.503 795.376 328.66 797.214 324.041C834.281 230.876 849.678 118.037 875.953 7.84445" stroke="#F6931D" stroke-width="2" stroke-miterlimit="10"/>
<path d="M-675.401 1774.9C-642.903 1764.08 -561.637 1739.74 -471.455 1729.34C-346.683 1714.96 -238.288 1714.59 -195.886 1688.06C-164.444 1668.38 -149.227 1644.13 -132.395 1619.89C-117.192 1597.95 -106.061 1572.9 -83.7686 1543.37C-30.2968 1472.52 43.1872 1440.44 102.531 1379.88C162.337 1318.84 159.872 1261.09 236.288 1183.4C317.587 1100.75 580.771 1149.62 608.369 908.304C617.161 831.453 588.432 785.982 608.655 696.042C615.841 664.091 627.462 636.197 643.246 612.482C665.84 578.527 702.931 551.603 717.558 493.18C734.523 425.486 762.032 396.729 784.739 337.856C786.412 333.506 787.363 328.634 789.091 323.982C823.17 232.116 838.583 120.146 867.479 8.21106" stroke="#F6931D" stroke-width="2" stroke-miterlimit="10"/>
<path d="M-676.064 1763.66C-642.776 1753.06 -561.532 1729.12 -471.216 1720.79C-345.359 1709.17 -238.832 1713.49 -194.541 1688.84C-162.991 1671.29 -146.71 1648.26 -128.625 1624.75C-112.562 1603.88 -100.414 1579.39 -77.6507 1550.67C-22.6691 1481.29 51.5513 1447.57 108.127 1385.29C167.069 1320.39 156.554 1260.54 230.608 1182.1C310.296 1097.69 581.621 1161.47 611.721 912.112C620.631 838.316 597.604 791.632 618.517 701.479C625.892 669.683 637.032 641.552 651.988 617.44C673.051 583.463 707.634 555.039 718.454 495.22C731.47 423.215 756.407 396.077 777.02 337.94C778.567 333.564 779.342 328.669 780.956 323.977C812.1 233.399 827.497 122.287 858.998 8.54497" stroke="#F6931D" stroke-width="2" stroke-miterlimit="10"/>
<path d="M-676.727 1752.42C-642.65 1742.03 -561.426 1718.52 -470.984 1712.23C-344.027 1703.42 -239.458 1712.31 -193.201 1689.62C-161.587 1674.11 -144.202 1652.36 -124.851 1629.62C-107.935 1609.75 -94.7484 1585.88 -71.5155 1557.98C-14.967 1490.08 59.8655 1454.63 113.735 1390.71C171.768 1321.85 153.236 1259.99 224.948 1180.77C303.009 1094.53 582.424 1173.29 615.094 915.892C624.071 845.141 606.789 797.242 628.394 706.882C635.958 675.248 646.624 646.885 660.745 622.364C680.316 588.369 712.225 558.475 719.363 497.186C728.25 420.894 750.762 395.367 769.299 338.003C770.727 333.601 771.32 328.683 772.814 323.959C801.084 234.733 816.405 124.429 850.525 8.93147" stroke="#F6931D" stroke-width="2" stroke-miterlimit="10"/>
<path d="M-677.389 1741.17C-642.545 1731.01 -561.313 1707.93 -470.75 1703.68C-342.7 1697.67 -240.124 1711.03 -191.855 1690.4C-160.214 1676.87 -141.738 1656.45 -121.075 1634.49C-103.318 1615.63 -89.0818 1592.38 -65.3793 1565.29C-7.27468 1498.88 68.1188 1461.59 119.343 1396.13C176.401 1323.22 149.905 1259.4 219.285 1179.46C295.708 1091.38 583.156 1185.12 618.458 919.693C627.468 851.976 615.971 802.872 638.267 712.311C646.02 680.826 656.218 652.258 669.504 627.308C687.581 593.354 716.693 561.931 720.274 499.178C724.869 418.595 745.087 394.625 761.583 338.046C762.874 333.612 763.281 328.679 764.688 323.913C790.145 236.108 805.314 126.571 842.035 9.29898" stroke="#F6931D" stroke-width="2" stroke-miterlimit="10"/>
<path d="M-678.051 1729.97C-642.39 1720.01 -561.204 1697.39 -470.518 1695.15C-341.367 1691.96 -240.83 1709.67 -190.515 1691.2C-158.869 1679.57 -139.271 1660.53 -117.3 1639.38C-98.719 1621.51 -83.4102 1598.9 -59.244 1572.62C0.405181 1507.69 76.2926 1468.46 124.95 1401.55C180.96 1324.52 146.554 1258.79 213.608 1178.14C288.381 1088.21 583.774 1196.96 621.82 923.487C630.812 858.807 625.168 808.501 648.138 717.735C656.075 686.404 665.817 657.644 678.256 632.26C694.862 598.352 721.057 565.441 721.162 501.178C721.31 416.36 739.359 393.86 753.85 338.109C755.016 333.643 755.272 328.726 756.534 323.895C779.19 237.531 794.205 128.72 833.555 9.66594" stroke="#F6931D" stroke-width="2" stroke-miterlimit="10"/>
<path d="M-678.714 1718.71C-642.264 1708.98 -561.088 1686.83 -470.284 1686.6C-340.031 1686.27 -241.564 1708.18 -189.171 1691.95C-157.539 1682.16 -136.823 1664.53 -113.525 1644.23C-94.128 1627.32 -77.7334 1605.38 -53.1148 1579.9C8.13251 1516.5 84.4139 1475.28 130.56 1406.99C185.438 1325.74 143.166 1258.18 207.952 1176.84C281.05 1085.04 584.371 1208.79 625.191 927.307C634.137 865.665 634.318 814.153 658.018 723.177C666.139 692.002 675.44 663.029 687.021 637.21C702.168 603.362 725.38 568.999 722.062 503.165C717.643 414.179 733.574 393.065 746.135 338.159C747.158 333.655 747.265 328.699 748.392 323.857C768.372 238.966 783.136 130.854 825.099 10.0184" stroke="#F6931D" stroke-width="2" stroke-miterlimit="10"/>
<path d="M-679.377 1707.46C-642.137 1697.96 -560.979 1676.27 -470.051 1678.03C-338.701 1680.58 -242.318 1706.55 -187.824 1692.74C-156.228 1684.74 -134.38 1668.57 -109.748 1649.12C-89.5416 1633.16 -72.0485 1611.92 -46.9779 1587.23C15.8556 1525.36 92.4601 1482.07 136.167 1412.4C189.82 1326.87 139.808 1257.51 202.288 1175.52C273.691 1081.8 584.83 1220.57 628.581 931.086C637.439 872.446 643.504 819.756 667.912 728.579C676.209 697.533 685.099 668.445 695.795 642.133C709.514 608.389 729.617 572.635 723.017 505.148C713.881 412.095 727.845 392.26 738.442 338.207C739.328 333.678 739.272 328.712 740.283 323.823C757.557 240.447 772.044 132.996 816.625 10.3784" stroke="#F6931D" stroke-width="2" stroke-miterlimit="10"/>
<path d="M-680.04 1696.2C-642.007 1686.89 -560.881 1665.72 -469.814 1669.46C-337.37 1674.91 -243.068 1704.79 -186.485 1693.51C-154.896 1687.21 -131.94 1672.54 -105.968 1653.98C-84.958 1638.96 -66.365 1618.43 -40.8379 1594.52C23.5884 1534.19 100.44 1488.8 141.78 1417.81C194.109 1327.95 136.414 1256.83 196.617 1174.19C266.311 1078.56 585.163 1232.33 631.922 934.888C640.664 879.237 652.64 825.389 677.762 734.004C686.244 703.139 694.719 673.883 704.526 647.079C716.832 613.438 733.786 576.362 723.894 507.142C710.033 410.103 722.018 391.422 730.728 338.284C731.476 333.709 731.291 328.744 732.153 323.811C746.817 241.977 760.976 135.156 808.147 10.7653" stroke="#F6931D" stroke-width="2" stroke-miterlimit="10"/>
<path d="M-680.703 1684.95C-641.858 1675.86 -560.758 1655.2 -469.581 1660.91C-336.043 1669.26 -243.815 1702.91 -185.139 1694.28C-153.559 1689.64 -129.506 1676.51 -102.194 1658.83C-80.3811 1644.73 -60.6812 1624.94 -34.708 1601.82C31.3176 1543.04 108.34 1495.49 147.382 1423.21C198.282 1328.97 132.986 1256.12 190.959 1172.87C258.906 1075.29 585.373 1244.09 635.291 938.676C643.891 886.056 661.798 831 687.64 739.42C696.306 708.711 704.395 679.311 713.29 652.016C724.214 618.49 737.959 580.148 724.805 509.128C706.119 408.209 716.129 390.573 723.012 338.313C723.617 333.701 723.263 328.739 724.016 323.753C736.161 243.469 749.861 137.273 799.672 11.0988" stroke="#F6931D" stroke-width="2" stroke-miterlimit="10"/>
<path d="M-681.367 1673.7C-641.756 1664.82 -560.654 1644.66 -469.35 1652.34C-334.721 1663.63 -244.544 1700.86 -183.801 1695.04C-152.211 1692.01 -127.078 1680.41 -98.4478 1663.7C-75.8282 1650.5 -55.0207 1631.46 -28.609 1609.1C39.0342 1551.9 116.153 1502.17 152.959 1428.61C202.358 1329.98 129.557 1255.42 185.295 1171.56C251.482 1072 585.415 1255.79 638.659 942.482C647.09 892.828 670.95 836.625 697.512 744.85C706.355 714.296 714.088 684.752 722.042 656.967C731.606 623.568 742.114 584.042 725.715 511.12C702.158 406.409 710.239 389.738 715.295 338.356C715.75 333.679 715.29 328.738 715.883 323.707C725.532 244.992 738.773 139.401 791.197 11.4456" stroke="#F6931D" stroke-width="2" stroke-miterlimit="10"/>
<path d="M-682.031 1662.44C-641.624 1653.78 -560.552 1634.18 -469.118 1643.77C-333.404 1658.02 -245.237 1698.75 -182.456 1695.82C-150.836 1694.34 -124.624 1684.34 -94.6451 1668.57C-71.214 1656.24 -49.3025 1637.99 -22.4448 1616.42C46.8105 1560.8 123.958 1508.88 158.596 1434.05C206.323 1330.93 126.081 1254.67 179.612 1170.22C244.008 1068.7 585.269 1267.45 642.022 946.283C650.266 899.649 680.103 842.243 707.39 750.273C716.41 719.848 723.797 690.184 730.8 661.911C739.033 628.637 746.259 587.929 726.62 513.113C698.17 404.691 704.292 388.879 707.58 338.426C707.867 333.759 707.276 328.778 707.752 323.695C714.98 246.551 727.682 141.556 782.719 11.8323" stroke="#F6931D" stroke-width="2" stroke-miterlimit="10"/>
<path d="M-682.692 1651.23C-641.496 1642.78 -560.454 1623.72 -468.883 1635.25C-332.083 1652.46 -245.864 1696.5 -181.115 1696.62C-149.433 1696.67 -122.203 1688.27 -90.8683 1673.46C-66.6265 1662.01 -43.6271 1644.56 -16.3081 1623.75C54.5676 1569.75 131.679 1515.6 164.2 1439.49C210.178 1331.89 122.585 1253.96 173.966 1168.93C236.538 1065.38 584.894 1279.03 645.391 950.084C653.417 906.432 689.244 847.856 717.262 755.696C726.461 725.447 733.544 695.661 739.559 666.855C746.477 633.712 750.412 591.956 727.525 515.105C694.163 403.054 698.295 388.024 699.87 338.482C700.019 333.756 699.299 328.79 699.616 323.67C704.493 248.079 716.591 143.698 774.246 12.2122" stroke="#F6931D" stroke-width="2" stroke-miterlimit="10"/>
<path d="M-683.354 1639.99C-641.37 1631.75 -560.356 1613.25 -468.669 1626.67C-330.769 1646.88 -246.515 1694.14 -179.787 1697.37C-148.023 1698.91 -119.782 1692.13 -87.1108 1678.31C-62.0535 1667.71 -37.9311 1651.09 -10.1904 1631.04C62.3102 1578.64 139.321 1522.3 169.789 1444.88C213.905 1332.8 119.057 1253.18 168.285 1167.59C228.988 1062.04 584.244 1290.52 648.76 953.877C656.551 913.209 698.385 853.475 727.141 761.119C736.113 732.064 743.192 702.205 748.317 671.8C753.955 638.785 754.539 596.01 728.435 517.091C690.155 401.477 692.268 387.223 692.155 338.544C692.145 333.782 691.306 328.816 691.485 323.644C694.068 249.597 705.499 145.84 765.771 12.5524" stroke="#F6931D" stroke-width="2" stroke-miterlimit="10"/>
<path d="M-684.017 1628.74C-641.238 1620.73 -560.265 1602.79 -468.412 1618.14C-329.469 1641.35 -247.053 1691.7 -178.424 1698.18C-146.539 1701.18 -117.313 1696.02 -83.3122 1683.21C-57.4457 1673.45 -32.2161 1657.66 -4.03694 1638.37C70.09 1587.61 146.948 1529.07 175.415 1450.33C217.562 1333.77 115.543 1252.45 162.639 1166.3C221.476 1058.69 583.255 1301.9 652.123 957.678C659.666 919.974 707.52 859.088 737.013 766.542C746.254 737.542 752.966 707.457 757.047 676.745C761.432 643.851 758.718 600.108 729.318 519.085C686.161 399.965 686.201 386.418 684.439 338.594C684.263 333.795 683.301 328.823 683.353 323.605C683.692 251.092 694.407 147.982 757.303 12.9187" stroke="#F6931D" stroke-width="2" stroke-miterlimit="10"/>
<path d="M-684.679 1617.5C-641.111 1609.7 -560.177 1592.35 -468.179 1609.59C-328.174 1635.83 -247.546 1689.15 -177.084 1698.95C-145.035 1703.41 -114.864 1699.87 -79.5366 1688.07C-52.833 1679.16 -26.518 1664.22 2.09329 1645.68C77.8542 1596.58 154.51 1535.84 181.053 1455.77C221.13 1334.73 112.011 1251.7 156.999 1165.01C213.911 1055.36 581.882 1313.14 655.521 961.497C662.766 926.733 716.656 864.694 746.908 771.964C756.44 743.008 762.805 712.675 765.851 681.687C768.982 648.899 762.918 604.252 730.274 521.075C682.165 398.5 680.096 385.636 676.764 338.648C676.417 333.813 675.392 328.831 675.256 323.571C673.376 252.551 683.322 150.123 748.819 13.2794" stroke="#F6931D" stroke-width="2" stroke-miterlimit="10"/>
<path d="M-685.342 1606.25C-640.985 1598.68 -560.094 1581.9 -467.929 1601.03C-326.867 1630.32 -247.981 1686.53 -175.721 1699.73C-143.481 1705.62 -112.382 1703.71 -75.7447 1692.95C-48.2046 1684.86 -20.7923 1670.79 8.24553 1652.99C85.6348 1605.55 162.039 1542.65 186.648 1461.17C224.561 1335.67 108.431 1250.91 151.322 1163.66C206.272 1051.94 579.937 1324.15 658.894 965.27C665.886 933.477 725.814 870.319 756.797 777.379C766.683 747.727 772.795 717.415 774.622 686.65C776.519 653.935 767.085 608.43 731.156 523.062C678.16 397.082 673.965 384.888 669.009 338.7C668.486 333.842 667.386 328.831 667.085 323.535C663.108 253.966 672.229 152.258 740.345 13.6459" stroke="#F6931D" stroke-width="2" stroke-miterlimit="10"/>
<path d="M-686.005 1595.01C-640.87 1587.65 -560.018 1571.47 -467.713 1592.48C-325.605 1624.83 -248.359 1683.84 -174.426 1700.51C-141.928 1707.83 -109.962 1707.54 -72.0159 1697.8C-43.6286 1690.53 -15.1573 1677.34 14.3343 1660.27C93.3594 1614.53 169.469 1549.49 192.209 1466.57C227.869 1336.63 104.761 1250.12 145.584 1162.33C198.601 1048.55 577.32 1334.92 662.224 969.073C668.922 940.22 734.903 875.908 766.636 782.811C776.711 753.307 782.633 722.833 783.339 691.57C784.084 658.976 771.272 612.641 732.061 525.054C674.164 395.71 667.791 384.182 661.293 338.756C660.594 333.868 659.426 328.849 658.949 323.509C652.883 255.346 661.137 154.393 731.866 14.0063" stroke="#F6931D" stroke-width="2" stroke-miterlimit="10"/>
<path d="M-686.668 1583.77C-640.727 1576.62 -559.947 1561.02 -467.481 1583.93C-324.331 1619.33 -248.667 1681.11 -173.081 1701.29C-140.347 1710.03 -107.486 1711.37 -68.2393 1702.69C-39.0048 1696.25 -9.4569 1683.95 20.4712 1667.61C101.138 1623.57 176.907 1556.38 197.819 1472.02C231.131 1337.67 101.128 1249.37 139.949 1161.04C190.874 1045.16 573.796 1345.29 665.564 972.875C671.951 946.937 744.004 881.509 776.48 788.236C786.705 758.883 792.493 728.224 792.069 696.516C791.635 663.945 775.448 616.885 732.943 527.048C670.191 394.363 661.621 383.543 653.58 338.845C652.728 333.933 651.474 328.886 650.82 323.517C642.706 256.69 650.048 156.582 723.394 14.3994" stroke="#F6931D" stroke-width="2" stroke-miterlimit="10"/>
<path d="M-687.33 1572.53C-640.6 1565.59 -559.879 1550.63 -467.248 1575.37C-323.066 1613.88 -248.921 1678.33 -171.736 1702.07C-138.698 1712.22 -105 1715.16 -64.4581 1707.57C-34.3659 1701.93 -3.75789 1690.53 26.6071 1674.92C108.894 1632.6 184.304 1563.32 203.432 1477.43C234.321 1338.71 97.477 1248.61 134.291 1159.72C183.147 1041.77 569.127 1355.13 668.934 976.675C675.013 953.638 752.994 887.037 786.364 793.658C796.714 764.431 802.413 733.591 800.834 701.46C799.23 668.911 779.666 621.147 733.848 529.034C666.198 393.044 655.393 382.867 645.84 338.87C644.767 333.938 643.494 328.851 642.681 323.452C632.556 257.906 638.96 158.69 714.918 14.7263" stroke="#F6931D" stroke-width="2" stroke-miterlimit="10"/>
<path d="M-687.993 1561.28C-640.474 1554.56 -559.83 1540.39 -467.009 1566.82C-321.858 1608.69 -249.113 1675.54 -170.385 1702.84C-137.016 1714.42 -102.487 1718.96 -60.6774 1712.44C-29.7219 1707.6 1.94096 1697.12 32.7477 1682.22C116.668 1641.65 191.696 1570.28 209.046 1482.85C237.44 1339.8 93.8035 1247.85 128.632 1158.41C175.38 1038.38 562.812 1364.15 672.291 980.47C678.045 960.315 762.152 892.662 796.225 799.082C806.765 770.009 812.332 738.952 809.581 706.404C806.829 673.857 783.919 625.44 734.781 531.025C662.296 391.753 649.217 382.321 638.152 338.918C636.893 333.976 635.573 328.846 634.55 323.42C622.431 259.081 627.869 160.832 706.439 15.093" stroke="#F6931D" stroke-width="2" stroke-miterlimit="10"/>
<path d="M-688.656 1550.04C-640.342 1543.54 -559.767 1529.82 -466.777 1558.26C-259.089 1621.79 -202.521 1735.74 -56.8798 1717.31C62.0632 1702.25 193.363 1609.82 214.67 1488.27C240.505 1340.93 90.1131 1247.09 122.985 1157.09C167.584 1034.98 554.167 1371.91 675.693 984.268C682.796 961.609 835.08 851.05 818.367 711.347C814.472 678.774 788.155 629.734 735.692 533.018C658.367 390.477 642.998 381.804 630.437 338.974C612.13 276.541 609.784 175.675 697.966 15.4731" stroke="#F6931D" stroke-width="2" stroke-miterlimit="10"/>
</svg>
