<svg width="1000" height="3451" viewBox="0 0 1000 3451" fill="none" xmlns="http://www.w3.org/2000/svg">
<path d="M-1784 2839.48C-1710.65 2816.82 -1282.16 2809.71 -1186.11 2702.1C-1078.51 2581.56 -1077.09 2496.25 -998.325 2391.89C-841.492 2184.06 -717.92 2316.57 -381.283 2179.55C-242.095 2122.92 -0.638316 2024.67 92.7667 1785.55C159.635 1614.36 89.7492 1526.61 154.335 1396.18C257.609 1187.65 480.414 1323.04 725.642 1079.23C856.278 949.349 943.239 761.615 997.464 618.08" stroke="#F6931D" stroke-width="2" stroke-miterlimit="10"/>
<path d="M-1778.09 2821.71C-1745.26 2812.46 -1645.19 2806.21 -1535.51 2795.68C-1394.22 2782.99 -1239.17 2760.78 -1185.19 2703.9C-1132.47 2648.35 -1105.2 2598.88 -1081.11 2551.66C-1056.63 2503.7 -1036.17 2457.14 -996.323 2405.96C-906.469 2290.58 -826.994 2282.74 -714.983 2266.24C-628.741 2253.54 -529.573 2236.76 -386.346 2174.99C-247.885 2115.26 -6.0717 2043.01 93.9469 1792.97C160.29 1627.08 95.843 1539.38 161.263 1408.99C186.218 1359.12 217.728 1328.08 254.371 1306.87C312.511 1273.23 383.843 1265.29 463.836 1235.25C537.132 1207.76 617.365 1172.39 700.925 1092.02C706.378 1086.78 711.822 1081.21 717.32 1075.57C844.181 945.481 930.599 760.018 988.551 614.887" stroke="#F6931D" stroke-width="2" stroke-miterlimit="10"/>
<path d="M-1772.19 2803.94C-1738.67 2795.38 -1638.78 2789.14 -1530.26 2782.49C-1389.38 2773.84 -1238.35 2759.09 -1184.27 2705.72C-1132.17 2654.28 -1104.81 2606.4 -1080.07 2560.93C-1055.09 2515 -1034.19 2469.7 -994.304 2420.06C-903.883 2307.56 -823.239 2299.76 -712.4 2277.17C-625.457 2259.44 -532.736 2234.91 -391.389 2170.44C-253.643 2107.62 -11.5434 2061.47 95.1995 1800.39C160.861 1639.79 101.982 1552.21 168.242 1421.82C193.287 1372.28 224.539 1340.46 260.486 1318.46C317.162 1283.8 386.196 1275.28 463.592 1238.75C534.639 1205.22 611.951 1169.36 692.966 1088.68C698.295 1083.37 703.587 1077.62 708.976 1071.92C832.075 941.68 917.972 758.38 979.641 611.683" stroke="#F6931D" stroke-width="2" stroke-miterlimit="10"/>
<path d="M-1766.29 2786.17C-1732.08 2778.29 -1632.43 2772.45 -1525 2769.29C-1384.62 2765.15 -1237.64 2757.46 -1183.34 2707.51C-1131.89 2660.19 -1104.44 2613.91 -1079.06 2570.2C-1053.68 2526.48 -1032.23 2482.28 -992.254 2434.17C-901.216 2324.55 -819.341 2316.63 -709.789 2288.12C-622.039 2265.28 -535.858 2233.04 -396.397 2165.92C-259.34 2099.91 -17.0457 2080.04 96.4621 1807.83C161.262 1652.43 108.291 1565.22 175.242 1434.67C200.433 1385.47 231.325 1352.88 266.563 1330.02C321.77 1294.31 388.666 1285.19 463.331 1242.24C532.33 1202.57 606.551 1166.31 685.024 1085.33C690.233 1079.95 695.384 1074.03 700.653 1068.25C819.952 937.953 905.325 756.827 970.727 608.476" stroke="#F6931D" stroke-width="2" stroke-miterlimit="10"/>
<path d="M-1760.38 2768.39C-1725.49 2761.21 -1626.07 2755.79 -1519.76 2756.1C-1379.86 2756.5 -1237.03 2755.92 -1182.42 2709.32C-1131.73 2666.09 -1104.1 2621.47 -1078.03 2579.42C-1052.1 2537.62 -1030.25 2494.8 -990.261 2448.23C-898.591 2341.48 -815.386 2333.21 -707.222 2299C-618.568 2270.95 -539.016 2231.07 -401.462 2161.32C-265.109 2092.19 -22.6653 2098.63 97.6745 1815.19C161.461 1664.95 114.433 1578.04 182.194 1447.46C207.522 1398.64 238.121 1365.25 272.711 1341.59C326.45 1304.84 391.371 1294.92 463.164 1245.69C530.201 1199.78 601.171 1163.2 677.07 1081.99C682.176 1076.56 687.133 1070.45 692.32 1064.6C807.814 934.305 892.684 755.23 961.813 605.283" stroke="#F6931D" stroke-width="2" stroke-miterlimit="10"/>
<path d="M-1754.48 2750.62C-1718.9 2744.12 -1619.73 2739.15 -1514.51 2742.9C-1375.08 2747.88 -1236.49 2754.31 -1181.49 2711.13C-1131.6 2671.93 -1103.77 2629.02 -1077 2588.67C-1050.65 2548.95 -1028.27 2507.36 -988.238 2462.3C-895.928 2358.43 -811.333 2349.64 -704.638 2309.91C-614.987 2276.53 -542.151 2229.11 -406.51 2156.75C-270.87 2084.4 -28.315 2117.28 98.9098 1822.59C161.57 1677.44 120.592 1590.89 189.137 1460.26C214.577 1411.78 244.871 1377.63 278.785 1353.17C331.008 1315.51 394.155 1304.43 462.887 1249.24C528.257 1196.76 595.786 1160.07 669.105 1078.65C674.066 1073.14 678.886 1066.86 683.974 1060.93C795.676 930.737 880.043 753.633 952.927 602.087" stroke="#F6931D" stroke-width="2" stroke-miterlimit="10"/>
<path d="M-1748.57 2732.85C-1712.3 2727.04 -1613.39 2722.53 -1509.25 2729.71C-1370.31 2739.29 -1236.05 2752.76 -1180.58 2712.94C-1131.56 2677.75 -1103.48 2636.6 -1075.97 2597.91C-1049.24 2560.32 -1026.28 2519.92 -986.222 2476.39C-893.263 2375.4 -807.171 2365.8 -702.039 2320.83C-611.298 2282.01 -545.235 2227.04 -411.531 2152.2C-276.504 2076.62 -33.9911 2136 100.16 1830C161.537 1689.88 126.746 1603.74 196.101 1473.08C221.647 1424.93 251.62 1390.07 284.879 1364.75C335.6 1326.14 397.09 1313.61 462.649 1252.74C526.472 1193.48 590.398 1156.92 661.157 1075.31C666.008 1069.72 670.662 1063.28 675.651 1057.27C783.528 927.259 867.403 752.037 943.988 598.874" stroke="#F6931D" stroke-width="2" stroke-miterlimit="10"/>
<path d="M-1742.67 2715.08C-1705.71 2709.93 -1607.04 2705.95 -1504.01 2716.52C-1365.54 2730.72 -1235.7 2751.2 -1179.65 2714.75C-1131.61 2683.48 -1103.2 2644.17 -1074.95 2607.16C-1047.82 2571.62 -1024.3 2532.49 -984.204 2490.48C-890.581 2392.38 -802.941 2381.74 -699.485 2331.78C-607.582 2287.37 -548.376 2225.01 -416.609 2147.67C-282.231 2068.79 -39.7937 2154.74 101.37 1837.39C161.451 1702.28 132.883 1616.65 203.06 1485.89C228.721 1438.08 258.36 1402.51 290.982 1376.33C340.196 1336.82 400.138 1322.45 462.434 1256.24C524.73 1190.02 585.037 1153.61 653.224 1071.98C657.953 1066.31 662.452 1059.7 667.336 1053.61C771.384 923.875 854.764 750.44 935.08 595.67" stroke="#F6931D" stroke-width="2" stroke-miterlimit="10"/>
<path d="M-1736.77 2697.31C-1699.12 2692.86 -1600.71 2689.38 -1498.76 2703.32C-1360.78 2722.19 -1235.44 2749.6 -1178.73 2716.55C-1131.67 2689.11 -1102.96 2651.76 -1073.93 2616.41C-1046.43 2582.94 -1022.31 2545.07 -982.19 2504.56C-887.883 2409.37 -798.648 2397.45 -696.891 2342.66C-603.75 2292.51 -551.457 2222.85 -421.641 2143.07C-287.892 2060.86 -45.5967 2173.52 102.599 1844.79C161.277 1714.63 139.045 1629.45 210.018 1498.71C235.791 1451.23 265.097 1414.97 297.034 1387.89C344.736 1347.57 403.191 1330.97 462.183 1259.73C523.279 1186 579.692 1150.32 645.232 1068.61C649.847 1062.87 654.178 1056.12 658.966 1049.94C759.219 920.589 842.132 748.835 926.166 592.476" stroke="#F6931D" stroke-width="2" stroke-miterlimit="10"/>
<path d="M-1730.86 2679.53C-1692.54 2675.78 -1594.35 2672.85 -1493.51 2690.13C-1356.04 2713.73 -1235.24 2747.95 -1177.8 2718.34C-1131.79 2694.63 -1102.71 2659.31 -1072.9 2625.64C-1045.07 2594.23 -1020.31 2557.62 -980.167 2518.63C-885.179 2426.36 -794.301 2412.89 -694.303 2353.56C-599.868 2297.51 -554.542 2220.66 -426.679 2138.49C-293.575 2052.95 -51.4527 2192.28 103.838 1852.17C161.031 1726.92 145.199 1642.28 217.012 1511.51C242.896 1464.34 271.839 1427.48 303.19 1399.46C349.343 1358.26 406.32 1339.03 461.982 1263.22C521.777 1181.77 574.365 1146.94 637.339 1065.27C641.837 1059.44 646.002 1052.55 650.695 1046.28C747.074 917.379 829.492 747.238 917.25 589.27" stroke="#F6931D" stroke-width="2" stroke-miterlimit="10"/>
<path d="M-1724.96 2661.76C-1685.95 2658.69 -1588.01 2656.34 -1488.25 2676.94C-1351.24 2705.23 -1235.09 2746.22 -1176.87 2720.17C-1131.95 2700.06 -1102.52 2666.89 -1071.87 2634.92C-1043.73 2605.56 -1018.3 2570.22 -978.141 2532.73C-882.465 2443.4 -789.916 2428.16 -691.725 2364.49C-595.957 2302.4 -557.635 2218.48 -431.731 2133.95C-299.253 2045.01 -57.3862 2211.09 105.064 1859.59C160.7 1739.21 151.329 1655.14 223.94 1524.34C249.908 1477.57 278.541 1439.95 309.248 1411.05C353.871 1369.04 409.326 1346.88 461.706 1266.75C520.188 1177.27 568.951 1143.52 629.362 1061.94C633.741 1056.02 637.739 1049 642.33 1042.63C734.944 914.267 816.834 745.693 908.341 586.066" stroke="#F6931D" stroke-width="2" stroke-miterlimit="10"/>
<path d="M-1719.05 2643.98C-1679.35 2641.6 -1581.68 2639.86 -1483.01 2663.74C-1346.5 2696.8 -1235.02 2744.37 -1175.96 2721.97C-1132.16 2705.33 -1102.33 2674.39 -1070.85 2644.18C-1042.4 2616.84 -1016.31 2582.84 -976.127 2546.83C-879.744 2460.45 -785.52 2443.21 -689.134 2375.42C-591.998 2307.11 -560.704 2216.23 -436.763 2129.4C-304.901 2037.02 -63.3608 2229.89 106.3 1867.01C160.334 1751.45 157.474 1668 230.907 1537.17C256.995 1490.69 285.262 1452.49 315.353 1422.64C358.433 1379.89 412.276 1354.51 461.505 1270.18C518.567 1172.49 563.647 1140 621.435 1058.57C625.701 1052.55 629.53 1045.4 634.029 1038.93C722.813 911.259 804.212 744.044 899.429 582.873" stroke="#F6931D" stroke-width="2" stroke-miterlimit="10"/>
<path d="M-1713.15 2626.22C-1672.77 2624.53 -1575.35 2623.4 -1477.76 2650.55C-1341.76 2688.39 -1234.93 2742.41 -1175.03 2723.77C-1132.37 2710.49 -1102.17 2681.94 -1069.84 2653.42C-1041.12 2628.1 -1014.31 2595.43 -974.122 2560.9C-877.047 2477.46 -781.112 2458.01 -686.559 2386.31C-588.044 2311.6 -563.79 2213.91 -441.833 2124.86C-310.595 2029.03 -69.4268 2248.69 107.511 1874.42C159.876 1763.66 163.579 1680.86 237.846 1550C264.038 1503.85 291.949 1465.07 321.423 1434.23C362.944 1390.76 415.091 1361.94 461.231 1273.75C516.762 1167.6 558.255 1136.49 613.462 1055.27C617.614 1049.15 621.276 1041.89 625.68 1035.31C710.698 908.338 791.577 742.45 890.527 579.625" stroke="#F6931D" stroke-width="2" stroke-miterlimit="10"/>
<path d="M-1707.24 2608.45C-1666.18 2607.43 -1569.03 2606.96 -1472.51 2637.36C-1337.02 2680.04 -1234.89 2740.3 -1174.12 2725.58C-1132.58 2715.51 -1102 2689.42 -1068.81 2662.66C-1039.81 2639.29 -1012.3 2608.04 -972.106 2574.99C-874.291 2494.55 -776.71 2472.67 -683.978 2397.23C-584.077 2315.97 -566.872 2211.57 -446.862 2120.27C-316.223 2020.88 -75.5236 2267.41 108.759 1881.79C159.409 1775.8 169.722 1693.66 244.82 1562.79C271.111 1516.97 298.671 1477.62 327.527 1445.77C367.527 1401.62 417.79 1369.32 461.012 1277.21C514.815 1162.56 552.875 1132.88 605.499 1051.94C609.543 1045.73 613.032 1038.35 617.333 1031.67C698.609 905.519 778.936 740.853 881.603 576.463" stroke="#F6931D" stroke-width="2" stroke-miterlimit="10"/>
<path d="M-1701.34 2590.67C-1659.62 2590.35 -1562.72 2590.55 -1467.26 2624.17C-1332.29 2671.69 -1234.82 2738.03 -1173.19 2727.39C-1132.79 2720.41 -1101.86 2696.87 -1067.79 2671.91C-1038.52 2650.48 -1010.29 2620.66 -970.09 2589.08C-871.549 2511.64 -772.315 2487.16 -681.398 2408.15C-580.128 2320.16 -569.948 2209.18 -451.908 2115.71C-321.878 2012.75 -81.7041 2286.13 109.985 1889.2C158.892 1787.93 175.849 1706.49 251.774 1575.61C278.172 1530.11 305.371 1490.23 333.622 1457.35C372.064 1412.59 420.352 1376.68 460.779 1280.71C512.69 1157.49 547.483 1129.2 597.552 1048.58C601.475 1042.26 604.782 1034.77 609.017 1027.99C686.572 902.798 766.295 739.256 872.672 573.264" stroke="#F6931D" stroke-width="2" stroke-miterlimit="10"/>
<path d="M-1695.45 2572.96C-1653.02 2573.32 -1556.43 2574.21 -1462.02 2611C-1327.58 2663.42 -1234.75 2735.6 -1172.28 2729.22C-1132.99 2725.21 -1101.71 2704.31 -1066.78 2681.2C-1037.24 2661.66 -1008.28 2633.32 -968.079 2603.19C-868.821 2528.75 -767.95 2501.48 -678.815 2419.07C-576.202 2324.19 -573.026 2206.74 -456.959 2111.14C-327.541 2004.57 -87.9979 2304.81 111.217 1896.59C158.327 1800.03 181.996 1719.33 258.734 1588.43C285.23 1543.25 312.074 1502.87 339.709 1468.93C376.614 1423.6 422.778 1384.07 460.522 1284.22C510.348 1152.43 542.054 1125.47 589.58 1045.24C593.392 1038.82 596.535 1031.29 600.66 1024.34C674.496 900.145 753.636 737.664 863.755 570.068" stroke="#F6931D" stroke-width="2" stroke-miterlimit="10"/>
<path d="M-1689.54 2555.17C-1646.42 2556.22 -1550.12 2557.84 -1456.78 2597.81C-1322.88 2655.16 -1234.63 2732.95 -1171.34 2730.99C-1133.14 2729.83 -1101.55 2711.62 -1065.74 2690.4C-1035.93 2672.74 -1006.25 2645.92 -966.055 2617.23C-866.054 2545.89 -763.606 2515.68 -676.241 2430.01C-572.323 2328.08 -576.147 2204.28 -462.009 2106.62C-333.208 1996.38 -94.3178 2323.47 112.438 1904.02C157.722 1812.17 188.077 1732.18 265.687 1601.28C292.28 1556.42 318.797 1515.51 345.806 1480.52C381.178 1434.63 425.131 1391.52 460.281 1287.71C507.861 1147.41 536.58 1121.67 581.63 1041.89C585.318 1035.34 588.33 1027.69 592.323 1020.66C662.55 897.571 741.022 736.065 854.866 566.86" stroke="#F6931D" stroke-width="2" stroke-miterlimit="10"/>
<path d="M-1683.63 2537.38C-1639.84 2539.15 -1543.83 2541.48 -1451.52 2584.61C-1318.18 2646.9 -1234.45 2730.08 -1170.42 2732.82C-1133.3 2734.41 -1101.41 2718.98 -1064.73 2699.69C-1034.64 2683.85 -1004.24 2658.6 -964.048 2631.35C-863.311 2563.07 -759.325 2529.81 -673.657 2440.92C-568.487 2331.79 -579.205 2201.75 -467.05 2102.05C-338.865 1988.07 -100.745 2341.98 113.705 1911.4C157.141 1824.18 194.224 1744.97 272.679 1614.07C299.378 1569.49 325.539 1528.22 351.929 1492.07C385.774 1445.71 427.35 1399.06 460.1 1291.21C505.218 1142.5 531.169 1117.87 573.704 1038.55C577.267 1031.9 580.117 1024.16 584.018 1017.01C650.58 895.07 728.382 734.468 845.957 563.656" stroke="#F6931D" stroke-width="2" stroke-miterlimit="10"/>
<path d="M-1677.72 2519.59C-1633.23 2522.01 -1537.55 2525.13 -1446.26 2571.39C-1313.49 2638.68 -1234.19 2727.01 -1169.5 2734.61C-1133.38 2738.84 -1101.23 2726.24 -1063.7 2708.92C-1033.33 2694.9 -1002.22 2671.25 -962.015 2645.41C-860.544 2580.24 -755.071 2543.81 -671.062 2451.82C-564.718 2335.37 -582.288 2199.18 -472.09 2097.46C-344.544 1979.76 -107.289 2360.41 114.908 1918.8C156.474 1836.17 200.305 1757.78 279.614 1626.88C306.396 1582.66 332.23 1540.95 357.995 1503.64C390.33 1456.81 429.448 1406.7 459.833 1294.7C502.436 1137.7 525.68 1113.98 565.741 1035.24C569.189 1028.46 571.906 1020.66 575.68 1013.38C638.66 892.678 715.755 732.91 837.028 560.492" stroke="#F6931D" stroke-width="2" stroke-miterlimit="10"/>
<path d="M-1671.81 2501.8C-1626.61 2504.92 -1531.26 2508.83 -1441.01 2558.19C-1308.82 2630.48 -1233.85 2723.75 -1168.57 2736.4C-1133.43 2743.21 -1101.05 2733.48 -1062.66 2718.14C-1032.01 2705.9 -1000.2 2683.89 -959.998 2659.48C-857.795 2597.43 -750.884 2557.73 -668.477 2462.71C-561.034 2338.82 -585.393 2196.56 -477.126 2092.89C-350.231 1971.39 -113.962 2378.78 116.147 1926.18C155.792 1848.2 206.419 1770.57 286.581 1639.68C313.461 1595.79 338.983 1553.68 364.099 1515.2C394.948 1467.94 431.513 1414.44 459.604 1298.19C499.527 1133.01 520.13 1110.04 557.802 1031.86C561.125 1024.96 563.667 1017.09 567.36 1009.67C626.846 890.264 703.105 731.264 828.132 557.246" stroke="#F6931D" stroke-width="2" stroke-miterlimit="10"/>
<path d="M-1665.9 2484.01C-1620.04 2487.8 -1524.98 2492.49 -1435.75 2544.97C-1304.16 2622.31 -1233.4 2720.25 -1167.64 2738.19C-1133.44 2747.49 -1100.84 2740.63 -1061.67 2727.37C-1030.72 2716.89 -998.208 2696.54 -957.999 2673.51C-855.06 2614.63 -746.771 2571.57 -665.911 2473.58C-557.44 2342.2 -588.501 2193.95 -482.174 2088.35C-355.924 1962.98 -120.774 2397 117.376 1933.6C155.112 1860.15 212.52 1783.38 293.536 1652.51C320.507 1608.94 345.748 1566.45 370.185 1526.79C399.564 1479.12 433.5 1422.34 459.372 1301.7C496.516 1128.46 514.574 1106.13 549.856 1028.5C553.063 1021.43 555.485 1013.55 559.039 1005.99C615.045 887.912 690.477 729.648 819.229 554.021" stroke="#F6931D" stroke-width="2" stroke-miterlimit="10"/>
<path d="M-1659.99 2466.22C-1613.44 2470.71 -1518.74 2476.24 -1430.5 2531.76C-1299.53 2614.19 -1232.88 2716.65 -1166.71 2739.98C-1133.39 2751.73 -1100.63 2747.83 -1060.61 2736.62C-1029.35 2727.87 -996.164 2709.23 -955.961 2687.63C-852.292 2631.92 -742.692 2585.48 -663.308 2484.53C-553.922 2345.42 -591.63 2191.24 -487.224 2083.74C-361.665 1954.53 -127.75 2415.05 118.602 1941C154.376 1872.17 218.624 1796.18 300.499 1665.33C327.576 1622.04 352.532 1579.2 376.279 1538.36C404.218 1490.29 435.477 1430.22 459.133 1305.2C493.426 1124.02 508.972 1102.15 541.895 1025.18C544.924 1018.06 547.233 1010.05 550.699 1002.36C603.299 885.648 677.829 728.072 810.299 550.857" stroke="#F6931D" stroke-width="2" stroke-miterlimit="10"/>
<path d="M-1654.1 2448.5C-1606.87 2453.66 -1512.51 2460.03 -1425.27 2518.62C-1294.92 2606.13 -1232.21 2712.89 -1165.81 2741.83C-1133.31 2755.97 -1100.44 2755.02 -1059.61 2745.91C-1028.01 2738.88 -994.184 2721.96 -953.954 2701.75C-849.573 2649.29 -738.704 2599.36 -660.746 2495.49C-550.532 2348.64 -594.802 2188.58 -492.261 2079.22C-367.389 1946.05 -134.916 2432.89 119.835 1948.4C153.639 1884.11 224.721 1808.96 307.458 1678.14C334.616 1635.2 359.33 1592.05 382.375 1549.94C408.888 1501.49 437.382 1438.33 458.896 1308.69C490.273 1119.69 503.318 1098.16 533.949 1021.85C536.869 1014.57 539.039 1006.53 542.363 998.708C591.64 883.366 665.19 726.476 801.38 547.685" stroke="#F6931D" stroke-width="2" stroke-miterlimit="10"/>
<path d="M-1648.2 2430.73C-1600.28 2436.58 -1506.28 2443.8 -1420.02 2505.37C-1290.3 2598.04 -1231.49 2708.92 -1164.89 2743.59C-1133.18 2760.09 -1100.22 2762.09 -1058.59 2755.12C-1026.66 2749.77 -992.159 2734.64 -951.941 2715.79C-846.832 2666.54 -734.783 2613.16 -658.165 2506.35C-547.238 2351.71 -597.97 2185.81 -497.309 2074.62C-373.178 1937.49 -142.313 2450.46 121.071 1955.79C152.887 1896.04 230.814 1821.76 314.422 1690.96C340.649 1649.78 365.402 1606.5 388.47 1561.51C413.593 1512.7 439.244 1446.46 458.668 1312.19C487.082 1115.46 497.6 1094.24 525.993 1018.52C528.771 1011.11 530.819 1003.02 534.031 995.057C580.049 881.096 652.55 724.879 792.481 544.449" stroke="#F6931D" stroke-width="2" stroke-miterlimit="10"/>
<path d="M-1642.29 2412.95C-1593.69 2419.49 -1500.06 2427.58 -1414.76 2492.24C-1285.73 2590.03 -1230.61 2704.89 -1163.96 2745.44C-1132.99 2764.28 -1099.96 2769.23 -1057.56 2764.42C-1025.29 2760.74 -990.145 2747.4 -949.92 2729.93C-844.098 2683.94 -730.915 2627.07 -655.581 2517.32C-544.05 2354.84 -601.15 2183.11 -502.35 2070.11C-378.927 1928.95 -149.992 2467.71 122.297 1963.2C152.123 1907.93 236.905 1834.54 321.38 1703.77C347.85 1662.8 372.36 1619.01 394.535 1573.08C418.301 1523.89 441.134 1454.69 458.406 1315.68C483.868 1111.34 491.843 1090.29 518.043 1015.17C520.673 1007.63 522.597 999.473 525.706 991.385C568.522 878.811 639.909 723.282 783.574 541.258" stroke="#F6931D" stroke-width="2" stroke-miterlimit="10"/>
<path d="M-1636.39 2395.18C-1587.1 2402.4 -1493.85 2411.37 -1409.51 2479.04C-1281.17 2582.02 -1229.63 2700.71 -1163.04 2747.25C-1132.75 2768.4 -1099.7 2776.3 -1056.53 2773.66C-1023.9 2771.66 -988.138 2760.13 -947.906 2744.01C-841.381 2701.33 -727.121 2640.96 -652.98 2528.28C-540.95 2357.91 -604.338 2180.38 -507.382 2065.59C-384.749 1920.43 -157.99 2484.58 123.549 1970.64C151.346 1919.82 242.998 1847.31 328.361 1716.6C355.104 1675.82 379.402 1631.49 400.678 1584.67C423.094 1535.09 443.018 1462.99 458.221 1319.19C480.623 1107.28 486.034 1086.37 510.132 1011.84C512.607 1004.17 514.473 995.972 517.414 987.735C557.078 876.497 627.275 721.687 774.653 538.05" stroke="#F6931D" stroke-width="2" stroke-miterlimit="10"/>
<path d="M-1630.48 2377.4C-1580.51 2385.33 -1487.65 2395.18 -1404.25 2465.85C-1276.6 2574.03 -1228.54 2696.45 -1162.09 2749.06C-1132.45 2772.54 -1099.4 2783.37 -1055.49 2782.92C-1022.48 2782.58 -986.104 2772.88 -945.871 2758.1C-838.649 2718.74 -723.376 2654.88 -650.396 2539.15C-537.978 2360.9 -607.548 2177.56 -512.421 2060.97C-390.582 1911.7 -166.429 2500.82 124.802 1978.01C150.6 1931.69 249.106 1860.12 335.342 1729.41C362.856 1687.7 386.883 1643.3 406.775 1596.28C427.883 1546.27 444.85 1471.34 457.964 1322.68C477.344 1103.3 480.179 1082.48 502.141 1008.48C504.45 1000.69 506.255 992.417 509.048 984.049C545.709 874.137 614.639 720.08 765.741 534.856" stroke="#F6931D" stroke-width="2" stroke-miterlimit="10"/>
<path d="M-1624.58 2359.64C-1573.94 2368.24 -1481.46 2379 -1399.02 2452.65C-1272.08 2566.05 -1227.35 2692.1 -1161.22 2750.85C-1132.14 2776.66 -1099.16 2790.4 -1054.5 2792.11C-1021.11 2793.42 -984.155 2785.56 -943.884 2772.12C-835.977 2736.12 -719.756 2668.82 -647.849 2550.01C-535.145 2363.86 -610.85 2174.7 -517.532 2056.36C-396.472 1903.03 -175.422 2516.4 125.993 1985.4C149.767 1943.52 255.163 1872.85 342.261 1742.22C369.882 1700.83 393.809 1656.09 412.843 1607.8C432.697 1557.47 446.681 1479.75 457.726 1326.18C474.045 1099.39 474.254 1078.64 494.189 1005.14C496.334 997.23 498.075 988.908 500.711 980.396C534.405 871.741 602.002 718.473 756.825 531.651" stroke="#F6931D" stroke-width="2" stroke-miterlimit="10"/>
<path d="M-1618.68 2341.87C-1567.33 2351.15 -1475.27 2362.79 -1393.77 2439.45C-1267.56 2558.07 -1226.07 2687.71 -1160.29 2752.65C-1131.81 2780.78 -1098.87 2797.46 -1053.5 2801.4C-1019.71 2804.37 -982.177 2798.37 -941.882 2786.26C-833.287 2753.63 -716.155 2682.83 -645.282 2560.97C-532.404 2366.92 -614.146 2171.93 -522.562 2051.85C-402.422 1894.34 -185.118 2530.97 127.195 1992.79C148.942 1955.31 261.224 1885.6 349.188 1755.03C376.875 1713.94 400.772 1668.85 418.907 1619.37C437.537 1568.54 448.482 1488.2 457.464 1329.67C470.755 1095.53 468.295 1074.91 486.218 1001.85C488.22 993.838 489.889 985.434 492.361 976.798C523.17 869.31 589.337 716.949 747.898 528.499" stroke="#F6931D" stroke-width="2" stroke-miterlimit="10"/>
<path d="M-1612.77 2324.09C-1560.74 2334.07 -1469.12 2346.66 -1388.52 2426.26C-1263.07 2550.16 -1224.7 2683.28 -1159.37 2754.46C-1131.4 2784.92 -1098.54 2804.46 -1052.47 2810.66C-1018.28 2815.25 -980.181 2811.13 -939.866 2800.35C-830.614 2771.11 -712.63 2696.91 -642.692 2571.88C-529.744 2369.97 -617.445 2169.11 -527.598 2047.29C-408.37 1885.63 -195.671 2544.18 128.427 2000.19C148.159 1967.08 267.214 1898.18 356.158 1767.85C383.9 1727.01 407.811 1681.6 425.008 1630.95C442.424 1579.64 450.315 1496.7 457.228 1333.16C467.427 1091.71 462.296 1071.09 478.257 998.453C480.045 990.309 481.717 981.836 484.044 973.082C512.038 866.692 576.719 715.303 739.005 525.243" stroke="#F6931D" stroke-width="2" stroke-miterlimit="10"/>
<path d="M-1606.87 2306.32C-1554.15 2316.98 -1463.07 2330.76 -1383.27 2413.07C-1258.79 2542.63 -1223.26 2678.86 -1158.44 2756.27C-1130.96 2789.09 -1098.18 2811.48 -1051.44 2819.91C-1016.83 2826.14 -978.186 2823.9 -937.839 2814.43C-827.931 2788.63 -709.116 2711.01 -640.104 2582.81C-527.176 2373.04 -620.769 2166.3 -532.635 2042.73C-414.353 1876.91 -207.435 2555.4 129.653 2007.58C147.363 1978.81 273.323 1911 363.106 1780.66C390.951 1740.14 414.855 1694.34 431.093 1642.52C447.33 1590.7 452.168 1505.26 457.022 1336.67C464.18 1087.97 456.278 1067.5 470.339 995.112C471.941 986.872 473.59 978.311 475.718 969.42C500.958 864.021 564.08 713.706 730.088 522.047" stroke="#F6931D" stroke-width="2" stroke-miterlimit="10"/>
<path d="M-1600.96 2288.54C-1547.56 2299.89 -1456.81 2314.36 -1378.02 2399.87C-1202.03 2590.88 -1210.69 2793.13 -1050.4 2829.17C-919.476 2858.58 -730.566 2773.22 -637.506 2593.73C-524.691 2376.15 -624.114 2163.48 -537.664 2038.18C-420.365 1868.16 -220.857 2563.63 130.919 2015C151.481 1982.93 372.554 1878.7 437.216 1654.1C452.294 1601.74 454.001 1513.82 456.788 1340.17C460.893 1084.24 450.196 1063.93 462.385 991.773C480.156 886.588 536.822 728.748 721.167 518.875" stroke="#F6931D" stroke-width="2" stroke-miterlimit="10"/>
</svg>
