<svg width="1920" height="2287" viewBox="0 0 1920 2287" fill="none" xmlns="http://www.w3.org/2000/svg">
<path d="M1256.6 2286.53C1270.25 2229.05 1420.37 1902.87 1394.44 1821.61C1365.4 1730.59 1317.96 1722.96 1287.64 1655.09C1227.24 1519.95 1346.17 1436.21 1390.24 1169.87C1408.48 1059.74 1440.11 868.702 1339.31 779.359C1267.14 715.399 1192.69 761.772 1142.61 702.676C1062.56 608.183 1218.79 449.256 1169.97 244.175C1143.96 134.926 1069.72 54.4263 1008.56 2.19778" stroke="#F6931D" stroke-width="2" stroke-miterlimit="10"/>
<path d="M1248.74 2280.68C1255.35 2255.01 1287.83 2178.49 1321.37 2094.32C1365.06 1985.98 1408.34 1866.44 1395.79 1821.05C1383.53 1776.72 1365.54 1752.2 1347.66 1730.27C1329.51 1707.98 1310.7 1688.86 1296.27 1654.65C1263.74 1577.51 1287.92 1516.51 1318.93 1430.12C1342.82 1363.6 1369.06 1286.95 1385.86 1173.36C1402.09 1063.55 1448.47 874.239 1343.91 779.032C1274.53 715.878 1202.06 758.122 1152.3 698.394C1133.25 675.602 1127.14 649.272 1128.4 619.796C1130.4 573.029 1151.6 518.211 1163.49 455.115C1174.4 397.302 1183.39 333.614 1168.27 263.94C1167.28 259.394 1166.11 254.829 1164.92 250.219C1137.43 143.822 1064.28 63.9097 1003.56 8.72598" stroke="#F6931D" stroke-width="2" stroke-miterlimit="10"/>
<path d="M1240.87 2274.83C1248.12 2248.69 1280.54 2172.3 1315.84 2089.32C1361.65 1981.6 1407.68 1865.69 1397.14 1820.49C1386.97 1776.95 1369.9 1752.48 1353.24 1730.19C1336.42 1707.68 1318.47 1688.32 1304.92 1654.2C1274.21 1576.84 1298.84 1514.96 1326.01 1428.99C1347.31 1361.56 1366.88 1289.21 1381.49 1176.84C1395.72 1067.34 1456.87 879.813 1348.53 778.649C1281.88 716.419 1211.48 754.44 1162.02 694.075C1143.19 671.238 1136.55 645.046 1137.11 616.038C1138.02 570.306 1158.06 517.189 1165.37 455.568C1172.08 399.001 1179.73 337.494 1163.52 269.732C1162.46 265.274 1161.13 260.812 1159.86 256.278C1130.94 152.73 1058.82 73.3786 998.548 15.25" stroke="#F6931D" stroke-width="2" stroke-miterlimit="10"/>
<path d="M1233.01 2268.98C1240.89 2242.38 1273.45 2166.2 1310.31 2084.32C1358.48 1977.31 1407.02 1865.03 1398.49 1819.92C1390.39 1777.19 1374.26 1752.78 1358.82 1730.13C1343.38 1707.49 1326.24 1687.8 1313.59 1653.72C1284.72 1576.12 1309.72 1513.29 1333.1 1427.85C1351.83 1359.41 1364.7 1291.44 1377.15 1180.31C1389.35 1071.08 1465.33 885.422 1353.16 778.262C1289.13 717.086 1221.06 750.646 1171.77 689.744C1153.17 666.822 1145.97 640.843 1145.8 612.309C1145.58 567.613 1164.52 516.074 1167.24 456.035C1169.76 400.553 1176.08 341.365 1158.79 275.512C1157.64 271.14 1156.16 266.771 1154.81 262.323C1124.49 161.658 1053.4 82.8719 993.541 21.7796" stroke="#F6931D" stroke-width="2" stroke-miterlimit="10"/>
<path d="M1225.14 2263.12C1233.65 2236.06 1266.37 2160.09 1304.78 2079.32C1355.33 1973.03 1406.37 1864.45 1399.83 1819.36C1393.77 1777.52 1378.63 1753.1 1364.37 1730.06C1350.2 1707.15 1333.99 1687.25 1322.21 1653.29C1295.18 1575.43 1320.46 1511.56 1340.14 1426.73C1356.26 1357.21 1362.46 1293.69 1372.74 1183.8C1382.93 1074.87 1473.75 891.12 1357.74 777.906C1296.24 717.896 1230.47 746.963 1181.46 685.442C1163.13 662.446 1155.36 636.628 1154.51 608.525C1153.18 564.864 1170.96 514.765 1169.11 456.426C1167.42 401.956 1172.39 345.215 1154.05 281.299C1152.84 277.003 1151.18 272.766 1149.76 268.375C1118.07 170.602 1047.95 92.3557 988.54 28.3081" stroke="#F6931D" stroke-width="2" stroke-miterlimit="10"/>
<path d="M1217.28 2257.27C1226.42 2229.73 1259.3 2153.99 1299.25 2074.32C1352.2 1968.74 1405.67 1863.91 1401.18 1818.8C1397.1 1777.87 1382.99 1753.43 1369.94 1729.99C1357.09 1706.91 1341.77 1686.72 1330.84 1652.83C1305.67 1574.7 1331.15 1509.74 1347.2 1425.61C1360.69 1354.91 1360.23 1295.92 1368.35 1187.29C1376.47 1078.65 1482.2 896.844 1362.34 777.533C1303.29 718.771 1239.91 743.267 1191.15 681.147C1173.05 658.092 1164.75 632.448 1163.2 604.797C1160.82 562.218 1177.31 513.378 1171.01 456.908C1165.03 403.201 1168.69 349.065 1149.3 287.095C1147.99 282.902 1146.2 278.757 1144.69 274.435C1111.7 179.551 1042.51 101.838 983.546 34.8145" stroke="#F6931D" stroke-width="2" stroke-miterlimit="10"/>
<path d="M1209.41 2251.42C1219.19 2223.41 1252.24 2147.89 1293.73 2069.31C1349.09 1964.46 1404.95 1863.46 1402.53 1818.24C1400.38 1778.29 1387.35 1753.79 1375.5 1729.92C1363.99 1706.71 1349.54 1686.17 1339.49 1652.38C1316.16 1573.98 1341.73 1507.82 1354.27 1424.47C1365.09 1352.53 1357.96 1298.11 1363.99 1190.75C1370.08 1082.33 1490.68 902.594 1366.95 777.153C1310.28 719.751 1249.35 739.578 1200.85 676.839C1182.98 653.729 1174.17 628.274 1171.9 601.054C1168.45 559.545 1183.52 511.853 1172.89 457.358C1162.54 404.306 1164.99 352.918 1144.57 292.878C1143.17 288.763 1141.23 284.732 1139.64 280.479C1105.38 188.515 1037.06 111.322 978.524 41.3615" stroke="#F6931D" stroke-width="2" stroke-miterlimit="10"/>
<path d="M1201.55 2245.57C1211.94 2217.09 1245.2 2141.79 1288.2 2064.31C1345.99 1960.17 1404.2 1863.07 1403.88 1817.68C1403.58 1778.77 1391.71 1754.16 1381.07 1729.85C1370.85 1706.5 1357.32 1685.63 1348.13 1651.93C1326.67 1573.25 1352.21 1505.83 1361.34 1423.37C1369.44 1350.12 1355.69 1300.34 1359.62 1194.26C1363.62 1086.09 1499.13 908.444 1371.54 776.802C1317.21 720.769 1258.81 735.905 1210.56 672.535C1192.92 649.363 1183.58 624.108 1180.6 597.307C1176.1 556.873 1189.59 510.217 1174.78 457.791C1159.97 405.365 1161.2 356.739 1139.84 298.653C1138.36 294.623 1136.26 290.697 1134.6 286.518C1099.1 197.486 1031.62 120.805 973.519 47.8862" stroke="#F6931D" stroke-width="2" stroke-miterlimit="10"/>
<path d="M1193.68 2239.72C1204.72 2210.77 1238.17 2135.71 1282.67 2059.31C1342.91 1955.9 1403.4 1862.75 1405.22 1817.12C1406.73 1779.25 1396.06 1754.56 1386.64 1729.78C1377.71 1706.32 1365.1 1685.08 1356.77 1651.48C1337.19 1572.5 1362.58 1503.77 1368.39 1422.23C1373.71 1347.6 1353.37 1302.51 1355.22 1197.73C1357.12 1089.78 1507.59 914.296 1376.14 776.435C1324.09 721.85 1268.22 732.206 1220.27 668.231C1202.85 645 1193.01 619.944 1189.28 593.594C1183.78 554.248 1195.47 508.55 1176.65 458.25C1157.19 406.159 1157.42 360.548 1135.08 304.468C1133.51 300.52 1131.27 296.71 1129.52 292.597C1092.88 206.478 1026.17 130.281 968.518 54.4149" stroke="#F6931D" stroke-width="2" stroke-miterlimit="10"/>
<path d="M1185.82 2233.87C1197.49 2204.45 1231.16 2129.61 1277.15 2054.31C1339.86 1951.64 1402.54 1862.47 1406.56 1816.55C1409.78 1779.76 1400.4 1754.95 1392.19 1729.71C1384.55 1706.15 1372.88 1684.52 1365.4 1651.02C1347.71 1571.75 1372.83 1501.65 1375.45 1421.1C1377.92 1345.04 1351.03 1304.69 1350.84 1201.21C1350.64 1093.49 1516.03 920.186 1380.73 776.059C1330.91 722.98 1277.64 728.513 1229.98 663.898C1212.78 640.606 1202.47 615.781 1198 589.804C1191.44 551.566 1201.13 506.79 1178.54 458.67C1154.27 406.975 1153.61 364.336 1130.36 310.208C1128.7 306.343 1126.33 302.649 1124.49 298.601C1086.71 215.46 1020.73 139.764 963.51 60.9434" stroke="#F6931D" stroke-width="2" stroke-miterlimit="10"/>
<path d="M1177.95 2228.02C1190.26 2198.14 1224.16 2123.53 1271.63 2049.3C1336.8 1947.35 1401.62 1862.22 1407.92 1815.98C1412.78 1780.3 1404.73 1755.39 1397.78 1729.64C1391.4 1706 1380.69 1683.96 1374.06 1650.57C1358.27 1571 1382.99 1499.49 1382.52 1419.98C1382.07 1342.44 1348.69 1306.87 1346.47 1204.7C1344.13 1097.2 1524.47 926.14 1385.35 775.698C1337.7 724.175 1287.08 724.843 1239.68 659.619C1222.73 636.293 1211.89 611.646 1206.69 586.09C1199.13 548.954 1206.62 505.11 1180.43 459.151C1151.17 407.837 1149.74 368.188 1125.62 316.016C1123.87 312.234 1121.36 308.656 1119.43 304.678C1080.6 224.44 1015.31 149.265 958.504 67.4686" stroke="#F6931D" stroke-width="2" stroke-miterlimit="10"/>
<path d="M1170.08 2222.16C1183.02 2191.81 1217.18 2117.45 1266.09 2044.3C1333.77 1943.1 1400.61 1862.03 1409.26 1815.43C1415.67 1780.86 1409 1755.82 1403.35 1729.58C1398.21 1705.86 1388.49 1683.42 1382.71 1650.12C1368.82 1570.24 1393.02 1497.31 1389.59 1418.86C1386.14 1339.79 1346.32 1309.03 1342.1 1208.18C1337.61 1100.88 1532.89 932.124 1389.96 775.329C1344.44 725.393 1296.52 721.16 1249.4 655.309C1232.66 631.915 1221.35 607.501 1215.4 582.341C1206.87 546.32 1211.97 503.454 1182.28 459.567C1147.9 408.702 1145.85 371.949 1120.87 321.781C1119.02 318.077 1116.38 314.618 1114.37 310.703C1074.54 233.428 1009.84 158.731 953.502 73.9963" stroke="#F6931D" stroke-width="2" stroke-miterlimit="10"/>
<path d="M1162.22 2216.31C1175.79 2185.5 1210.2 2111.38 1260.57 2039.3C1330.75 1938.85 1399.54 1861.81 1410.61 1814.86C1418.49 1781.42 1413.3 1756.28 1408.91 1729.52C1405.01 1705.75 1396.29 1682.86 1391.33 1649.67C1379.35 1569.49 1402.93 1495.09 1396.64 1417.73C1390.09 1337.13 1343.9 1311.2 1337.72 1211.68C1331.07 1104.59 1541.27 938.176 1394.56 774.977C1351.14 726.678 1305.94 717.507 1259.1 651.021C1242.59 627.573 1230.83 603.384 1224.1 578.618C1214.6 543.727 1217.16 501.884 1184.19 460.049C1144.5 409.698 1141.94 375.777 1116.15 327.586C1114.21 323.962 1111.44 320.621 1109.33 316.769C1068.54 242.411 1004.4 168.21 948.475 80.5116" stroke="#F6931D" stroke-width="2" stroke-miterlimit="10"/>
<path d="M1154.36 2210.46C1168.56 2179.18 1203.24 2105.31 1255.04 2034.29C1327.76 1934.61 1398.37 1861.62 1411.96 1814.3C1421.24 1781.96 1417.57 1756.72 1414.47 1729.45C1411.76 1705.61 1404.1 1682.3 1399.98 1649.22C1389.95 1568.71 1412.75 1492.88 1403.71 1416.61C1393.97 1334.45 1341.48 1313.36 1333.34 1215.15C1324.46 1108.24 1549.61 944.247 1399.16 774.595C1357.8 727.964 1315.34 713.822 1268.8 646.703C1252.51 623.205 1240.3 599.239 1232.78 574.865C1222.35 541.076 1222.28 500.399 1186.06 460.481C1140.97 410.791 1137.98 379.588 1111.41 333.382C1109.38 329.832 1106.49 326.614 1104.28 322.833C1062.61 251.381 998.955 177.694 943.49 87.0506" stroke="#F6931D" stroke-width="2" stroke-miterlimit="10"/>
<path d="M1146.49 2204.61C1161.31 2172.88 1196.28 2099.25 1249.51 2029.29C1324.77 1930.37 1397.11 1861.39 1413.3 1813.74C1423.91 1782.5 1421.81 1757.19 1420.04 1729.38C1418.52 1705.49 1411.92 1681.75 1408.62 1648.77C1400.54 1567.94 1422.48 1490.65 1410.78 1415.49C1397.75 1331.77 1339.03 1315.51 1328.96 1218.63C1317.86 1111.91 1557.9 950.381 1403.76 774.231C1364.43 729.289 1324.76 710.15 1278.51 642.402C1262.43 618.847 1249.8 595.115 1241.48 571.121C1230.15 538.471 1227.33 499.017 1187.94 460.926C1137.35 412.016 1133.97 383.403 1106.67 339.162C1104.53 335.697 1101.51 332.609 1099.22 328.869C1056.75 260.319 993.51 187.177 938.478 93.5918" stroke="#F6931D" stroke-width="2" stroke-miterlimit="10"/>
<path d="M1138.65 2198.78C1154.12 2166.56 1189.36 2093.22 1244 2024.3C1321.81 1926.16 1395.78 1861.15 1414.66 1813.19C1426.54 1783.02 1426.04 1757.65 1425.62 1729.32C1425.26 1705.37 1419.75 1681.19 1417.28 1648.33C1411.14 1567.18 1432.1 1488.43 1417.84 1414.37C1401.42 1329.1 1336.55 1317.67 1324.57 1222.12C1311.22 1115.59 1566.13 956.599 1408.35 773.864C1371.03 730.649 1334.18 706.465 1288.22 638.098C1272.35 614.494 1259.31 590.994 1250.18 567.386C1237.97 535.86 1232.36 497.742 1189.82 461.393C1133.67 413.409 1129.92 387.244 1101.92 344.967C1099.68 341.576 1096.58 338.61 1094.16 334.942C1050.92 269.294 988.061 196.677 933.474 100.125" stroke="#F6931D" stroke-width="2" stroke-miterlimit="10"/>
<path d="M1130.78 2192.92C1146.88 2160.23 1182.43 2087.17 1238.47 2019.3C1318.87 1921.95 1394.33 1860.86 1415.99 1812.61C1429.08 1783.49 1430.21 1758.09 1431.17 1729.24C1431.96 1705.23 1427.56 1680.62 1425.9 1647.87C1421.77 1566.39 1441.64 1486.22 1424.92 1413.25C1405.01 1326.45 1334.05 1319.85 1320.21 1225.61C1304.58 1119.27 1574.35 962.834 1412.97 773.506C1377.64 732.04 1343.59 702.83 1297.94 633.8C1282.29 610.147 1268.84 586.854 1258.89 563.642C1245.82 533.238 1237.4 496.526 1191.69 461.843C1129.96 414.913 1125.82 391.112 1097.18 350.751C1094.83 347.445 1091.61 344.568 1089.1 340.995C1045.17 278.175 982.627 206.14 928.475 106.633" stroke="#F6931D" stroke-width="2" stroke-miterlimit="10"/>
<path d="M1122.9 2187.06C1139.65 2153.92 1175.5 2081.13 1232.94 2014.3C1315.92 1917.74 1392.78 1860.5 1417.35 1812.05C1431.6 1783.96 1434.4 1758.54 1436.75 1729.19C1438.67 1705.11 1435.41 1680.06 1434.56 1647.43C1432.41 1565.63 1451.12 1484.05 1431.98 1412.12C1408.47 1323.82 1331.53 1321.98 1315.83 1229.09C1297.88 1122.93 1582.44 969.14 1417.57 773.11C1384.18 733.403 1352.99 699.14 1307.64 629.468C1292.19 605.756 1278.41 582.706 1267.58 559.875C1253.7 530.595 1242.43 495.417 1193.6 462.249C1126.24 416.544 1121.73 394.931 1092.45 356.517C1090 353.299 1086.67 350.539 1084.05 347.025C1039.46 287.079 977.181 215.623 923.468 113.157" stroke="#F6931D" stroke-width="2" stroke-miterlimit="10"/>
<path d="M1115.03 2181.21C1132.4 2147.58 1168.57 2075.11 1227.4 2009.28C1312.98 1913.55 1391.15 1860.07 1418.69 1811.49C1434.06 1784.37 1438.54 1758.96 1442.31 1729.11C1445.35 1704.96 1443.25 1679.5 1443.19 1646.96C1443.06 1564.84 1460.52 1481.89 1439.04 1410.99C1411.84 1321.23 1328.98 1324.13 1311.44 1232.57C1291.16 1126.61 1590.45 975.528 1422.16 772.764C1390.68 734.831 1362.38 695.503 1317.34 625.182C1302.12 601.434 1287.97 578.599 1276.26 556.154C1261.57 527.986 1247.48 494.411 1195.46 462.721C1122.54 418.29 1117.57 398.805 1087.73 362.315C1085.16 359.175 1081.75 356.511 1079.02 353.083C1033.83 295.955 971.765 225.1 918.479 119.701" stroke="#F6931D" stroke-width="2" stroke-miterlimit="10"/>
<path d="M1107.16 2175.35C1125.17 2141.24 1161.67 2069.08 1221.88 2004.28C1310.05 1909.37 1389.44 1859.56 1420.04 1810.92C1436.5 1784.74 1442.68 1759.38 1447.86 1729.03C1452.01 1704.8 1451.08 1678.94 1451.82 1646.51C1453.71 1564.08 1469.85 1479.78 1446.09 1409.86C1415.1 1318.7 1326.39 1326.29 1307.06 1236.05C1284.42 1130.29 1598.37 982.01 1426.76 772.389C1397.19 736.273 1371.77 691.84 1327.04 620.871C1312.04 597.074 1297.56 574.445 1284.96 552.404C1269.49 525.331 1252.58 493.436 1197.34 463.163C1118.87 420.142 1113.37 402.721 1082.98 368.09C1080.29 365.034 1076.78 362.498 1073.94 359.122C1028.23 304.748 966.291 234.587 913.457 126.212" stroke="#F6931D" stroke-width="2" stroke-miterlimit="10"/>
<path d="M1099.29 2169.49C1117.92 2134.93 1154.74 2063.05 1216.34 1999.27C1307.14 1905.21 1387.64 1858.95 1421.37 1810.35C1438.9 1785.07 1446.77 1759.77 1453.41 1728.99C1458.65 1704.66 1458.91 1678.39 1460.42 1646.07C1464.36 1563.32 1479.11 1477.72 1453.12 1408.74C1418.29 1316.22 1323.8 1328.45 1302.69 1239.54C1277.64 1133.97 1606.16 988.585 1431.37 772.024C1403.66 737.708 1381.16 688.185 1336.75 616.57C1321.96 592.727 1307.16 570.283 1293.66 548.667C1277.43 522.681 1257.73 492.532 1199.23 463.608C1115.22 422.08 1109.17 406.642 1078.23 373.869C1075.41 370.89 1071.85 368.444 1068.88 365.162C1022.66 313.535 960.838 244.059 908.439 132.729" stroke="#F6931D" stroke-width="2" stroke-miterlimit="10"/>
<path d="M1091.42 2163.63C1110.68 2128.6 1147.85 2057.06 1210.8 1994.26C1304.24 1901.06 1385.8 1858.27 1422.71 1809.78C1441.3 1785.36 1450.9 1760.16 1458.99 1728.89C1465.32 1704.46 1466.78 1677.81 1469.1 1645.6C1475.07 1562.54 1488.39 1475.68 1460.21 1407.61C1421.37 1313.8 1321.15 1330.62 1298.29 1243.02C1270.83 1137.68 1613.8 995.272 1435.97 771.66C1410.15 739.189 1390.55 684.529 1346.46 612.262C1331.87 588.361 1316.77 566.106 1302.36 544.924C1285.39 520.002 1262.87 491.634 1201.11 464.058C1111.61 424.086 1104.92 410.594 1073.5 379.664C1070.58 376.815 1066.91 374.446 1063.84 371.221C1017.16 322.287 955.405 253.549 903.451 139.272" stroke="#F6931D" stroke-width="2" stroke-miterlimit="10"/>
<path d="M1083.57 2157.8C1103.47 2122.3 1140.98 2051.08 1205.3 1989.28C1301.37 1896.94 1383.93 1857.48 1424.08 1809.24C1443.71 1785.63 1455 1760.58 1464.57 1728.84C1471.98 1704.29 1474.64 1677.29 1477.75 1645.16C1485.81 1561.81 1497.63 1473.72 1467.29 1406.5C1424.4 1311.47 1318.51 1332.82 1293.93 1246.5C1264 1141.38 1621.25 1002.09 1440.58 771.292C1416.6 740.667 1399.93 680.878 1356.17 607.958C1341.8 584.022 1326.43 561.927 1311.06 541.181C1293.36 517.313 1268.11 490.809 1202.99 464.507C1108.05 426.151 1100.64 414.585 1068.77 385.447C1065.72 382.669 1061.99 380.403 1058.79 377.277C1011.68 330.973 949.96 263.033 898.459 145.808" stroke="#F6931D" stroke-width="2" stroke-miterlimit="10"/>
<path d="M1075.71 2151.95C1096.23 2115.98 1134.1 2045.1 1199.74 1984.27C1298.48 1892.81 1381.96 1856.63 1425.4 1808.67C1446.08 1785.85 1459.06 1760.95 1470.11 1728.78C1478.59 1704.1 1482.5 1676.72 1486.37 1644.71C1496.5 1561.05 1506.8 1471.8 1474.32 1405.37C1427.31 1309.2 1315.82 1335.02 1289.53 1249.98C1257.11 1145.12 1628.46 1009.06 1445.18 770.921C1423.03 742.154 1409.32 677.23 1365.87 603.65C1352.16 580.557 1336.75 558.423 1319.76 537.438C1301.35 514.598 1273.35 490.02 1204.87 464.949C1104.52 428.251 1096.38 418.63 1064.03 391.238C1060.87 388.558 1057.06 386.381 1053.74 383.328C1006.24 339.607 944.517 272.517 893.44 152.322" stroke="#F6931D" stroke-width="2" stroke-miterlimit="10"/>
<path d="M1067.84 2146.09C1089 2109.66 1127.22 2039.13 1194.24 1979.27C1295.62 1888.72 1380.01 1855.65 1426.77 1808.11C1448.5 1786.02 1463.16 1761.3 1475.71 1728.71C1485.25 1703.9 1490.39 1676.17 1495.04 1644.26C1507.26 1560.31 1516.01 1469.93 1481.42 1404.25C1430.21 1307.02 1313.16 1337.23 1285.18 1253.47C1250.24 1148.83 1635.39 1016.22 1449.78 770.556C1429.45 743.647 1418.69 673.582 1375.58 599.345C1362.07 576.083 1346.28 554.095 1328.44 533.716C1309.34 511.879 1278.66 489.214 1206.74 465.415C1101.05 430.377 1092.09 422.701 1059.29 397.022C1056 394.444 1052.11 392.356 1048.68 389.372C1000.81 348.191 939.072 281.999 888.441 158.845" stroke="#F6931D" stroke-width="2" stroke-miterlimit="10"/>
<path d="M1059.98 2140.25C1081.77 2103.34 1120.35 2033.17 1188.72 1974.27C1292.76 1884.63 1378.01 1854.58 1428.12 1807.55C1450.91 1786.15 1467.23 1761.65 1481.27 1728.64C1491.89 1703.68 1498.27 1675.62 1503.68 1643.81C1518.01 1559.58 1525.18 1468.11 1488.51 1403.12C1433.06 1304.9 1310.48 1339.44 1280.83 1256.95C1243.36 1152.6 1642 1023.59 1454.41 770.177C1435.85 745.151 1428.06 669.932 1385.3 595.025C1372 571.571 1355.82 549.702 1337.16 529.939C1317.36 509.097 1284 488.42 1208.65 465.826C1097.6 432.532 1087.79 426.814 1054.58 402.779C1051.16 400.309 1047.22 398.262 1043.65 395.394C995.392 356.711 933.632 291.479 883.431 165.38" stroke="#F6931D" stroke-width="2" stroke-miterlimit="10"/>
<path d="M1052.11 2134.39C1074.54 2097.02 1113.48 2027.21 1183.19 1969.25C1289.91 1880.55 1376 1853.43 1429.47 1806.97C1453.33 1786.24 1471.31 1761.96 1486.85 1728.56C1498.53 1703.45 1506.17 1675.05 1512.33 1643.34C1528.77 1558.84 1534.35 1466.33 1495.55 1401.99C1435.8 1302.87 1307.73 1341.66 1276.43 1260.42C1236.35 1156.37 1648.09 1031.25 1459 769.79C1442.25 746.629 1437.46 666.274 1395.01 590.703C1381.46 566.591 1365.15 544.923 1345.88 526.196C1325.36 506.316 1289.35 487.669 1210.51 466.289C1094.18 434.718 1083.5 430.965 1049.81 408.593C1046.26 406.241 1042.26 404.233 1038.56 401.468C989.974 365.169 928.181 300.958 878.428 171.907" stroke="#F6931D" stroke-width="2" stroke-miterlimit="10"/>
<path d="M1044.25 2128.54C1067.3 2090.71 1106.61 2021.27 1177.66 1964.26C1287.05 1876.51 1373.99 1852.19 1430.79 1806.44C1455.76 1786.33 1475.35 1762.32 1492.37 1728.51C1505.12 1703.23 1514 1674.55 1520.93 1642.91C1539.51 1558.14 1543.48 1464.65 1502.57 1400.89C1438.49 1300.94 1304.94 1343.95 1271.99 1263.95C1229.36 1160.18 1653.61 1039.28 1463.58 769.453C1448.6 748.17 1446.79 662.648 1404.7 586.429C1391.37 562.26 1374.83 540.642 1354.54 522.47C1333.39 503.517 1294.73 486.923 1212.39 466.738C1090.8 436.925 1079.21 435.173 1045.07 414.381C1041.4 412.143 1037.35 410.181 1033.51 407.524C984.561 373.576 922.732 310.438 873.419 178.436" stroke="#F6931D" stroke-width="2" stroke-miterlimit="10"/>
<path d="M1036.38 2122.69C1060.07 2084.38 1099.72 2015.32 1172.13 1959.26C1284.2 1872.45 1371.98 1850.87 1432.14 1805.88C1458.2 1786.39 1479.42 1762.63 1497.96 1728.46C1511.78 1703.01 1521.91 1674.03 1529.59 1642.48C1550.32 1557.44 1552.65 1462.99 1509.66 1399.78C1441.19 1299.1 1302.2 1346.24 1267.65 1267.43C1222.34 1164.03 1658.32 1047.77 1468.17 769.106C1454.93 749.702 1456.14 659.02 1414.39 582.147C1401.25 557.952 1384.51 536.329 1363.22 518.749C1341.36 500.689 1300.13 486.202 1214.26 467.206C1087.45 439.129 1074.97 439.415 1040.36 420.186C1036.57 418.049 1032.45 416.135 1028.49 413.593C979.156 381.927 917.322 319.946 868.438 184.978" stroke="#F6931D" stroke-width="2" stroke-miterlimit="10"/>
<path d="M1028.52 2116.84C1052.84 2078.06 1092.87 2009.4 1166.6 1954.26C1281.37 1868.43 1369.99 1849.5 1433.49 1805.31C1460.67 1786.4 1483.48 1762.92 1503.53 1728.39C1518.41 1702.76 1529.8 1673.49 1538.24 1642.02C1561.1 1556.75 1561.84 1461.39 1516.72 1398.65C1443.86 1297.31 1299.43 1348.54 1263.28 1270.9C1215.31 1167.88 1661.95 1056.8 1472.78 768.738C1461.27 751.2 1465.36 655.434 1424.1 577.834C1411.13 553.616 1394.2 531.959 1371.92 515.001C1349.35 497.826 1305.57 485.461 1216.14 467.652C1084.11 441.363 1070.67 443.68 1035.59 425.973C1031.65 423.99 1027.49 422.069 1023.41 419.628C973.681 390.186 911.859 329.408 863.41 191.486" stroke="#F6931D" stroke-width="2" stroke-miterlimit="10"/>
<path d="M1020.65 2110.99C1045.6 2071.74 1086.11 2003.58 1161.08 1949.26C1278.67 1864.6 1368.02 1848.07 1434.84 1804.75C1463.17 1786.39 1487.55 1763.19 1509.1 1728.32C1525.05 1702.5 1537.69 1672.96 1546.88 1641.57C1571.91 1556.06 1571.02 1459.81 1523.79 1397.52C1446.51 1295.59 1296.65 1350.85 1258.9 1274.38C1208.25 1171.76 1664.02 1066.61 1477.37 768.376C1467.57 752.707 1474.76 651.777 1433.8 573.54C1421.04 549.268 1403.9 527.585 1380.61 511.267C1357.33 494.949 1311.05 484.712 1218.04 468.08C1080.83 443.546 1066.49 447.979 1030.86 431.736C1026.8 429.886 1022.58 427.976 1018.35 425.676C968.193 398.403 906.414 338.892 858.405 198.019" stroke="#F6931D" stroke-width="2" stroke-miterlimit="10"/>
<path d="M1012.79 2105.13C1038.38 2065.42 1079.14 1997.57 1155.55 1944.25C1326.21 1825.17 1436.77 1847.29 1514.68 1728.23C1578.3 1631 1598.28 1480.88 1530.87 1396.38C1449.16 1293.94 1293.87 1353.17 1254.54 1277.85C1201.17 1175.66 1663.82 1077.44 1482 767.981C1471.37 749.893 1492.3 573.885 1389.33 507.502C1365.32 492.023 1316.52 483.976 1219.92 468.525C1077.56 445.757 1062.29 452.327 1026.12 437.523C973.396 415.942 905.065 360.761 853.415 204.554" stroke="#F6931D" stroke-width="2" stroke-miterlimit="10"/>
</svg>
