<svg width="1920" height="3318" viewBox="0 0 1920 3318" fill="none" xmlns="http://www.w3.org/2000/svg">
<path d="M-1071 2035.66C-987.889 2046.57 -515.097 2217.31 -398.358 2165.05C-267.591 2106.51 -257.369 2034.24 -160.013 1977.62C33.8504 1864.85 156.554 2029 541.33 2050.9C700.419 2059.97 976.402 2075.7 1103.56 1910.03C1194.59 1791.43 1126.49 1687.65 1210.88 1602.92C1345.8 1467.45 1577.54 1675.01 1872.44 1567.99C2029.54 1510.97 2144.38 1386.53 2218.68 1286.33" stroke="#F6931D" stroke-width="2" stroke-miterlimit="10"/>
<path d="M-1062.69 2022.92C-1025.58 2028.57 -914.692 2064.52 -792.786 2100.79C-635.841 2148.26 -462.765 2193.27 -397.528 2166.97C-333.807 2141.28 -298.75 2110.29 -267.421 2079.9C-235.585 2049.04 -208.321 2017.73 -159.235 1990.46C-48.5386 1929 39.8157 1955.1 164.894 1987.23C261.197 2011.97 372.153 2038.57 536.215 2044.91C694.817 2051.04 968.555 2089.12 1104.11 1916.86C1194.02 1802.56 1131.91 1701.07 1217.21 1616.71C1249.76 1584.43 1287.62 1570.92 1330.15 1567.93C1397.61 1563.18 1477.01 1585.84 1568.18 1593.2C1651.72 1599.97 1743.7 1602.87 1843.91 1568.71C1850.45 1566.48 1857.02 1563.97 1863.64 1561.43C2016.6 1502.68 2130.62 1379.95 2209.18 1279.92" stroke="#F6931D" stroke-width="2" stroke-miterlimit="10"/>
<path d="M-1054.38 2010.18C-1016.58 2016.7 -905.9 2052.6 -785.664 2091.69C-629.583 2142.44 -461.697 2192.16 -396.696 2168.9C-334.082 2146.47 -299.084 2116.87 -267.218 2088.24C-235.033 2059.33 -207.419 2029.27 -158.44 2003.34C-47.4108 1944.57 42.2273 1971.19 166.632 1997.63C264.217 2018.36 368.857 2035.68 531.121 2038.95C689.249 2042.14 960.656 2102.63 1104.73 1923.72C1193.36 1813.65 1137.38 1714.57 1223.6 1630.55C1256.22 1598.58 1293.87 1584.3 1335.71 1580.35C1401.67 1574.13 1478.58 1595.35 1567.56 1596.09C1649.23 1596.77 1738.05 1598.05 1835.48 1562.57C1841.89 1560.24 1848.31 1557.51 1854.82 1554.87C2003.65 1494.44 2116.87 1373.34 2199.69 1273.51" stroke="#F6931D" stroke-width="2" stroke-miterlimit="10"/>
<path d="M-1046.08 1997.44C-1007.59 2004.83 -897.213 2040.96 -778.543 2082.59C-623.457 2136.98 -460.746 2191.06 -395.856 2170.82C-334.374 2151.63 -299.439 2123.44 -267.043 2096.58C-234.646 2069.72 -206.537 2040.82 -157.615 2016.23C-46.1994 1960.18 44.8073 1987.2 168.395 2008.06C267.387 2024.76 365.605 2032.79 526.058 2033.02C683.751 2033.21 952.707 2116.22 1105.37 1930.59C1192.52 1824.61 1143 1728.27 1230 1644.41C1262.75 1612.79 1300.09 1597.71 1341.23 1592.73C1405.67 1585.01 1480.3 1604.82 1566.91 1598.96C1646.95 1593.55 1732.4 1593.21 1827.07 1556.43C1833.35 1553.99 1839.63 1551.06 1846.02 1548.29C1990.67 1486.25 2103.1 1366.8 2190.2 1267.09" stroke="#F6931D" stroke-width="2" stroke-miterlimit="10"/>
<path d="M-1037.77 1984.69C-998.6 1992.96 -888.519 2029.35 -771.424 2073.49C-617.335 2131.56 -459.922 2189.99 -395.025 2172.74C-334.794 2156.74 -299.828 2130.04 -266.839 2104.88C-234.04 2079.88 -205.621 2052.33 -156.843 2029.06C-45.0225 1975.72 47.486 2002.99 170.122 2018.41C270.638 2031.04 362.327 2029.81 520.946 2027.01C678.181 2024.23 944.634 2129.77 1105.96 1937.38C1191.47 1835.39 1148.47 1741.76 1236.37 1658.21C1269.22 1626.97 1306.32 1611.07 1346.83 1605.15C1409.76 1595.93 1482.29 1614.25 1566.38 1601.83C1644.89 1590.29 1726.79 1588.34 1818.65 1550.3C1824.82 1547.77 1830.91 1544.6 1837.21 1541.74C1977.67 1478.13 2089.33 1360.22 2180.7 1260.69" stroke="#F6931D" stroke-width="2" stroke-miterlimit="10"/>
<path d="M-1029.46 1971.96C-989.603 1981.09 -879.849 2017.76 -764.302 2064.38C-611.199 2126.17 -459.156 2188.85 -394.188 2174.66C-335.24 2161.78 -300.234 2136.61 -266.652 2113.2C-233.59 2090.16 -204.72 2063.87 -156.041 2041.91C-43.8077 1991.3 50.2855 2018.7 171.863 2028.79C274.018 2037.29 359.072 2026.84 515.848 2021.02C672.625 2015.2 936.518 2143.37 1106.57 1944.2C1190.32 1846.1 1153.95 1755.28 1242.72 1672C1275.66 1641.1 1312.5 1624.44 1352.35 1617.54C1413.7 1606.93 1484.4 1623.52 1565.72 1604.75C1643.06 1586.91 1721.18 1583.44 1810.21 1544.16C1816.24 1541.5 1822.18 1538.13 1828.39 1535.16C1964.66 1470.07 2075.57 1353.64 2171.24 1254.29" stroke="#F6931D" stroke-width="2" stroke-miterlimit="10"/>
<path d="M-1021.15 1959.21C-980.598 1969.22 -871.169 2006.19 -757.172 2055.28C-605.071 2120.8 -458.517 2187.7 -393.362 2176.59C-335.791 2166.77 -300.676 2143.21 -266.452 2121.52C-233.183 2100.45 -203.8 2075.42 -155.247 2054.78C-42.5898 2006.89 53.233 2034.22 173.619 2039.2C277.527 2043.49 355.886 2023.8 510.779 2015.06C667.207 2006.23 928.368 2157.01 1107.2 1951.04C1189.03 1856.71 1159.43 1768.79 1249.09 1685.82C1282.12 1655.25 1318.68 1637.84 1357.89 1629.94C1417.68 1617.9 1486.7 1632.57 1565.1 1607.64C1641.43 1583.37 1715.56 1578.53 1801.8 1538.03C1807.71 1535.26 1813.49 1531.68 1819.59 1528.61C1951.63 1462.09 2061.81 1347.06 2161.71 1247.86" stroke="#F6931D" stroke-width="2" stroke-miterlimit="10"/>
<path d="M-1012.85 1946.47C-971.61 1957.32 -862.493 1994.64 -750.056 2046.19C-598.948 2115.45 -457.979 2186.51 -392.526 2178.52C-336.429 2171.63 -301.146 2149.79 -266.265 2129.84C-232.768 2110.68 -202.893 2086.97 -154.454 2067.64C-41.3596 2022.5 56.2747 2049.57 175.321 2049.6C281.076 2049.59 352.629 2020.77 505.643 2009.09C661.689 1997.18 920.072 2170.62 1107.78 1957.86C1187.67 1867.26 1164.88 1782.34 1255.46 1699.64C1288.58 1669.39 1324.84 1651.24 1363.44 1642.35C1421.66 1628.92 1489.16 1641.38 1564.51 1610.54C1639.86 1579.7 1709.99 1573.49 1793.39 1531.91C1799.18 1529.02 1804.8 1525.24 1810.8 1522.05C1938.59 1454.19 2048.04 1340.48 2152.22 1241.45" stroke="#F6931D" stroke-width="2" stroke-miterlimit="10"/>
<path d="M-1004.54 1933.73C-962.623 1945.47 -853.839 1983.11 -742.934 2037.08C-592.838 2110.13 -457.525 2185.26 -391.697 2180.44C-337.065 2176.42 -301.644 2156.37 -266.079 2138.16C-232.393 2120.92 -201.978 2098.54 -153.664 2080.5C-40.1108 2038.12 59.411 2064.76 177.076 2059.96C284.777 2055.57 349.454 2017.65 500.565 2003.09C656.257 1988.07 911.774 2184.26 1108.38 1964.68C1186.23 1877.74 1170.37 1795.82 1261.82 1713.45C1295.03 1683.54 1331 1664.67 1368.93 1654.72C1425.57 1639.97 1491.66 1649.92 1563.88 1613.42C1638.66 1575.66 1704.43 1568.47 1784.93 1525.74C1790.59 1522.74 1796.05 1518.76 1801.95 1515.46C1925.52 1446.36 2034.29 1333.9 2142.73 1235.04" stroke="#F6931D" stroke-width="2" stroke-miterlimit="10"/>
<path d="M-996.233 1920.99C-953.631 1933.6 -845.161 1971.62 -735.816 2027.98C-586.75 2104.86 -457.137 2183.93 -390.849 2182.35C-337.757 2181.08 -302.133 2162.93 -265.881 2146.47C-232.027 2131.13 -201.041 2110.08 -152.861 2093.35C-38.8537 2053.75 62.6352 2079.74 178.823 2070.33C288.548 2061.44 346.278 2014.51 495.48 1997.1C650.799 1978.97 903.421 2197.87 1109 1971.5C1184.71 1888.13 1175.85 1809.32 1268.23 1727.27C1301.53 1697.67 1337.16 1678.14 1374.54 1667.14C1429.57 1651 1494.29 1658.09 1563.3 1616.32C1637.44 1571.43 1698.91 1563.39 1776.57 1519.63C1782.12 1516.51 1787.41 1512.34 1793.21 1508.92C1912.47 1438.61 2020.52 1327.32 2133.23 1228.63" stroke="#F6931D" stroke-width="2" stroke-miterlimit="10"/>
<path d="M-987.927 1908.25C-944.639 1921.72 -836.505 1960.13 -728.68 2018.89C-580.605 2099.58 -456.794 2182.52 -390.009 2184.29C-338.483 2185.66 -302.692 2169.48 -265.69 2154.82C-231.705 2141.35 -200.104 2121.67 -152.059 2106.23C-37.5909 2069.42 65.9181 2094.59 180.555 2080.73C292.361 2067.23 343.091 2011.38 490.375 1991.14C645.349 1969.85 894.976 2211.49 1109.6 1978.34C1183.1 1898.49 1181.3 1822.83 1274.57 1741.09C1307.92 1711.86 1343.28 1691.55 1380.04 1679.54C1433.46 1662.08 1496.81 1666.04 1562.64 1619.22C1636.15 1566.93 1693.29 1558.23 1768.12 1513.5C1773.55 1510.24 1778.66 1505.89 1784.37 1502.35C1899.42 1430.95 2006.74 1320.78 2123.74 1222.21" stroke="#F6931D" stroke-width="2" stroke-miterlimit="10"/>
<path d="M-979.617 1895.51C-935.642 1909.85 -827.853 1948.67 -721.571 2009.78C-574.533 2094.33 -456.535 2180.97 -389.192 2186.21C-339.247 2190.08 -303.25 2175.96 -265.507 2163.15C-231.389 2151.53 -199.191 2133.27 -151.272 2119.1C-36.3229 2085.1 69.2342 2109.25 182.299 2091.14C296.244 2072.88 339.937 2008.19 485.292 1985.18C639.935 1960.7 886.486 2225.08 1110.21 1985.19C1181.46 1908.79 1186.77 1836.35 1280.94 1754.92C1314.39 1725.99 1349.41 1705.03 1385.59 1691.95C1437.39 1673.22 1499.28 1673.77 1562.07 1622.07C1634.84 1562.18 1687.8 1553.04 1759.73 1507.34C1765.04 1503.96 1769.98 1499.43 1775.59 1495.77C1886.36 1423.37 1993 1314.16 2114.24 1215.81" stroke="#F6931D" stroke-width="2" stroke-miterlimit="10"/>
<path d="M-971.312 1882.77C-926.655 1897.99 -819.211 1937.22 -714.447 2000.68C-568.451 2089.12 -456.238 2179.33 -388.355 2188.13C-339.999 2194.4 -303.838 2182.47 -265.322 2171.46C-231.118 2161.69 -198.263 2144.85 -150.488 2131.94C-35.0765 2100.74 72.59 2123.71 184.032 2101.5C300.145 2078.35 336.774 2004.93 480.167 1979.21C634.473 1951.52 877.897 2238.62 1110.79 1992.01C1179.71 1919.03 1192.19 1849.85 1287.28 1768.74C1320.82 1740.14 1355.5 1718.53 1391.1 1704.36C1441.25 1684.37 1501.63 1681.27 1561.41 1625C1633.35 1557.26 1682.22 1547.82 1751.28 1501.23C1756.47 1497.72 1761.25 1493.03 1766.77 1489.23C1873.31 1415.88 1979.24 1307.58 2104.77 1209.36" stroke="#F6931D" stroke-width="2" stroke-miterlimit="10"/>
<path d="M-963.008 1870.03C-917.661 1886.1 -810.585 1925.79 -707.326 1991.58C-562.388 2083.94 -455.974 2177.55 -387.526 2190.05C-340.745 2198.59 -304.404 2188.93 -265.13 2179.77C-230.809 2171.78 -197.326 2156.45 -149.696 2144.8C-33.7732 2116.47 75.9521 2138.05 185.767 2111.89C304.072 2083.71 333.615 2001.66 475.091 1973.21C629.099 1942.24 869.281 2252.1 1111.42 1998.82C1177.97 1929.2 1197.66 1863.32 1293.67 1782.54C1327.28 1754.26 1361.63 1732.02 1396.66 1716.74C1445.2 1695.53 1503.85 1688.69 1560.81 1627.87C1631.72 1552.16 1676.66 1542.51 1742.84 1495.1C1747.93 1491.47 1752.52 1486.61 1757.94 1482.67C1860.27 1408.48 1965.47 1301 2095.25 1202.98" stroke="#F6931D" stroke-width="2" stroke-miterlimit="10"/>
<path d="M-954.697 1857.28C-908.699 1874.22 -801.961 1914.38 -700.208 1982.48C-556.33 2078.76 -455.671 2175.63 -386.689 2191.98C-341.467 2202.69 -305.009 2195.35 -264.942 2188.09C-230.515 2181.87 -196.393 2168.06 -148.903 2157.67C-32.4854 2132.2 79.3265 2152.24 187.504 2122.29C308 2088.93 330.47 1998.35 469.996 1967.24C623.695 1932.96 860.574 2265.54 1112.02 2005.65C1176.17 1939.35 1203.11 1876.8 1300.03 1796.36C1333.73 1768.4 1367.74 1745.56 1402.2 1729.14C1449.09 1706.78 1505.93 1696.03 1560.2 1630.76C1629.89 1546.95 1671.09 1537.15 1734.43 1488.95C1739.39 1485.18 1743.8 1480.15 1749.15 1476.1C1847.29 1401.19 1951.71 1294.42 2085.74 1196.56" stroke="#F6931D" stroke-width="2" stroke-miterlimit="10"/>
<path d="M-946.417 1844.58C-899.701 1862.41 -793.378 1903.02 -693.101 1973.4C-550.301 2073.64 -455.345 2173.58 -385.874 2193.92C-342.177 2206.7 -305.605 2201.76 -264.77 2196.44C-230.242 2191.95 -195.469 2179.69 -148.121 2170.55C-31.2169 2147.93 82.6801 2166.27 189.24 2132.68C311.913 2093.99 327.324 1994.99 464.891 1961.25C618.283 1923.64 851.744 2278.89 1112.62 2012.47C1174.32 1949.46 1208.58 1890.3 1306.4 1810.18C1340.17 1782.53 1373.84 1759.12 1407.73 1741.54C1452.98 1718.05 1507.85 1703.35 1559.56 1633.65C1627.82 1541.66 1665.49 1531.72 1725.98 1482.82C1730.84 1478.9 1735.06 1473.77 1740.31 1469.53C1834.25 1393.94 1937.92 1287.84 2076.24 1190.15" stroke="#F6931D" stroke-width="2" stroke-miterlimit="10"/>
<path d="M-938.101 1831.83C-890.704 1850.52 -784.772 1891.65 -685.982 1964.3C-544.279 2068.53 -454.945 2171.38 -385.017 2195.81C-342.814 2210.59 -306.164 2208.08 -264.562 2204.73C-229.924 2201.95 -194.508 2191.29 -147.313 2183.38C-29.9052 2163.71 86.0275 2180.19 190.967 2143.08C315.793 2098.92 324.135 1991.61 459.788 1955.3C612.871 1914.3 842.89 2292.22 1113.22 2019.33C1172.42 1959.57 1213.98 1903.78 1312.76 1824.02C1346.6 1796.69 1379.97 1772.69 1413.27 1753.95C1456.9 1729.36 1509.69 1710.68 1558.94 1636.53C1625.59 1536.35 1659.84 1526.21 1717.57 1476.68C1722.29 1472.61 1726.39 1467.31 1731.5 1462.96C1821.35 1386.82 1924.19 1281.27 2066.77 1183.75" stroke="#F6931D" stroke-width="2" stroke-miterlimit="10"/>
<path d="M-929.785 1819.08C-881.717 1838.66 -776.179 1880.27 -678.854 1955.19C-538.265 2063.41 -454.455 2169 -384.194 2197.76C-343.456 2214.43 -306.75 2214.42 -264.389 2213.08C-229.633 2211.97 -193.58 2202.95 -146.534 2196.27C-28.6249 2179.52 89.3113 2194.03 192.709 2153.46C319.644 2103.66 321.023 1988.19 454.698 1949.32C607.482 1904.88 833.932 2305.38 1113.86 2026.15C1170.56 1969.59 1219.45 1917.24 1319.16 1837.83C1353.1 1810.78 1386.11 1786.33 1418.85 1766.34C1460.84 1740.72 1511.37 1718.03 1558.39 1639.45C1623.18 1531.07 1654.27 1520.74 1709.17 1470.55C1713.77 1466.34 1717.7 1460.91 1722.72 1456.41C1808.42 1379.74 1910.42 1274.69 2057.28 1177.33" stroke="#F6931D" stroke-width="2" stroke-miterlimit="10"/>
<path d="M-921.471 1806.32C-872.696 1826.75 -767.604 1868.9 -671.716 1946.07C-532.267 2058.32 -453.856 2166.48 -383.355 2199.67C-343.994 2218.19 -307.292 2220.69 -264.186 2221.39C-229.309 2221.94 -192.639 2214.58 -145.721 2209.11C-27.3188 2195.32 92.5774 2207.73 194.461 2163.84C323.432 2108.28 317.886 1984.72 449.61 1943.32C602.067 1895.44 824.853 2318.41 1114.44 2032.96C1168.61 1979.55 1224.85 1930.69 1325.5 1851.63C1359.49 1824.92 1392.19 1799.96 1424.36 1778.72C1464.73 1752.07 1512.91 1725.42 1557.74 1642.32C1620.6 1525.81 1648.61 1515.15 1700.74 1464.44C1705.22 1460.07 1709.01 1454.53 1713.9 1449.87C1795.53 1372.78 1896.67 1268.15 2047.76 1170.95" stroke="#F6931D" stroke-width="2" stroke-miterlimit="10"/>
<path d="M-913.156 1793.57C-863.674 1814.89 -759.022 1857.57 -664.594 1936.97C-526.289 2053.25 -453.156 2163.84 -382.513 2201.58C-344.492 2221.89 -307.831 2226.95 -263.983 2229.69C-228.971 2231.88 -191.692 2226.21 -144.925 2221.96C-26.0326 2211.14 95.7802 2221.35 196.206 2174.21C327.142 2112.74 314.732 1981.2 444.525 1937.34C596.651 1885.94 815.639 2331.35 1115.05 2039.78C1166.64 1989.55 1230.29 1944.14 1331.88 1865.44C1365.95 1839.05 1398.33 1813.62 1429.91 1791.12C1468.69 1763.49 1514.4 1732.89 1557.14 1645.2C1617.87 1520.61 1642.9 1509.5 1692.33 1458.28C1696.69 1453.75 1700.29 1448.08 1705.11 1443.27C1782.76 1365.84 1882.9 1261.52 2038.29 1164.5" stroke="#F6931D" stroke-width="2" stroke-miterlimit="10"/>
<path d="M-904.841 1780.82C-854.699 1802.98 -750.445 1846.2 -657.462 1927.85C-520.332 2048.2 -452.306 2161.04 -381.674 2203.49C-344.931 2225.55 -308.326 2233.14 -263.823 2237.98C-228.659 2241.8 -190.78 2237.84 -144.146 2234.76C-24.7644 2226.95 98.9067 2234.87 197.929 2184.55C330.758 2117.11 311.572 1977.69 439.424 1931.38C591.231 1876.41 806.285 2344.1 1115.66 2046.62C1164.68 1999.47 1235.71 1957.6 1338.24 1879.26C1372.37 1853.18 1404.49 1827.31 1435.44 1803.53C1472.64 1774.94 1515.79 1740.45 1556.52 1648.1C1615.01 1515.48 1637.17 1503.86 1683.92 1452.13C1688.17 1447.41 1691.64 1441.68 1696.32 1436.69C1770 1358.96 1869.15 1254.93 2028.81 1158.08" stroke="#F6931D" stroke-width="2" stroke-miterlimit="10"/>
<path d="M-896.526 1768.07C-845.696 1791.1 -741.919 1834.9 -650.335 1918.74C-514.401 2043.17 -451.358 2158.18 -380.832 2205.4C-345.308 2229.19 -308.82 2239.38 -263.599 2246.32C-228.262 2251.75 -189.815 2249.52 -143.331 2247.66C-23.4667 2242.86 101.992 2248.43 199.688 2194.97C334.308 2121.31 308.401 1974.08 434.329 1925.36C585.764 1866.82 796.771 2356.63 1116.26 2053.45C1162.65 2009.43 1241.14 1971.04 1344.61 1893.08C1378.84 1867.29 1410.67 1841 1440.98 1815.93C1476.63 1786.4 1517.16 1748 1555.91 1650.99C1612.06 1510.41 1631.41 1498.16 1675.49 1446.01C1679.54 1441.17 1682.9 1435.29 1687.5 1430.15C1757.29 1352.18 1855.38 1248.37 2019.29 1151.69" stroke="#F6931D" stroke-width="2" stroke-miterlimit="10"/>
<path d="M-888.24 1755.36C-836.725 1779.26 -733.418 1823.63 -643.237 1909.67C-508.505 2038.19 -450.24 2155.24 -380.021 2207.35C-345.655 2232.84 -309.347 2245.59 -263.431 2254.67C-227.912 2261.69 -188.925 2261.21 -142.553 2260.55C-22.234 2258.81 104.976 2261.93 201.398 2205.39C337.716 2125.46 305.175 1970.5 429.237 1919.42C580.317 1857.22 787.065 2368.91 1116.86 2060.28C1160.63 2019.32 1246.56 1984.48 1350.98 1906.9C1385.25 1881.43 1416.86 1854.78 1446.52 1828.33C1480.64 1797.89 1518.44 1755.71 1555.29 1653.88C1609.03 1505.42 1625.58 1492.41 1667.07 1439.88C1671.02 1434.87 1674.23 1428.9 1678.68 1423.59C1744.67 1345.42 1841.61 1241.79 2009.79 1145.3" stroke="#F6931D" stroke-width="2" stroke-miterlimit="10"/>
<path d="M-879.936 1742.62C-827.734 1767.39 -724.908 1812.34 -636.115 1900.52C-502.595 2033.19 -449.048 2152.15 -379.185 2209.24C-345.93 2236.42 -309.814 2251.72 -263.244 2262.95C-227.525 2271.56 -187.981 2272.87 -141.76 2273.37C-20.965 2274.69 107.896 2275.34 203.139 2215.73C341.033 2129.44 301.966 1966.83 424.142 1913.41C574.806 1847.52 777.133 2380.86 1117.47 2067.1C1158.59 2029.2 1251.97 1997.92 1357.35 1920.72C1390.42 1896.37 1422.08 1869.63 1452.06 1840.73C1484.69 1809.4 1519.67 1763.42 1554.68 1656.77C1605.94 1500.49 1619.68 1486.7 1658.64 1433.75C1662.45 1428.57 1665.53 1422.51 1669.87 1417.04C1732.13 1338.7 1827.85 1235.21 2000.31 1138.86" stroke="#F6931D" stroke-width="2" stroke-miterlimit="10"/>
<path d="M-871.625 1729.87C-818.736 1755.52 -716.409 1801.06 -628.991 1891.47C-496.748 2028.23 -447.673 2149.07 -378.349 2211.2C-346.141 2240.07 -310.259 2257.93 -263.05 2271.32C-227.129 2281.49 -187.056 2284.6 -140.967 2286.28C-19.7161 2290.67 110.748 2288.81 204.875 2226.16C344.228 2133.43 298.735 1963.21 419.045 1907.47C569.339 1837.86 766.924 2392.42 1118.08 2073.93C1156.54 2039.04 1257.39 2011.35 1363.72 1934.53C1397.04 1910.46 1428.48 1883.18 1457.57 1853.11C1488.74 1820.91 1520.91 1771.23 1554.04 1659.64C1602.82 1495.64 1613.74 1480.96 1650.22 1427.61C1653.88 1422.26 1656.83 1416.09 1661.08 1410.46C1719.66 1331.99 1814.08 1228.63 1990.82 1132.46" stroke="#F6931D" stroke-width="2" stroke-miterlimit="10"/>
<path d="M-863.319 1717.14C-809.743 1743.64 -707.924 1789.78 -621.867 1882.37C-490.906 2023.27 -446.161 2145.91 -377.517 2213.13C-346.292 2243.69 -310.688 2264.08 -262.856 2279.63C-226.702 2291.39 -186.134 2296.3 -140.175 2299.13C-18.4849 2306.64 113.52 2302.23 206.63 2236.6C347.333 2137.33 295.502 1959.56 413.962 1901.54C563.791 1828.18 756.404 2403.54 1118.7 2080.81C1154.48 2048.87 1262.81 2024.77 1370.11 1948.36C1403.71 1924.57 1434.97 1896.75 1463.16 1865.54C1492.89 1832.45 1522.15 1779.1 1553.48 1662.57C1599.65 1490.84 1607.74 1475.21 1641.84 1421.51C1645.35 1415.98 1648.24 1409.75 1652.31 1403.93C1707.29 1325.3 1800.33 1222.05 1981.32 1126.04" stroke="#F6931D" stroke-width="2" stroke-miterlimit="10"/>
<path d="M-855.009 1704.39C-800.757 1731.78 -699.453 1778.51 -614.727 1873.28C-485.063 2018.34 -444.533 2142.71 -376.662 2215.06C-346.382 2247.35 -311.075 2270.24 -262.65 2287.97C-226.252 2301.3 -185.187 2308.02 -139.363 2312.01C-17.2416 2322.63 116.233 2315.67 208.373 2246.95C350.304 2141.11 292.25 1955.83 408.877 1895.52C558.248 1818.32 745.458 2413.92 1119.33 2087.61C1152.45 2058.7 1268.24 2038.23 1376.5 1962.18C1411.04 1937.92 1442.02 1909.91 1468.7 1877.97C1497.03 1843.97 1523.32 1786.98 1552.84 1665.43C1596.44 1486.08 1601.68 1469.47 1633.38 1415.34C1636.71 1409.64 1639.54 1403.32 1643.47 1397.33C1695 1318.59 1786.57 1215.47 1971.83 1119.64" stroke="#F6931D" stroke-width="2" stroke-miterlimit="10"/>
<path d="M-846.704 1691.65C-791.779 1719.89 -690.993 1767.24 -607.629 1864.17C-479.281 2013.38 -442.785 2139.49 -375.883 2216.95C-346.468 2250.99 -311.523 2276.34 -262.495 2296.22C-225.835 2311.13 -184.327 2319.66 -138.597 2324.8C-16.0617 2338.58 118.807 2329.06 210.077 2257.28C353.124 2144.81 288.902 1952.02 403.713 1889.47C552.638 1808.48 733.969 2423.52 1119.9 2094.41C1150.34 2068.46 1273.62 2051.6 1382.82 1975.98C1417.45 1952.03 1448.35 1923.7 1474.22 1890.31C1501.2 1855.52 1524.48 1794.92 1552.23 1668.32C1593.2 1481.39 1595.54 1463.75 1624.96 1409.21C1628.12 1403.34 1630.88 1396.95 1634.65 1390.77C1682.79 1311.88 1772.81 1208.88 1962.33 1113.22" stroke="#F6931D" stroke-width="2" stroke-miterlimit="10"/>
<path d="M-838.398 1678.91C-782.768 1708.03 -682.528 1755.95 -600.505 1855.06C-473.485 2008.44 -440.92 2136.27 -375.045 2218.87C-346.515 2254.65 -311.911 2282.49 -262.326 2304.58C-225.404 2321.05 -183.445 2331.42 -137.823 2337.7C-14.8723 2354.65 121.355 2342.51 211.795 2267.7C355.835 2148.55 285.553 1948.3 398.63 1883.55C546.965 1798.6 721.811 2431.96 1120.47 2101.22C1148.23 2078.19 1279.01 2064.99 1389.16 1989.78C1423.83 1966.11 1454.73 1937.47 1479.73 1902.7C1505.41 1866.98 1525.61 1802.88 1551.59 1671.2C1589.97 1476.73 1589.35 1458.1 1616.51 1403.11C1619.53 1397.09 1622.22 1390.6 1625.82 1384.25C1670.66 1305.17 1759.01 1202.35 1952.81 1106.85" stroke="#F6931D" stroke-width="2" stroke-miterlimit="10"/>
<path d="M-830.088 1666.17C-773.777 1696.16 -674.109 1744.72 -593.383 1845.96C-467.736 2003.54 -438.967 2133.05 -374.208 2220.8C-346.487 2258.35 -312.257 2288.6 -262.132 2312.9C-224.926 2330.94 -182.539 2343.14 -137.03 2350.56C-13.6989 2370.68 123.811 2355.99 213.543 2278.08C358.458 2152.25 282.205 1944.53 393.546 1877.57C541.296 1788.72 708.845 2438.89 1121.08 2108.06C1146.18 2087.92 1284.33 2078.21 1395.54 2003.6C1430.24 1980.17 1461.19 1951.26 1485.28 1915.1C1509.67 1878.47 1526.77 1810.89 1550.97 1674.08C1586.7 1472.1 1583.13 1452.37 1608.09 1396.92C1610.88 1390.7 1613.58 1384.16 1617.03 1377.64C1658.66 1298.34 1745.28 1195.74 1943.35 1100.4" stroke="#F6931D" stroke-width="2" stroke-miterlimit="10"/>
<path d="M-821.782 1653.43C-764.785 1684.28 -665.834 1733.64 -586.259 1836.86C-462.255 1998.87 -436.934 2129.87 -373.365 2222.73C-346.426 2262.09 -312.576 2294.74 -261.938 2321.23C-224.442 2340.83 -181.638 2354.87 -136.226 2363.42C-12.5215 2386.75 126.252 2369.48 215.285 2288.48C360.974 2155.93 278.826 1940.76 388.457 1871.6C535.588 1778.79 694.745 2443.61 1121.68 2114.87C1144.11 2097.61 1289.76 2091.67 1401.89 2017.41C1436.68 1994.3 1467.66 1965.04 1490.8 1927.49C1513.95 1889.94 1527.94 1818.97 1550.39 1676.99C1583.5 1467.56 1576.87 1446.82 1599.7 1390.8C1602.3 1384.42 1604.98 1377.79 1608.23 1371.08C1646.73 1291.48 1731.51 1189.16 1933.84 1093.99" stroke="#F6931D" stroke-width="2" stroke-miterlimit="10"/>
<path d="M-813.473 1640.68C-755.789 1672.42 -657.279 1722.21 -579.138 1827.76C-404.618 2063.5 -434.676 2232.65 -261.726 2329.57C-120.473 2408.71 96.3105 2413.77 217.04 2298.88C363.395 2159.62 275.427 1936.97 383.379 1865.64C529.852 1768.84 679.123 2445.1 1122.32 2121.73C1148.23 2102.83 1402.36 2105.04 1496.38 1939.91C1518.3 1901.42 1529.09 1827.03 1549.78 1679.89C1580.25 1463.02 1570.53 1441.26 1591.27 1384.67C1621.52 1302.17 1699.96 1190.76 1924.34 1087.6" stroke="#F6931D" stroke-width="2" stroke-miterlimit="10"/>
</svg>
