<svg width="1920" height="3702" viewBox="0 0 1920 3702" fill="none" xmlns="http://www.w3.org/2000/svg">
<path d="M3413.54 2259.65C3333.19 2272.37 2922.36 2465.83 2780.72 2408.37C2622.07 2344.01 2580.85 2263.55 2457.18 2201.1C2210.91 2076.74 2155.31 2260.5 1771.13 2287.5C1612.29 2298.68 1336.74 2318.07 1136.17 2134.3C992.583 2002.74 1018.04 1886.63 895.673 1792.77C700.014 1642.71 551.38 1875.57 204.233 1758.3C19.2999 1695.82 -151.128 1557.91 -269.77 1446.74" stroke="#F6931D" stroke-width="2" stroke-miterlimit="10"/>
<path d="M3399.61 2245.5C3364.06 2252.05 3265.97 2292.87 3156.74 2334.11C3016.45 2388.06 2858.61 2439.39 2780.69 2410.52C2704.59 2382.32 2655.54 2348.02 2610.57 2314.37C2564.87 2280.19 2523.66 2245.47 2461.85 2215.42C2322.48 2147.67 2243.23 2177.36 2128.99 2214C2041.04 2242.22 1938.89 2272.61 1773.81 2280.79C1614.21 2288.68 1350.48 2332.97 1138.52 2141.91C997.904 2015.14 1018.22 1901.62 895.068 1808.18C848.036 1772.42 803.561 1757.62 758.802 1754.57C687.787 1749.75 616.237 1775.53 526.128 1784.34C443.573 1792.45 350.742 1796.3 233.714 1758.91C226.079 1756.47 218.299 1753.72 210.439 1750.93C28.9979 1686.49 -139.852 1550.49 -262.785 1439.54" stroke="#F6931D" stroke-width="2" stroke-miterlimit="10"/>
<path d="M3385.7 2231.36C3349.82 2238.89 3251.9 2279.63 3145.58 2324.01C3007.57 2381.62 2857.04 2438.16 2780.66 2412.68C2707.08 2388.1 2658.69 2355.35 2613.91 2323.66C2568.69 2291.66 2527.65 2258.35 2466.52 2229.78C2327.95 2165.04 2247.61 2195.3 2131.64 2225.61C2040.67 2249.37 1941.03 2269.37 1776.48 2274.11C1616.12 2278.73 1364.31 2347.97 1140.8 2149.56C1003.3 2027.5 1018.37 1916.7 894.428 1823.65C847.458 1788.24 802.869 1772.58 758.403 1768.46C688.304 1761.98 618.67 1786.13 527.994 1787.56C444.758 1788.87 354.475 1790.89 239.722 1752.01C232.174 1749.46 224.456 1746.46 216.665 1743.56C38.7346 1677.22 -128.61 1543.03 -255.81 1432.33" stroke="#F6931D" stroke-width="2" stroke-miterlimit="10"/>
<path d="M3371.78 2217.22C3335.57 2225.72 3238.06 2266.73 3134.42 2313.91C2998.98 2375.58 2855.6 2436.94 2780.62 2414.82C2709.58 2393.86 2661.84 2362.67 2617.28 2332.96C2572.71 2303.24 2531.66 2271.22 2471.16 2244.15C2333.36 2182.44 2251.79 2213.16 2134.28 2237.24C2040.15 2256.52 1943.12 2266.13 1779.13 2267.47C1617.94 2268.74 1378.22 2363.06 1143.07 2157.22C1008.83 2039.7 1018.45 1932.01 893.777 1839.14C846.828 1804.12 802.22 1787.56 758.026 1782.29C688.835 1774.12 620.951 1796.71 529.874 1790.76C445.717 1785.27 358.186 1785.47 245.712 1745.12C238.243 1742.43 230.577 1739.21 222.866 1736.17C48.5239 1668.01 -117.307 1535.64 -248.829 1425.12" stroke="#F6931D" stroke-width="2" stroke-miterlimit="10"/>
<path d="M3357.86 2203.07C3321.32 2212.54 3224.23 2253.85 3123.27 2303.82C2990.41 2369.57 2854.3 2435.76 2780.59 2416.97C2712.18 2399.54 2665.05 2370.02 2620.61 2342.21C2576.42 2314.56 2535.63 2284.05 2475.84 2258.46C2338.77 2199.77 2255.78 2230.78 2136.92 2248.79C2039.5 2263.54 1945.21 2262.79 1781.8 2260.73C1619.82 2258.7 1392.25 2378.11 1145.36 2164.79C1014.49 2051.7 1018.6 1947.08 893.141 1854.56C846.24 1819.96 801.535 1802.5 757.584 1796.17C689.302 1786.32 622.924 1807.22 531.64 1793.95C446.433 1781.62 361.848 1780 251.715 1738.22C244.324 1735.45 236.752 1731.95 229.084 1728.81C58.3617 1658.87 -106.032 1528.22 -241.845 1417.92" stroke="#F6931D" stroke-width="2" stroke-miterlimit="10"/>
<path d="M3343.94 2188.93C3307.06 2199.38 3210.43 2240.99 3112.11 2293.72C2981.84 2363.61 2853.03 2434.49 2780.55 2419.12C2714.78 2405.16 2668.27 2377.35 2623.96 2351.48C2580.33 2326.02 2539.62 2296.93 2480.49 2272.78C2344.16 2217.13 2259.6 2248.3 2139.56 2260.37C2038.7 2270.52 1947.27 2259.46 1784.46 2254.03C1621.65 2248.59 1406.34 2393.21 1147.64 2172.4C1020.22 2063.64 1018.75 1962.18 892.519 1869.97C845.67 1835.75 800.904 1817.43 757.22 1810.02C689.953 1798.6 624.721 1817.57 533.566 1797.2C446.874 1777.84 365.504 1774.5 257.728 1731.32C250.436 1728.4 242.919 1724.68 235.308 1721.42C68.2387 1649.8 -94.7558 1520.79 -234.887 1410.72" stroke="#F6931D" stroke-width="2" stroke-miterlimit="10"/>
<path d="M3330.02 2174.79C3292.8 2186.21 3196.63 2228.15 3100.95 2283.63C2973.29 2357.67 2851.89 2433.21 2780.53 2421.27C2717.47 2410.71 2671.53 2384.69 2627.3 2360.75C2584.3 2337.49 2543.6 2309.8 2485.15 2287.12C2349.56 2234.52 2263.19 2265.61 2142.2 2271.98C2037.76 2277.46 1949.24 2256.05 1787.11 2247.35C1623.38 2238.57 1420.48 2408.36 1149.91 2180.03C1026.07 2075.46 1018.9 1977.27 891.886 1885.42C845.094 1851.57 800.295 1832.41 756.833 1823.87C690.556 1810.86 626.219 1827.67 535.428 1800.42C447.04 1773.89 369.157 1768.98 263.727 1724.44C256.502 1721.38 249.067 1717.44 241.514 1714.05C78.1669 1640.82 -83.4798 1513.37 -227.886 1403.49" stroke="#F6931D" stroke-width="2" stroke-miterlimit="10"/>
<path d="M3316.1 2160.65C3278.54 2173.02 3182.84 2215.34 3089.8 2273.54C2964.75 2351.75 2850.84 2431.89 2780.49 2423.42C2720.19 2416.13 2674.81 2392.02 2630.65 2370.03C2588.23 2348.9 2547.58 2322.68 2489.82 2301.47C2354.94 2251.92 2266.62 2282.75 2144.88 2283.58C2036.73 2284.29 1951.28 2252.65 1789.82 2240.67C1625.17 2228.44 1434.76 2423.47 1152.22 2187.63C1031.94 2087.2 1019.1 1992.41 891.255 1900.86C844.508 1867.37 799.698 1847.39 756.44 1837.74C691.176 1823.17 627.453 1837.51 537.266 1803.64C447.08 1769.78 372.712 1763.34 269.715 1717.56C262.569 1714.38 255.204 1710.2 247.712 1706.69C88.1348 1631.92 -72.206 1505.94 -220.912 1396.28" stroke="#F6931D" stroke-width="2" stroke-miterlimit="10"/>
<path d="M3302.18 2146.51C3264.31 2159.87 3169.08 2202.54 3078.64 2263.44C2956.23 2345.86 2849.84 2430.5 2780.46 2425.57C2722.88 2421.46 2678.12 2399.36 2634 2379.31C2592.21 2360.32 2551.57 2335.58 2494.48 2315.8C2360.31 2269.34 2269.87 2299.69 2147.5 2295.14C2035.48 2290.97 1953.2 2249.15 1792.46 2233.94C1626.84 2218.25 1449.05 2438.62 1154.5 2195.23C1037.88 2098.87 1019.22 2007.47 890.626 1916.29C843.931 1883.19 799.114 1862.39 756.085 1851.56C691.879 1835.51 628.53 1847.04 539.137 1806.85C446.578 1765.28 376.254 1757.7 275.743 1710.62C268.672 1707.32 261.398 1702.92 253.955 1699.28C98.1686 1623.11 -60.9436 1498.51 -213.927 1389.08" stroke="#F6931D" stroke-width="2" stroke-miterlimit="10"/>
<path d="M3288.26 2132.36C3250.06 2146.69 3155.31 2189.8 3067.48 2253.35C2947.77 2340.03 2848.87 2429.02 2780.41 2427.7C2725.57 2426.65 2681.41 2406.66 2637.33 2388.56C2596.18 2371.69 2555.53 2348.45 2499.13 2330.12C2365.68 2286.76 2272.96 2316.41 2150.13 2306.71C2034.13 2297.54 1955.11 2245.63 1795.11 2227.23C1628.55 2208.08 1463.39 2453.72 1156.77 2202.83C1043.85 2110.44 1019.36 2022.55 889.957 1931.74C843.298 1898.97 798.548 1877.44 755.639 1865.44C692.491 1847.82 629.319 1856.16 540.959 1810.08C446.03 1760.55 379.743 1752.01 281.687 1703.76C274.687 1700.32 267.507 1695.71 260.113 1691.94C108.218 1614.39 -49.6686 1491.09 -206.947 1381.86" stroke="#F6931D" stroke-width="2" stroke-miterlimit="10"/>
<path d="M3274.34 2118.22C3235.81 2133.52 3141.57 2177.06 3056.31 2243.26C2939.23 2334.18 2847.92 2427.45 2780.38 2429.88C2728.26 2431.74 2684.77 2413.95 2640.69 2397.87C2600.2 2383.09 2559.51 2361.37 2503.8 2344.48C2371.06 2304.23 2275.92 2332.99 2152.78 2318.31C2032.69 2304.01 1957.03 2242.11 1797.8 2220.56C1630.24 2197.87 1477.82 2468.84 1159.08 2210.47C1049.91 2121.97 1019.54 2037.65 889.364 1947.18C842.811 1914.83 798.004 1892.44 755.292 1879.29C693.226 1860.2 630.131 1865.03 542.872 1813.31C445.438 1755.53 383.292 1746.22 287.721 1696.87C280.789 1693.28 273.703 1688.47 266.363 1684.56C118.301 1605.76 -38.3519 1483.7 -199.97 1374.65" stroke="#F6931D" stroke-width="2" stroke-miterlimit="10"/>
<path d="M3260.41 2104.07C3221.55 2120.36 3127.84 2164.34 3045.16 2233.16C2930.79 2328.38 2847 2425.72 2780.36 2432.01C2730.93 2436.66 2688.1 2421.17 2644.05 2407.15C2604.21 2394.44 2563.51 2374.3 2508.47 2358.83C2376.44 2321.71 2278.77 2349.35 2155.43 2329.92C2031.13 2310.34 1958.9 2238.54 1800.45 2213.88C1631.88 2187.64 1492.29 2483.93 1161.37 2218.1C1055.98 2133.44 1019.71 2052.75 888.733 1962.63C842.204 1930.62 797.472 1907.5 754.903 1893.17C693.956 1872.64 630.889 1873.67 544.667 1816.48C444.747 1750.23 386.693 1740.4 293.682 1689.95C286.813 1686.22 279.829 1681.21 272.53 1677.16C128.432 1597.23 -27.118 1476.24 -192.986 1367.45" stroke="#F6931D" stroke-width="2" stroke-miterlimit="10"/>
<path d="M3246.5 2089.93C3207.31 2107.19 3114.13 2151.64 3034.01 2223.07C2922.35 2322.61 2846 2423.9 2780.32 2434.16C2733.53 2441.47 2691.48 2428.43 2647.4 2416.41C2608.26 2405.75 2567.49 2387.21 2513.13 2373.14C2381.82 2339.15 2281.5 2365.48 2158.07 2341.48C2029.47 2316.47 1960.75 2234.88 1803.15 2207.19C1633.56 2177.38 1506.84 2498.97 1163.68 2225.71C1062.12 2144.84 1019.91 2067.83 888.13 1978.08C841.655 1946.43 796.987 1922.59 754.546 1907.03C694.747 1885.09 631.683 1882.05 546.595 1819.74C444.179 1744.74 390.18 1734.54 299.722 1683.09C292.916 1679.21 286.039 1674.02 278.776 1669.82C138.589 1588.79 -15.8478 1468.82 -186.039 1360.2" stroke="#F6931D" stroke-width="2" stroke-miterlimit="10"/>
<path d="M3232.58 2075.79C3193.05 2094.01 3100.44 2138.96 3022.85 2212.97C2913.94 2316.88 2844.97 2421.92 2780.29 2436.31C2736.08 2446.15 2694.8 2435.62 2650.74 2425.68C2612.24 2417 2571.47 2400.14 2517.8 2387.49C2387.19 2356.69 2284.16 2381.49 2160.72 2353.08C2027.73 2322.47 1962.59 2231.22 1805.79 2200.47C1635.1 2166.99 1521.39 2513.93 1165.94 2233.31C1068.24 2156.17 1020.05 2082.87 887.472 1993.5C841.058 1962.21 796.459 1937.66 754.134 1920.86C695.459 1897.56 632.565 1890.33 548.42 1822.93C443.676 1739.03 393.609 1728.59 305.739 1676.2C298.991 1672.19 292.224 1666.8 285.012 1662.45C148.768 1580.46 -4.57209 1461.39 -179.029 1353.03" stroke="#F6931D" stroke-width="2" stroke-miterlimit="10"/>
<path d="M3218.66 2061.64C3178.83 2080.83 3086.77 2126.31 3011.7 2202.88C2905.54 2311.15 2843.84 2419.78 2780.25 2438.46C2738.57 2450.7 2698.16 2442.77 2654.09 2434.96C2616.23 2428.25 2575.46 2413.09 2522.47 2401.83C2392.57 2374.23 2286.75 2397.32 2163.37 2364.67C2025.94 2328.3 1964.4 2227.51 1808.46 2193.78C1636.68 2156.62 1536.02 2528.85 1168.23 2240.92C1074.4 2167.46 1020.22 2097.94 886.852 2008.95C840.484 1978.01 795.981 1952.79 753.747 1934.72C696.274 1910.12 633.567 1898.52 550.278 1826.15C443.326 1733.21 397.021 1722.57 311.726 1669.29C305.043 1665.11 298.4 1659.54 291.201 1655.07C158.945 1572.25 6.70423 1453.97 -172.03 1345.81" stroke="#F6931D" stroke-width="2" stroke-miterlimit="10"/>
<path d="M3204.78 2047.55C3164.59 2067.72 3073.15 2113.71 3000.56 2192.81C2897.19 2305.48 2842.64 2417.5 2780.24 2440.63C2741 2455.18 2701.49 2449.91 2657.47 2444.26C2620.24 2439.48 2579.46 2426.06 2527.15 2416.19C2397.97 2391.77 2289.29 2412.98 2166.01 2376.26C2024.09 2333.97 1966.18 2223.75 1811.13 2187.07C1638.25 2146.19 1550.73 2543.66 1170.51 2248.52C1080.59 2178.71 1020.37 2113.02 886.221 2024.39C839.91 1993.8 795.511 1967.94 753.371 1948.58C697.089 1922.71 634.714 1906.69 552.159 1829.36C443.191 1727.31 400.44 1716.49 317.75 1662.39C311.122 1658.07 304.614 1652.37 297.444 1647.69C169.189 1564.08 17.9997 1446.54 -165.043 1338.6" stroke="#F6931D" stroke-width="2" stroke-miterlimit="10"/>
<path d="M3190.85 2033.39C3150.34 2054.54 3059.51 2101.08 2989.41 2182.72C2888.86 2299.82 2841.29 2415.04 2780.18 2442.75C2743.31 2459.5 2704.76 2456.95 2660.79 2453.5C2624.18 2450.63 2583.42 2438.99 2531.79 2430.49C2403.34 2409.37 2291.8 2428.51 2168.68 2387.87C2022.22 2339.49 1968 2219.96 1813.82 2180.41C1639.81 2135.75 1565.46 2558.46 1172.83 2256.17C1086.84 2189.97 1020.59 2128.08 885.612 2039.85C839.36 2009.62 795.026 1983.11 752.988 1962.45C697.904 1935.33 635.959 1914.87 554.018 1832.57C443.211 1721.38 403.868 1710.31 323.746 1655.49C317.179 1650.99 310.737 1645.12 303.656 1640.3C179.348 1556.05 29.2487 1439.12 -158.088 1331.4" stroke="#F6931D" stroke-width="2" stroke-miterlimit="10"/>
<path d="M3176.92 2019.23C3136.09 2041.38 3045.88 2088.47 2978.24 2172.61C2880.54 2294.17 2839.78 2412.4 2780.16 2444.92C2745.6 2463.78 2708.05 2464.01 2664.16 2462.8C2628.15 2461.8 2587.43 2451.99 2536.48 2444.86C2408.77 2427 2294.33 2443.95 2171.32 2399.45C2020.3 2344.8 1969.73 2216.13 1816.48 2173.71C1641.31 2125.21 1580.22 2573.06 1175.07 2263.78C1093 2201.12 1020.72 2143.11 884.939 2055.29C838.717 2025.37 794.552 1998.34 752.561 1976.29C698.709 1948.02 637.368 1923.08 555.829 1835.82C443.429 1715.47 407.239 1704.17 329.721 1648.61C323.227 1643.95 316.897 1637.92 309.846 1632.94C189.563 1548.08 40.5235 1431.7 -151.113 1324.19" stroke="#F6931D" stroke-width="2" stroke-miterlimit="10"/>
<path d="M3162.98 2005.08C3121.8 2028.17 3032.26 2075.85 2967.06 2162.5C2872.23 2288.53 2838.09 2409.6 2780.12 2447.05C2747.75 2467.96 2711.28 2471 2667.49 2472.06C2632.06 2472.92 2591.43 2464.96 2541.11 2459.18C2414.16 2444.61 2296.82 2459.25 2173.94 2411.03C2018.39 2349.97 1971.46 2212.24 1819.13 2166.99C1642.82 2114.65 1595.06 2587.53 1177.38 2271.37C1099.24 2212.21 1020.92 2158.14 884.33 2070.71C838.199 2041.18 794.136 2013.57 752.198 1990.13C699.563 1960.7 638.947 1931.33 557.714 1839.01C443.831 1709.6 410.642 1697.91 335.75 1641.74C329.303 1636.91 323.074 1630.76 316.08 1625.6C199.782 1540.23 51.805 1424.31 -144.099 1317.01" stroke="#F6931D" stroke-width="2" stroke-miterlimit="10"/>
<path d="M3149.05 1990.92C3107.52 2015.01 3018.67 2063.28 2955.9 2152.4C2863.96 2282.92 2836.25 2406.66 2780.07 2449.2C2749.84 2472.09 2714.5 2477.97 2670.82 2481.31C2635.95 2484 2595.41 2477.93 2545.77 2473.5C2419.57 2462.25 2299.34 2474.45 2176.57 2422.59C2016.5 2354.97 1973.19 2208.3 1821.78 2160.29C1644.32 2104.03 1609.99 2601.88 1179.65 2278.97C1105.51 2223.34 1021.09 2173.16 883.688 2086.14C837.615 2056.96 793.665 2028.84 751.797 2003.98C700.373 1973.45 640.598 1939.65 559.563 1842.23C444.409 1703.79 414.081 1691.57 341.72 1634.82C335.335 1629.81 329.24 1623.51 322.262 1618.18C209.89 1532.42 63.0665 1416.84 -137.155 1309.76" stroke="#F6931D" stroke-width="2" stroke-miterlimit="10"/>
<path d="M3135.12 1976.76C3093.27 2001.8 3005.06 2050.67 2944.72 2142.29C2855.72 2277.33 2834.19 2403.54 2780.02 2451.32C2751.84 2476.16 2717.64 2484.86 2674.19 2490.56C2639.85 2495.06 2599.43 2490.89 2550.42 2487.78C2425.01 2479.88 2301.9 2489.53 2179.21 2434.12C2014.66 2359.86 1974.92 2204.36 1824.46 2153.61C1645.81 2093.37 1624.98 2616.03 1181.95 2286.6C1111.74 2234.38 1021.27 2188.2 883.067 2101.59C837.057 2072.76 793.195 2044.14 751.422 2017.84C701.206 1986.23 642.4 1948.09 561.42 1845.45C445.143 1698.05 417.535 1685.25 347.707 1627.91C341.354 1622.69 335.366 1616.32 328.454 1610.79C220.014 1524.67 74.3204 1409.4 -130.196 1302.54" stroke="#F6931D" stroke-width="2" stroke-miterlimit="10"/>
<path d="M3121.18 1962.61C3079.01 1988.62 2991.53 2038.14 2933.55 2132.18C2847.51 2271.77 2832 2400.36 2779.98 2453.47C2753.78 2480.21 2720.8 2491.81 2677.51 2499.85C2643.68 2506.14 2603.41 2503.92 2555.08 2502.16C2430.46 2497.62 2304.52 2504.66 2181.85 2445.75C2012.82 2364.57 1976.63 2200.32 1827.11 2146.87C1647.32 2082.66 1640.05 2629.94 1184.24 2294.21C1118.06 2245.46 1021.45 2203.22 882.434 2117.03C836.454 2088.52 792.704 2059.44 751.036 2031.7C702.003 1999.04 644.204 1956.51 563.283 1848.66C446.006 1692.38 421.006 1678.85 353.727 1621.03C347.517 1615.67 341.58 1609.14 334.689 1603.44C230.127 1517.02 85.6131 1401.99 -123.181 1295.35" stroke="#F6931D" stroke-width="2" stroke-miterlimit="10"/>
<path d="M3107.3 1948.5C3064.79 1975.49 2978.03 2025.63 2922.44 2122.12C2839.36 2266.26 2829.61 2397.1 2779.98 2455.65C2755.69 2484.28 2723.98 2498.73 2680.89 2509.16C2647.56 2517.23 2607.48 2516.95 2559.77 2516.53C2435.99 2515.41 2307.22 2519.73 2184.54 2457.37C2011.1 2369.22 1978.41 2196.31 1829.79 2140.22C1648.8 2071.92 1655.2 2643.55 1186.53 2301.83C1124.34 2256.48 1021.62 2218.23 881.804 2132.47C835.912 2104.33 792.241 2074.83 750.648 2045.56C702.793 2011.87 646.179 1965.11 565.144 1851.88C446.984 1686.79 424.517 1672.41 359.725 1614.15C353.546 1608.59 347.726 1601.96 340.911 1596.07C240.149 1509.41 96.8877 1394.57 -116.181 1288.17" stroke="#F6931D" stroke-width="2" stroke-miterlimit="10"/>
<path d="M3093.38 1934.36C3050.54 1962.32 2964.52 2013.11 2911.26 2111.98C2831.19 2260.72 2827.07 2393.66 2779.93 2457.75C2757.49 2488.26 2727.07 2505.56 2684.22 2518.39C2651.36 2528.22 2611.48 2529.95 2564.42 2530.82C2441.44 2533.1 2309.94 2534.69 2187.16 2468.91C2009.4 2373.68 1980.12 2192.19 1832.43 2133.48C1650.31 2061.08 1670.45 2656.81 1188.81 2309.44C1130.63 2267.47 1021.8 2233.24 881.17 2147.92C836.983 2121.01 793.222 2091.42 750.26 2059.41C703.555 2024.72 648.209 1973.72 566.991 1855.09C448.041 1681.28 428.123 1666.01 365.735 1607.26C359.632 1601.52 353.903 1594.78 347.128 1588.71C250.111 1501.83 108.162 1387.14 -109.23 1280.93" stroke="#F6931D" stroke-width="2" stroke-miterlimit="10"/>
<path d="M3079.46 1920.21C3036.29 1949.15 2951.03 2000.59 2900.12 2101.94C2823.1 2255.24 2824.35 2390.24 2779.91 2459.95C2759.26 2492.33 2730.17 2512.48 2687.59 2527.71C2655.18 2539.29 2615.52 2543.03 2569.1 2545.21C2446.97 2550.92 2312.76 2549.72 2189.82 2480.55C2007.83 2378.14 1981.89 2188.14 1835.12 2126.84C1651.78 2050.26 1685.81 2669.62 1191.1 2317.05C1136.91 2278.43 1021.99 2248.25 880.541 2163.36C836.219 2136.76 792.448 2106.57 749.896 2073.25C704.309 2037.57 650.256 1982.43 568.872 1858.29C449.171 1675.85 431.754 1659.57 371.731 1600.36C365.707 1594.42 360.066 1587.57 353.33 1581.33C260.006 1494.27 119.438 1379.72 -102.25 1273.74" stroke="#F6931D" stroke-width="2" stroke-miterlimit="10"/>
<path d="M3065.54 1906.08C3022.04 1935.98 2937.55 1988.08 2888.96 2091.84C2815.01 2249.75 2821.46 2386.72 2779.88 2462.09C2760.96 2496.37 2733.22 2519.32 2690.93 2536.98C2658.96 2550.33 2619.56 2556.07 2573.77 2559.54C2452.51 2568.73 2315.64 2564.71 2192.47 2492.19C2006.32 2382.51 1983.65 2184.05 1837.8 2120.19C1653.33 2039.44 1701.3 2681.93 1193.39 2324.72C1143.2 2289.37 1022.16 2263.24 879.893 2178.81C835.405 2152.53 791.583 2121.73 749.471 2087.14C704.985 2050.47 652.346 1991.21 570.691 1861.55C450.363 1670.48 435.443 1653.12 377.701 1593.5C371.762 1587.37 366.156 1580.44 359.51 1573.98C269.808 1486.72 130.708 1372.3 -95.2651 1266.52" stroke="#F6931D" stroke-width="2" stroke-miterlimit="10"/>
<path d="M3051.62 1891.93C3007.79 1922.81 2924.09 1975.58 2877.78 2081.76C2806.94 2244.29 2818.44 2383.17 2779.83 2464.26C2762.6 2500.44 2736.24 2526.19 2694.27 2546.27C2662.72 2561.37 2623.59 2569.15 2578.42 2573.9C2458.05 2586.56 2318.58 2579.69 2195.1 2503.74C2004.89 2386.74 1985.38 2179.87 1840.43 2113.45C1654.81 2028.42 1716.92 2693.43 1195.64 2332.3C1149.46 2300.31 1022.34 2278.28 879.242 2194.26C833.587 2167.45 789.985 2136.45 749.099 2101.03C705.654 2063.33 654.505 2000 572.564 1864.74C451.621 1665.16 439.196 1646.69 383.729 1586.57C377.896 1580.25 372.311 1573.22 365.745 1566.57C279.518 1479.17 141.975 1364.86 -88.2808 1259.32" stroke="#F6931D" stroke-width="2" stroke-miterlimit="10"/>
<path d="M3037.7 1877.79C2993.55 1909.63 2910.64 1963.07 2866.65 2071.65C2798.91 2238.81 2815.28 2379.59 2779.83 2466.37C2764.24 2504.5 2739.3 2532.98 2697.62 2555.48C2666.47 2572.33 2627.66 2582.12 2583.08 2588.16C2463.63 2604.34 2321.65 2594.64 2197.75 2515.26C2003.58 2390.88 1987.18 2175.6 1843.14 2106.67C1656.36 2017.42 1732.75 2704.05 1197.96 2339.89C1155.78 2311.17 1022.52 2293.21 878.649 2209.68C833.039 2183.22 789.376 2151.85 748.711 2114.82C706.307 2076.23 656.69 2008.85 574.425 1867.96C452.932 1659.9 443.036 1640.27 389.732 1579.68C383.996 1573.16 378.452 1566.06 371.967 1559.2C289.149 1471.6 153.242 1357.43 -81.3003 1252.1" stroke="#F6931D" stroke-width="2" stroke-miterlimit="10"/>
<path d="M3023.78 1863.65C2979.29 1896.47 2897.18 1950.55 2855.49 2061.55C2790.88 2233.34 2812 2376.02 2779.8 2468.52C2765.85 2508.57 2742.31 2539.84 2701.01 2564.78C2670.26 2583.39 2631.76 2595.23 2587.78 2602.54C2469.26 2622.25 2324.77 2609.65 2200.43 2526.88C2002.4 2395.07 1989.02 2171.43 1845.81 2100.03C1657.95 2006.37 1748.78 2713.37 1200.27 2347.48C1162.07 2322 1022.72 2308.17 878.044 2225.09C832.512 2198.96 788.716 2167.24 748.347 2128.66C706.88 2089.03 658.926 2017.73 576.306 1871.16C454.258 1654.7 446.959 1633.93 395.776 1572.83C390.127 1566.14 384.613 1558.93 378.225 1551.87C298.697 1464.04 164.575 1350.06 -74.2831 1244.93" stroke="#F6931D" stroke-width="2" stroke-miterlimit="10"/>
<path d="M3009.86 1849.5C2965.04 1883.3 2883.79 1938.09 2844.33 2051.46C2782.92 2227.92 2808.63 2372.44 2779.76 2470.67C2767.4 2512.7 2745.27 2546.65 2704.35 2574.06C2673.98 2594.42 2635.83 2608.3 2592.45 2616.88C2474.88 2640.13 2328 2624.69 2203.07 2538.47C2001.29 2399.21 1990.85 2167.21 1848.47 2093.34C1659.54 1995.31 1764.99 2721.01 1202.56 2355.1C1168.32 2332.83 1022.9 2322.94 877.406 2240.54C831.939 2214.67 787.979 2182.65 747.956 2142.52C707.417 2101.86 661.155 2026.67 578.16 1874.37C455.636 1649.51 450.88 1627.5 401.758 1565.88C396.253 1558.97 390.704 1551.69 384.4 1544.45C308.062 1456.35 175.805 1342.6 -67.347 1237.68" stroke="#F6931D" stroke-width="2" stroke-miterlimit="10"/>
<path d="M2995.94 1835.36C2950.79 1870.13 2870.6 1925.8 2833.17 2041.37C2775.32 2222.75 2805.2 2368.91 2779.72 2472.82C2768.93 2516.87 2748.21 2553.49 2707.7 2583.35C2677.7 2605.45 2639.9 2621.37 2597.1 2631.22C2480.52 2658.04 2331.25 2639.74 2205.71 2550.06C2000.29 2403.33 1992.69 2162.98 1851.13 2086.65C1661.15 1984.22 1781.42 2726.18 1204.85 2362.7C1174.56 2343.61 1023.08 2337.98 876.784 2255.97C831.371 2230.46 787.232 2198.06 747.576 2156.37C707.92 2114.68 663.393 2035.68 579.996 1877.61C456.976 1644.43 454.924 1621.27 407.727 1559C402.353 1551.91 396.785 1544.54 390.607 1537.08C317.351 1448.63 187.078 1335.17 -60.3603 1230.47" stroke="#F6931D" stroke-width="2" stroke-miterlimit="10"/>
<path d="M2982.02 1821.21C2936.53 1856.96 2856.99 1913.12 2822.01 2031.27C2743.89 2295.16 2846.64 2483.46 2711.03 2592.64C2600.27 2681.79 2380.72 2688.88 2208.34 2561.67C1999.38 2407.46 1994.56 2158.74 1853.79 2079.97C1662.78 1973.09 1798.03 2727.73 1207.11 2370.35C1172.57 2349.46 913.613 2353.63 747.166 2170.25C708.357 2127.49 665.649 2044.67 581.854 1880.83C458.36 1639.35 459.043 1615.04 413.732 1552.11C347.679 1460.38 220.032 1336.74 -53.3579 1223.29" stroke="#F6931D" stroke-width="2" stroke-miterlimit="10"/>
</svg>
