<svg width="1493" height="1493" viewBox="0 0 1493 1493" fill="none" xmlns="http://www.w3.org/2000/svg">
<path d="M746.49 892.05C826.88 892.05 892.05 826.88 892.05 746.49C892.05 666.099 826.88 600.93 746.49 600.93C666.099 600.93 600.93 666.099 600.93 746.49C600.93 826.88 666.099 892.05 746.49 892.05Z" stroke="white" stroke-width="2" stroke-miterlimit="10"/>
<path d="M746.49 967.04C868.296 967.04 967.04 868.296 967.04 746.49C967.04 624.684 868.296 525.94 746.49 525.94C624.684 525.94 525.94 624.684 525.94 746.49C525.94 868.296 624.684 967.04 746.49 967.04Z" stroke="white" stroke-width="2" stroke-miterlimit="10"/>
<path d="M746.49 1042.03C909.718 1042.03 1042.04 909.712 1042.04 746.49C1042.04 583.267 909.718 450.95 746.49 450.95C583.262 450.95 450.94 583.267 450.94 746.49C450.94 909.712 583.262 1042.03 746.49 1042.03Z" stroke="white" stroke-width="2" stroke-miterlimit="10"/>
<path d="M746.49 1117.02C951.134 1117.02 1117.03 951.128 1117.03 746.49C1117.03 541.852 951.134 375.96 746.49 375.96C541.847 375.96 375.95 541.852 375.95 746.49C375.95 951.128 541.847 1117.02 746.49 1117.02Z" stroke="white" stroke-width="2" stroke-miterlimit="10"/>
<path d="M746.49 1192.01C992.549 1192.01 1192.02 992.544 1192.02 746.49C1192.02 500.436 992.549 300.97 746.49 300.97C500.431 300.97 300.96 500.436 300.96 746.49C300.96 992.544 500.431 1192.01 746.49 1192.01Z" stroke="white" stroke-width="2" stroke-miterlimit="10"/>
<path d="M746.49 1267.01C1033.96 1267.01 1267.01 1033.96 1267.01 746.49C1267.01 459.014 1033.96 225.97 746.49 225.97C459.014 225.97 225.97 459.014 225.97 746.49C225.97 1033.96 459.014 1267.01 746.49 1267.01Z" stroke="white" stroke-width="2" stroke-miterlimit="10"/>
<path d="M746.49 1342C1075.38 1342 1342 1075.38 1342 746.49C1342 417.599 1075.38 150.98 746.49 150.98C417.599 150.98 150.98 417.599 150.98 746.49C150.98 1075.38 417.599 1342 746.49 1342Z" stroke="white" stroke-width="2" stroke-miterlimit="10"/>
<path d="M746.49 1416.99C1116.8 1416.99 1416.99 1116.8 1416.99 746.49C1416.99 376.183 1116.8 75.9897 746.49 75.9897C376.183 75.9897 75.9902 376.183 75.9902 746.49C75.9902 1116.8 376.183 1416.99 746.49 1416.99Z" stroke="white" stroke-width="2" stroke-miterlimit="10"/>
<path d="M746.49 1491.98C1158.21 1491.98 1491.98 1158.21 1491.98 746.49C1491.98 334.767 1158.21 1 746.49 1C334.767 1 1 334.767 1 746.49C1 1158.21 334.767 1491.98 746.49 1491.98Z" stroke="white" stroke-width="2" stroke-miterlimit="10"/>
</svg>
