<svg width="1920" height="1938" viewBox="0 0 1920 1938" fill="none" xmlns="http://www.w3.org/2000/svg">
<ellipse cx="959.501" cy="968.5" rx="481.5" ry="480.5" fill="#FFC75A"/>
<path d="M1507.5 968.5C1507.5 1222.11 1445.64 1451.35 1346.02 1616.94C1246.31 1782.67 1109.6 1883.5 960 1883.5C810.401 1883.5 673.692 1782.67 573.983 1616.94C474.361 1451.35 412.5 1222.11 412.5 968.5C412.5 714.888 474.361 485.648 573.983 320.06C673.692 154.327 810.401 53.5 960 53.5C1109.6 53.5 1246.31 154.327 1346.02 320.06C1445.64 485.648 1507.5 714.888 1507.5 968.5Z" stroke="white" stroke-width="15"/>
<path d="M1259.21 1425.1C1047.19 1564.19 821.712 1638.35 628.793 1646.11C435.701 1653.87 276.65 1595.19 194.836 1470.48C113.022 1345.78 122.529 1176.51 206.543 1002.48C290.482 828.609 448.288 651.307 660.305 512.213C872.323 373.118 1097.8 298.966 1290.72 291.207C1483.81 283.441 1642.86 342.122 1724.68 466.829C1806.49 591.536 1796.98 760.799 1712.97 934.83C1629.03 1108.7 1471.22 1286.01 1259.21 1425.1Z" stroke="white" stroke-width="15"/>
<path d="M703.295 1451.07C479.573 1331.7 306.388 1169.39 207.077 1003.82C107.677 838.091 82.9108 670.38 153.119 538.789C223.327 407.197 376.422 334.381 569.426 324.663C762.257 314.954 993.514 368.423 1217.24 487.785C1440.96 607.147 1614.14 769.461 1713.45 935.036C1812.85 1100.76 1837.62 1268.47 1767.41 1400.06C1697.2 1531.65 1544.11 1604.47 1351.1 1614.19C1158.27 1623.9 927.016 1570.43 703.295 1451.07Z" stroke="white" stroke-width="15"/>
</svg>
