<svg width="1366" height="191" viewBox="0 0 1366 191" fill="none" xmlns="http://www.w3.org/2000/svg">
<path d="M24.2815 156.12L38.959 153.555L34.8103 129.814L35.7953 129.642L55.9023 150.594L72.944 147.616L47.6172 123.516L63.7953 96.4263L47.7386 99.2323L34.5779 123.257L33.6913 123.411L30.0073 102.331L15.3298 104.896L24.2815 156.12Z" fill="white"/>
<path d="M97.515 145.001C100.746 144.521 103.658 143.482 106.252 141.884C108.845 140.285 110.931 138.223 112.511 135.697C112.809 136.798 113.131 137.829 113.475 138.789C113.886 139.739 114.315 140.585 114.762 141.327L128.512 139.285C127.69 137.385 126.977 135.536 126.373 133.739C125.76 131.876 125.296 129.889 124.983 127.779L121.853 106.71C121.393 103.61 120.487 100.914 119.135 98.6213C117.784 96.3283 116.057 94.4617 113.956 93.0214C111.921 91.5714 109.554 90.6087 106.855 90.1334C104.156 89.6582 101.158 89.6654 97.8606 90.1552L96.9704 90.2874C93.0138 90.8751 89.2064 92.0135 85.5482 93.7026C81.89 95.3918 78.6582 97.4557 75.8527 99.8943L82.8905 109.161C85.3395 107.045 87.7912 105.4 90.2454 104.227C92.7558 102.978 95.198 102.177 97.5719 101.824L98.0665 101.751C100.968 101.32 103.252 101.722 104.918 102.957C106.575 104.126 107.579 105.898 107.932 108.272L108.152 109.756L104.294 110.329C94.4689 111.788 87.4208 114.25 83.1502 117.716C78.8796 121.181 77.1557 125.683 77.9785 131.222L78.1548 132.409C78.4878 134.651 79.192 136.669 80.2674 138.464C81.3989 140.183 82.821 141.59 84.5336 142.683C86.3121 143.767 88.2774 144.52 90.4293 144.942C92.6473 145.353 95.0091 145.373 97.515 145.001ZM99.6135 133.265C98.5584 133.422 97.5827 133.432 96.6862 133.296C95.7898 133.159 95.0105 132.904 94.3485 132.531C93.6766 132.092 93.1269 131.567 92.6992 130.956C92.2618 130.28 91.9843 129.546 91.8667 128.755L91.7933 128.26C91.4406 125.886 92.4621 123.915 94.8575 122.346C97.253 120.777 101.121 119.596 106.463 118.802L109.43 118.361L110.576 126.077C109.258 128.092 107.645 129.713 105.738 130.94C103.831 132.167 101.79 132.942 99.6135 133.265Z" fill="white"/>
<path d="M138.522 137.925L153.303 136.043L150.259 112.136L151.251 112.01L170.365 133.871L187.526 131.686L163.344 106.438L180.761 80.1275L164.591 82.1862L150.331 105.574L149.438 105.688L146.735 84.4595L131.954 86.3413L138.522 137.925Z" fill="white"/>
<path d="M216.684 128.362L230.715 126.962L227.658 96.3142L228.454 96.2348L240.837 117.611L247.802 116.916L255.718 93.5152L256.514 93.4358L259.572 124.084L273.602 122.684L268.441 70.941L251.923 72.5886L243.199 102L242.403 102.079L227.942 74.9806L211.523 76.6183L216.684 128.362Z" fill="white"/>
<path d="M285.994 121.523L310.018 119.606C312.875 119.378 315.399 118.741 317.59 117.697C319.847 116.647 321.714 115.328 323.193 113.739C324.732 112.078 325.849 110.149 326.543 107.954C327.304 105.753 327.586 103.423 327.39 100.964L327.254 99.2696C327.058 96.8108 326.446 94.5858 325.417 92.5946C324.384 90.537 322.975 88.8103 321.192 87.4144C319.475 86.0133 317.452 84.9709 315.124 84.2874C312.795 83.6038 310.269 83.3708 307.544 83.5882L297.974 84.3521L296.709 68.5025L281.857 69.6881L285.994 121.523ZM299.282 109.528L298.112 94.8745L305.688 94.2698C307.815 94.1 309.529 94.632 310.831 95.8656C312.128 97.0328 312.854 98.58 313.008 100.507L313.095 101.604C313.254 103.597 312.786 105.273 311.691 106.631C310.662 107.984 309.051 108.748 306.858 108.923L299.282 109.528ZM334.54 117.648L348.794 116.51L344.657 64.6753L330.402 65.8131L334.54 117.648Z" fill="white"/>
<path d="M385.452 114.064L400.328 113.214L398.017 72.78L416.087 71.7473L418.398 112.181L433.274 111.331L430.307 59.4159L382.485 62.1488L385.452 114.064Z" fill="white"/>
<path d="M472.294 110.628L473.293 110.585C477.222 110.415 480.758 109.629 483.901 108.225C487.11 106.818 489.832 104.966 492.068 102.667C494.302 100.302 495.984 97.5267 497.114 94.3416C498.244 91.1565 498.727 87.6658 498.563 83.8693L498.433 80.8721C498.269 77.0756 497.487 73.6395 496.086 70.5638C494.686 67.4881 492.772 64.9016 490.346 62.8044C487.917 60.6406 485.043 58.9964 481.725 57.8719C478.473 56.7446 474.883 56.2658 470.953 56.4356L469.954 56.4788C466.091 56.6457 462.555 57.4324 459.346 58.8389C456.204 60.2426 453.516 62.127 451.282 64.4923C449.046 66.791 447.33 69.5343 446.133 72.7223C445.003 75.9074 444.52 79.3981 444.684 83.1946L444.813 86.1918C444.977 89.9883 445.76 93.4244 447.16 96.5001C448.628 99.5729 450.576 102.191 453.005 104.355C455.431 106.452 458.27 108.065 461.522 109.192C464.84 110.316 468.431 110.795 472.294 110.628ZM471.914 99.5343C470.249 99.6063 468.702 99.3061 467.271 98.6339C465.907 97.9588 464.699 97.0101 463.645 95.7878C462.655 94.496 461.853 92.9291 461.24 91.0872C460.693 89.2425 460.371 87.1878 460.273 84.9232L460.174 82.6254C460.076 80.3608 460.254 78.3179 460.709 76.4965C461.165 74.6752 461.832 73.1449 462.713 71.9058C463.591 70.6 464.681 69.5853 465.985 68.8617C467.352 68.0686 468.868 67.6361 470.533 67.5641L471.432 67.5253C473.097 67.4533 474.612 67.7549 475.975 68.43C477.336 69.0385 478.544 69.9539 479.597 71.1762C480.648 72.3319 481.446 73.7989 481.99 75.577C482.6 77.3523 482.954 79.3723 483.052 81.6368L483.151 83.9347C483.249 86.1992 483.072 88.2755 482.62 90.1634C482.234 92.0485 481.571 93.6787 480.629 95.0539C479.751 96.3597 478.629 97.4091 477.262 98.2022C475.961 98.9924 474.479 99.4235 472.814 99.4955L471.914 99.5343Z" fill="white"/>
<path d="M506.225 109.028C508.957 108.943 511.307 108.369 513.275 107.307C515.31 106.244 516.957 104.525 518.217 102.151C519.475 99.7111 520.376 96.5148 520.92 92.5627C521.531 88.6084 521.813 83.7306 521.766 77.9293L521.63 67.1283L532.225 66.7988L533.484 107.279L548.377 106.816L546.76 54.8411L507.679 56.0567L508.154 74.5509C508.299 79.2153 508.317 83.0165 508.209 85.9547C508.167 88.8907 507.938 91.199 507.524 92.8793C507.107 94.4931 506.541 95.6112 505.827 96.2337C505.113 96.8562 504.156 97.1861 502.956 97.2234C502.557 97.2359 501.989 97.2202 501.254 97.1763C500.517 97.0659 499.81 96.8544 499.133 96.5419L499.494 108.136C500.573 108.503 501.647 108.736 502.717 108.836C503.79 109.003 504.959 109.067 506.225 109.028Z" fill="white"/>
<path d="M574.293 126.616C577.093 126.562 579.585 126.114 581.769 125.272C584.02 124.429 586.03 123.223 587.801 121.656C589.637 120.087 591.201 118.19 592.492 115.965C593.784 113.806 594.838 111.352 595.652 108.603L612.097 53.4771L597.1 53.7648L587.935 92.1476L587.235 92.161L573.305 54.2212L557.807 54.5185L580.141 108.2C579.113 110.22 577.842 111.745 576.328 112.774C574.881 113.802 573.257 114.333 571.458 114.368C570.058 114.395 568.688 114.221 567.347 113.846C566.073 113.471 564.896 112.927 563.815 112.214L564.057 124.812C565.604 125.515 567.28 125.983 569.085 126.215C570.891 126.514 572.627 126.648 574.293 126.616Z" fill="white"/>
<path d="M645.911 105.198L660.81 105.078L660.389 53.0794L645.489 53.2001L645.669 75.3994C644.407 75.943 643.077 76.3537 641.679 76.6317C640.281 76.9097 638.882 77.0544 637.482 77.0658C635.216 77.0841 633.544 76.4976 632.468 75.3063C631.458 74.1144 630.943 72.2852 630.923 69.8186L630.79 53.3192L615.99 53.4391L616.14 71.9385C616.184 77.3383 617.718 81.526 620.742 84.5016C623.832 87.41 628.311 88.8404 634.177 88.7929C635.977 88.7783 637.876 88.5963 639.873 88.2468C641.87 87.8972 643.833 87.4146 645.761 86.799L645.911 105.198Z" fill="white"/>
<path d="M690.33 106.175C693.596 106.187 696.632 105.598 699.436 104.408C702.24 103.219 704.614 101.494 706.555 99.2344C706.684 100.368 706.847 101.436 707.043 102.436C707.306 103.437 707.603 104.338 707.933 105.14L721.833 105.191C721.307 103.189 720.881 101.254 720.555 99.386C720.229 97.4514 720.069 95.4175 720.077 93.2842L720.156 71.9843C720.167 68.851 719.677 66.0492 718.687 63.5788C717.696 61.1085 716.27 59.0032 714.41 57.263C712.616 55.5231 710.421 54.215 707.824 53.3388C705.227 52.4625 702.262 52.0183 698.929 52.006L698.029 52.0027C694.029 51.988 690.094 52.5402 686.223 53.6593C682.352 54.7784 678.846 56.3321 675.706 58.3206L681.268 68.5411C684.008 66.8179 686.679 65.561 689.282 64.7706C691.952 63.9138 694.487 63.4898 696.887 63.4986L697.387 63.5004C700.32 63.5112 702.517 64.2527 703.979 65.7247C705.44 67.1301 706.166 69.0328 706.158 71.4328L706.152 72.9328L702.252 72.9184C692.319 72.8818 684.98 74.2548 680.237 77.0374C675.493 79.82 673.111 84.0112 673.09 89.6112L673.086 90.8112C673.078 93.0778 673.47 95.1793 674.263 97.1155C675.123 98.9854 676.317 100.59 677.845 101.929C679.44 103.268 681.27 104.308 683.334 105.049C685.464 105.79 687.796 106.165 690.33 106.175ZM694.171 94.8888C693.104 94.8849 692.138 94.748 691.273 94.4781C690.407 94.2083 689.675 93.8389 689.077 93.37C688.479 92.8345 688.014 92.2328 687.683 91.5649C687.353 90.8303 687.189 90.0631 687.192 89.2631L687.194 88.7631C687.202 86.3631 688.509 84.5679 691.113 83.3775C693.718 82.1871 697.72 81.6018 703.12 81.6217L706.12 81.6327L706.091 89.4326C704.485 91.2267 702.646 92.5867 700.576 93.5124C698.506 94.4381 696.371 94.8969 694.171 94.8888Z" fill="white"/>
<path d="M752.306 106.678L753.906 106.701C755.905 106.731 757.909 106.527 759.915 106.09C761.921 105.719 763.829 105.181 765.64 104.474C767.518 103.702 769.265 102.794 770.88 101.751C772.564 100.642 774.048 99.4642 775.333 98.2163L768.071 88.8082C766.446 90.5178 764.491 91.9558 762.207 93.1223C759.923 94.2887 757.314 94.8503 754.381 94.8071L753.481 94.7938C751.681 94.7673 750.052 94.5099 748.592 94.0217C747.133 93.4668 745.844 92.7144 744.725 91.7644C743.673 90.7488 742.824 89.5695 742.177 88.2265C741.531 86.8168 741.121 85.2439 740.946 83.5079L777.142 84.0414L777.251 76.6422C777.302 73.1759 776.749 70.0008 775.591 67.1167C774.501 64.167 772.905 61.6432 770.803 59.5453C768.768 57.3818 766.292 55.7118 763.376 54.5353C760.46 53.2922 757.269 52.6451 753.803 52.594L752.503 52.5748C748.77 52.5198 745.295 53.102 742.076 54.3213C738.925 55.5417 736.199 57.3017 733.898 59.6014C731.665 61.8354 729.891 64.5762 728.576 67.8238C727.262 71.0048 726.577 74.5284 726.52 78.3947L726.492 80.2945C726.434 84.2274 727.015 87.803 728.234 91.0213C729.454 94.173 731.18 96.932 733.413 99.2985C735.712 101.599 738.453 103.407 741.633 104.72C744.815 105.967 748.373 106.62 752.306 106.678ZM741.48 74.4147C741.772 72.6855 742.228 71.1587 742.848 69.8344C743.535 68.4444 744.319 67.2891 745.199 66.3687C746.147 65.3825 747.225 64.665 748.431 64.2161C749.706 63.7015 751.043 63.4545 752.443 63.4751L753.443 63.4899C754.842 63.5105 756.139 63.763 757.332 64.2473C758.525 64.7316 759.548 65.4467 760.4 66.3927C761.253 67.3388 761.903 68.4818 762.35 69.8219C762.864 71.1629 763.141 72.7005 763.182 74.4346L763.178 74.7346L741.48 74.4147Z" fill="white"/>
<path d="M789.461 106.154L803.555 106.551L804.421 75.7628L805.22 75.7853L814.784 98.5631L821.781 98.7598L832.61 76.5552L833.409 76.5777L832.544 107.366L846.638 107.762L848.099 55.7823L831.506 55.3158L819.113 83.3787L818.313 83.3562L807.416 54.6387L790.922 54.175L789.461 106.154Z" fill="white"/>
<path d="M905.167 111.192C909.03 111.374 912.556 110.906 915.745 109.788C919.004 108.606 921.786 106.935 924.09 104.774C926.46 102.616 928.319 100.001 929.665 96.9274C931.014 93.7874 931.774 90.386 931.947 86.7234L932.078 83.9265C932.251 80.2639 931.744 76.8363 930.56 73.6438C929.442 70.4544 927.769 67.7061 925.542 65.3989C923.384 63.0282 920.77 61.1366 917.7 59.7241C914.632 58.245 911.234 57.4177 907.505 57.2423L906.706 57.2047C902.044 56.9854 897.769 57.7854 893.879 59.6046C889.992 61.3573 886.663 64.0371 883.89 67.6441L894.026 75.6292C895.686 72.971 897.475 71.1197 899.393 70.0753C901.381 68.9675 903.606 68.4715 906.07 68.5874L906.769 68.6203C908.568 68.7049 910.15 69.1131 911.517 69.8448C912.884 70.5765 914.004 71.5969 914.877 72.906C915.82 74.1517 916.482 75.6845 916.863 77.5044C917.311 79.3275 917.479 81.4377 917.366 83.8351L917.282 85.6331C917.175 87.8972 916.813 89.9158 916.196 91.6888C915.579 93.4617 914.742 94.924 913.687 96.0757C912.632 97.2274 911.389 98.1033 909.959 98.7034C908.53 99.3036 906.916 99.5614 905.118 99.4768L904.119 99.4298C901.788 99.3202 899.685 98.6206 897.81 97.3311C895.939 95.9749 894.298 93.9623 892.889 91.2931L882.124 98.7956C884.679 102.653 887.809 105.637 891.514 107.747C895.222 109.79 899.474 110.924 904.268 111.15L905.167 111.192ZM919.71 89.3513L920.137 80.2613L899.56 79.2933L899.132 88.3833L919.71 89.3513Z" fill="white"/>
<path d="M933.702 111.521L948.575 112.407L949.858 90.8448L968.525 91.9557L967.242 113.518L982.116 114.403L985.205 62.4945L970.331 61.6094L969.209 80.476L950.542 79.3651L951.664 60.4985L936.791 59.6133L933.702 111.521Z" fill="white"/>
<path d="M1019.17 118.11L1020.76 118.228C1022.76 118.376 1024.77 118.291 1026.8 117.973C1028.82 117.722 1030.76 117.297 1032.61 116.699C1034.53 116.039 1036.33 115.236 1038 114.29C1039.75 113.283 1041.3 112.194 1042.65 111.025L1035.96 101.204C1034.24 102.814 1032.2 104.134 1029.85 105.164C1027.5 106.193 1024.87 106.6 1021.94 106.383L1021.04 106.317C1019.25 106.184 1017.64 105.83 1016.21 105.257C1014.78 104.617 1013.54 103.789 1012.48 102.775C1011.49 101.699 1010.71 100.471 1010.15 99.0926C1009.58 97.6472 1009.27 96.0528 1009.2 94.3094L1045.3 96.9814L1045.84 89.6016C1046.1 86.1444 1045.74 82.9421 1044.75 79.9947C1043.84 76.9857 1042.39 74.372 1040.42 72.1535C1038.51 69.8734 1036.14 68.06 1033.3 66.7132C1030.46 65.3 1027.32 64.4654 1023.86 64.2095L1022.56 64.1136C1018.84 63.838 1015.33 64.2137 1012.05 65.2408C1008.83 66.2727 1006.01 67.8685 1003.57 70.0282C1001.21 72.1262 999.279 74.7574 997.775 77.9217C996.275 81.0195 995.383 84.4964 995.098 88.3525L994.957 90.2473C994.667 94.17 995.035 97.7736 996.062 101.058C997.094 104.277 998.654 107.133 1000.74 109.627C1002.9 112.06 1005.53 114.026 1008.63 115.525C1011.73 116.958 1015.24 117.82 1019.17 118.11ZM1010.27 85.2638C1010.66 83.5549 1011.21 82.0577 1011.9 80.7723C1012.67 79.4253 1013.52 78.3184 1014.46 77.4516C1015.46 76.5232 1016.58 75.8706 1017.81 75.4938C1019.11 75.0554 1020.46 74.8879 1021.86 74.9912L1022.85 75.065C1024.25 75.1684 1025.53 75.497 1026.69 76.051C1027.85 76.605 1028.83 77.3793 1029.63 78.3741C1030.42 79.3689 1031 80.5483 1031.37 81.9124C1031.81 83.2815 1031.99 84.8328 1031.93 86.5663L1031.91 86.8655L1010.27 85.2638Z" fill="white"/>
<path d="M1053.87 139.689L1068.71 141.025L1070.88 116.923C1072.58 118.817 1074.62 120.339 1076.99 121.49C1079.37 122.574 1082.02 123.248 1084.94 123.511L1085.74 123.583C1089.12 123.888 1092.27 123.568 1095.16 122.624C1098.13 121.619 1100.71 120.078 1102.91 118C1105.1 115.922 1106.87 113.37 1108.22 110.345C1109.63 107.326 1110.5 103.924 1110.84 100.139L1111.11 97.1516C1111.46 93.3005 1111.2 89.797 1110.35 86.641C1109.57 83.4246 1108.28 80.598 1106.49 78.1611C1104.71 75.7242 1102.44 73.7797 1099.69 72.3274C1097.02 70.8148 1093.98 69.906 1090.6 69.6011L1089.8 69.5293C1086.42 69.2244 1083.27 69.5772 1080.37 70.5876C1077.54 71.5377 1075.03 72.9854 1072.85 74.9308C1072.81 73.9229 1072.7 72.8757 1072.53 71.7895C1072.43 70.7092 1072.27 69.7919 1072.07 69.0376L1060.32 67.9794L1053.87 139.689ZM1082.25 112.124C1080.66 111.98 1079.2 111.481 1077.87 110.625C1076.61 109.775 1075.53 108.674 1074.65 107.323C1073.84 105.911 1073.25 104.252 1072.89 102.345C1072.53 100.438 1072.45 98.3557 1072.65 96.0982L1072.86 93.8075C1073.05 91.6163 1073.5 89.6483 1074.19 87.9034C1074.88 86.1585 1075.75 84.6971 1076.79 83.5192C1077.9 82.3473 1079.15 81.4892 1080.54 80.9448C1081.93 80.334 1083.46 80.1033 1085.12 80.2528L1086.12 80.3425C1087.71 80.4859 1089.14 80.9827 1090.4 81.8326C1091.74 82.6221 1092.81 83.6895 1093.63 85.0348C1094.51 86.3196 1095.14 87.9156 1095.5 89.8225C1095.87 91.6631 1095.96 93.679 1095.76 95.8701L1095.56 98.1608C1095.35 100.418 1094.9 102.453 1094.2 104.264C1093.51 106.075 1092.6 107.6 1091.48 108.839C1090.44 110.016 1089.19 110.908 1087.73 111.513C1086.33 112.123 1084.84 112.357 1083.25 112.214L1082.25 112.124Z" fill="white"/>
<path d="M1119.11 125.646L1133.92 127.205L1138.16 86.9273L1156.66 88.8733L1157.86 77.4364L1124.55 73.9316L1119.11 125.646Z" fill="white"/>
<path d="M1158.76 129.802L1172.96 131.525L1196.24 99.8987L1196.93 99.9831L1192.81 133.934L1207.21 135.681L1213.47 84.0592L1196.99 82.0597L1176.57 110.103L1175.77 110.007L1179.42 79.9277L1165.03 78.1811L1158.76 129.802Z" fill="white"/>
<path d="M1263.19 144.697L1264.18 144.843C1267.94 145.397 1271.46 145.309 1274.74 144.579C1278.02 143.783 1280.92 142.424 1283.42 140.503C1286 138.591 1288.1 136.205 1289.73 133.346C1291.44 130.431 1292.58 127.061 1293.15 123.236L1293.58 120.268C1294.15 116.443 1294.03 112.888 1293.23 109.603C1292.5 106.328 1291.18 103.437 1289.26 100.93C1287.41 98.3669 1285.03 96.2632 1282.1 94.619C1279.19 92.9089 1275.85 91.7768 1272.09 91.2226L1271.1 91.0767C1267.87 90.6003 1264.76 90.6477 1261.78 91.2189C1258.87 91.7339 1256.2 92.7214 1253.76 94.1813C1251.4 95.5849 1249.31 97.4329 1247.49 99.7253C1245.74 101.961 1244.38 104.557 1243.41 107.514L1237.07 106.58L1239.88 87.5854L1225.23 85.4269L1217.65 136.871L1232.29 139.029L1235.4 117.957L1241.53 118.861C1241.37 122.274 1241.74 125.429 1242.66 128.328C1243.58 131.226 1244.99 133.825 1246.87 136.125C1248.77 138.358 1251.09 140.217 1253.83 141.7C1256.64 143.192 1259.77 144.192 1263.19 144.697ZM1264.91 133.73C1263.4 133.507 1262.06 132.94 1260.92 132.03C1259.84 131.129 1258.96 129.989 1258.29 128.61C1257.63 127.164 1257.17 125.479 1256.91 123.555C1256.72 121.64 1256.79 119.561 1257.12 117.319L1257.46 115.043C1257.79 112.801 1258.32 110.823 1259.04 109.111C1259.83 107.408 1260.74 106.026 1261.77 104.965C1262.82 103.838 1263.98 103.033 1265.26 102.548C1266.62 102.008 1268.06 101.849 1269.58 102.073L1270.37 102.189C1271.89 102.413 1273.19 102.975 1274.27 103.876C1275.42 104.72 1276.34 105.832 1277.01 107.211C1277.76 108.534 1278.23 110.121 1278.43 111.969C1278.63 113.818 1278.56 115.864 1278.23 118.106L1277.9 120.382C1277.57 122.624 1277.04 124.635 1276.3 126.413C1275.57 128.192 1274.64 129.673 1273.52 130.856C1272.48 131.982 1271.28 132.816 1269.92 133.357C1268.63 133.907 1267.22 134.071 1265.7 133.847L1264.91 133.73Z" fill="white"/>
<path d="M1318.24 128.825L1330.84 131.075L1331.12 129.5C1331.38 128.057 1331.84 126.818 1332.49 125.784C1333.23 124.697 1334.11 123.737 1335.14 122.905C1336.17 122.073 1337.29 121.324 1338.49 120.658C1339.7 119.927 1340.95 119.202 1342.23 118.482C1344.09 117.528 1345.69 116.56 1347.01 115.578C1348.42 114.543 1349.63 113.471 1350.64 112.365C1351.66 111.193 1352.45 109.98 1353.01 108.726C1353.65 107.419 1354.11 105.977 1354.39 104.402C1354.86 101.777 1354.73 99.2819 1354 96.9169C1353.29 94.4862 1352.09 92.3076 1350.4 90.3808C1348.72 88.3884 1346.55 86.7136 1343.88 85.3564C1341.28 84.0109 1338.37 83.0509 1335.15 82.4765C1331.54 81.8318 1328.13 81.7648 1324.93 82.2756C1321.72 82.7865 1318.83 83.7942 1316.26 85.2988C1313.77 86.7496 1311.67 88.6433 1309.96 90.9801C1308.27 93.2512 1307.08 95.9173 1306.4 98.9784L1318.96 103.152C1319.26 101.851 1319.77 100.69 1320.5 99.6682C1321.29 98.658 1322.21 97.8412 1323.27 97.2178C1324.41 96.5404 1325.64 96.0834 1326.97 95.8468C1328.38 95.5562 1329.87 95.5516 1331.44 95.8329C1333.94 96.2784 1335.84 97.1938 1337.15 98.5791C1338.47 99.8987 1338.96 101.543 1338.61 103.512C1338.43 104.496 1338.03 105.407 1337.41 106.244C1336.86 107.026 1336.16 107.714 1335.31 108.307C1334.53 108.912 1333.64 109.532 1332.64 110.167C1331.66 110.736 1330.68 111.306 1329.7 111.875C1328.18 112.757 1326.8 113.694 1325.54 114.688C1324.35 115.628 1323.29 116.657 1322.34 117.775C1321.48 118.839 1320.72 120.025 1320.08 121.333C1319.44 122.64 1318.98 124.115 1318.68 125.755C1318.65 125.952 1318.61 126.182 1318.56 126.444C1318.51 126.707 1318.46 127.002 1318.4 127.33C1318.34 127.659 1318.29 127.954 1318.24 128.216C1318.26 128.491 1318.26 128.693 1318.24 128.825ZM1320.59 154.336C1321.83 154.558 1323.06 154.54 1324.25 154.279C1325.44 154.085 1326.49 153.697 1327.41 153.116C1328.4 152.481 1329.22 151.712 1329.85 150.81C1330.56 149.853 1331.03 148.785 1331.24 147.603L1331.34 147.013C1331.54 145.897 1331.47 144.8 1331.12 143.722C1330.83 142.655 1330.33 141.685 1329.61 140.811C1328.96 139.882 1328.11 139.122 1327.07 138.529C1326.03 137.87 1324.89 137.429 1323.65 137.207C1322.4 136.984 1321.18 137.003 1319.98 137.263C1318.86 137.469 1317.8 137.89 1316.81 138.525C1315.89 139.106 1315.12 139.848 1314.48 140.75C1313.85 141.653 1313.43 142.662 1313.23 143.777L1313.12 144.368C1312.91 145.549 1312.94 146.706 1313.22 147.838C1313.5 148.904 1313.96 149.902 1314.61 150.83C1315.34 151.704 1316.19 152.432 1317.17 153.013C1318.2 153.672 1319.34 154.113 1320.59 154.336Z" fill="white"/>
</svg>
